<svg width="32" height="32" viewBox="0 0 32 32" fill="none" xmlns="http://www.w3.org/2000/svg">
<path d="M2.66797 9.33329L8.54797 3.45329C8.79605 3.20374 9.09106 3.00574 9.41601 2.87073C9.74096 2.73571 10.0894 2.66635 10.4413 2.66663H21.5613C21.9132 2.66635 22.2616 2.73571 22.5866 2.87073C22.9115 3.00574 23.2066 3.20374 23.4546 3.45329L29.3346 9.33329M2.66797 9.33329H29.3346M2.66797 9.33329V13.3333C2.66797 14.0405 2.94892 14.7188 3.44902 15.2189C3.94911 15.719 4.62739 16 5.33464 16M29.3346 9.33329V13.3333C29.3346 14.0405 29.0537 14.7188 28.5536 15.2189C28.0535 15.719 27.3752 16 26.668 16M5.33464 16V26.6666C5.33464 27.3739 5.61559 28.0521 6.11568 28.5522C6.61578 29.0523 7.29406 29.3333 8.0013 29.3333H24.0013C24.7085 29.3333 25.3868 29.0523 25.8869 28.5522C26.387 28.0521 26.668 27.3739 26.668 26.6666V16M5.33464 16C6.11366 15.9571 6.85766 15.6623 7.45464 15.16C7.61373 15.045 7.80502 14.9831 8.0013 14.9831C8.19759 14.9831 8.38888 15.045 8.54797 15.16C9.14494 15.6623 9.88895 15.9571 10.668 16C11.447 15.9571 12.191 15.6623 12.788 15.16C12.9471 15.045 13.1383 14.9831 13.3346 14.9831C13.5309 14.9831 13.7222 15.045 13.8813 15.16C14.4783 15.6623 15.2223 15.9571 16.0013 16C16.7803 15.9571 17.5243 15.6623 18.1213 15.16C18.2804 15.045 18.4717 14.9831 18.668 14.9831C18.8643 14.9831 19.0555 15.045 19.2146 15.16C19.8116 15.6623 20.5556 15.9571 21.3346 16C22.1137 15.9571 22.8577 15.6623 23.4546 15.16C23.6137 15.045 23.805 14.9831 24.0013 14.9831C24.1976 14.9831 24.3889 15.045 24.548 15.16C25.1449 15.6623 25.8889 15.9571 26.668 16M20.0013 29.3333V24C20.0013 23.2927 19.7203 22.6144 19.2203 22.1143C18.7202 21.6142 18.0419 21.3333 17.3346 21.3333H14.668C13.9607 21.3333 13.2824 21.6142 12.7824 22.1143C12.2823 22.6144 12.0013 23.2927 12.0013 24V29.3333" stroke="#7B7B7B" stroke-width="1.5" stroke-linecap="round" stroke-linejoin="round"/>
</svg>
