<svg width="32" height="32" viewBox="0 0 32 32" fill="none" xmlns="http://www.w3.org/2000/svg">
<path d="M21.3336 10.6667H13.3336C12.6263 10.6667 11.9481 10.9477 11.448 11.4478C10.9479 11.9479 10.6669 12.6261 10.6669 13.3334C10.6669 14.0406 10.9479 14.7189 11.448 15.219C11.9481 15.7191 12.6263 16 13.3336 16H18.6669C19.3742 16 20.0524 16.281 20.5525 16.7811C21.0526 17.2812 21.3336 17.9595 21.3336 18.6667C21.3336 19.374 21.0526 20.0522 20.5525 20.5523C20.0524 21.0524 19.3742 21.3334 18.6669 21.3334H10.6669M16.0003 24V8.00005M5.13359 11.4934C4.93898 10.6168 4.96886 9.70517 5.22047 8.84317C5.47207 7.98116 5.93725 7.19664 6.57288 6.56234C7.20851 5.92805 7.994 5.46451 8.85653 5.21471C9.71906 4.96491 10.6307 4.93694 11.5069 5.13338C11.9892 4.37912 12.6536 3.75839 13.4389 3.32843C14.2241 2.89847 15.105 2.6731 16.0003 2.6731C16.8955 2.6731 17.7764 2.89847 18.5617 3.32843C19.3469 3.75839 20.0113 4.37912 20.4936 5.13338C21.3711 4.93608 22.2844 4.96393 23.1483 5.21433C24.0122 5.46474 24.7987 5.92957 25.4347 6.56559C26.0707 7.2016 26.5356 7.98815 26.786 8.85205C27.0364 9.71596 27.0642 10.6292 26.8669 11.5067C27.6212 11.989 28.2419 12.6534 28.6719 13.4386C29.1018 14.2239 29.3272 15.1048 29.3272 16C29.3272 16.8953 29.1018 17.7762 28.6719 18.5614C28.2419 19.3467 27.6212 20.0111 26.8669 20.4934C27.0634 21.3696 27.0354 22.2812 26.7856 23.1438C26.5358 24.0063 26.0723 24.7918 25.438 25.4274C24.8037 26.0631 24.0191 26.5282 23.1571 26.7798C22.2951 27.0314 21.3836 27.0613 20.5069 26.8667C20.0253 27.6239 19.3604 28.2473 18.5738 28.6791C17.7872 29.111 16.9043 29.3375 16.0069 29.3375C15.1096 29.3375 14.2267 29.111 13.4401 28.6791C12.6535 28.2473 11.9886 27.6239 11.5069 26.8667C10.6307 27.0632 9.71906 27.0352 8.85653 26.7854C7.994 26.5356 7.20851 26.0721 6.57288 25.4378C5.93725 24.8035 5.47207 24.0189 5.22047 23.1569C4.96886 22.2949 4.93898 21.3833 5.13359 20.5067C4.37353 20.0257 3.74748 19.3603 3.31366 18.5723C2.87983 17.7844 2.65234 16.8995 2.65234 16C2.65234 15.1006 2.87983 14.2157 3.31366 13.4278C3.74748 12.6398 4.37353 11.9744 5.13359 11.4934Z" stroke="#7B7B7B" stroke-width="1.5" stroke-linecap="round" stroke-linejoin="round"/>
</svg>
