<svg width="32" height="32" viewBox="0 0 32 32" fill="none" xmlns="http://www.w3.org/2000/svg">
<path d="M24.0013 28C24.0013 25.171 22.8775 22.4579 20.8771 20.4575C18.8767 18.4571 16.1636 17.3333 13.3346 17.3333M13.3346 17.3333C10.5057 17.3333 7.79255 18.4571 5.79216 20.4575C3.79178 22.4579 2.66797 25.171 2.66797 28M13.3346 17.3333C17.0165 17.3333 20.0013 14.3486 20.0013 10.6667C20.0013 6.98477 17.0165 4 13.3346 4C9.65274 4 6.66797 6.98477 6.66797 10.6667C6.66797 14.3486 9.65274 17.3333 13.3346 17.3333ZM29.3346 26.6667C29.3346 22.1733 26.668 18 24.0013 16C24.8779 15.3424 25.5788 14.4788 26.0421 13.4857C26.5053 12.4926 26.7166 11.4006 26.6573 10.3064C26.598 9.21218 26.2699 8.14945 25.7019 7.21227C25.134 6.27508 24.3438 5.49235 23.4013 4.93333" stroke="#7B7B7B" stroke-width="1.5" stroke-linecap="round" stroke-linejoin="round"/>
</svg>
