<svg width="32" height="32" viewBox="0 0 32 32" fill="none" xmlns="http://www.w3.org/2000/svg">
<path d="M20 28.3326V17.666C20 17.3124 19.8595 16.9732 19.6095 16.7232C19.3594 16.4731 19.0203 16.3326 18.6667 16.3326H13.3333C12.9797 16.3326 12.6406 16.4731 12.3905 16.7232C12.1405 16.9732 12 17.3124 12 17.666V28.3326M4 13.666C3.99991 13.2781 4.08445 12.8948 4.24772 12.5429C4.41099 12.1911 4.64906 11.879 4.94533 11.6286L14.2787 3.62997C14.76 3.22318 15.3698 3 16 3C16.6302 3 17.24 3.22318 17.7213 3.62997L27.0547 11.6286C27.3509 11.879 27.589 12.1911 27.7523 12.5429C27.9156 12.8948 28.0001 13.2781 28 13.666V25.666C28 26.3732 27.719 27.0515 27.219 27.5516C26.7189 28.0517 26.0406 28.3326 25.3333 28.3326H6.66667C5.95942 28.3326 5.28115 28.0517 4.78105 27.5516C4.28095 27.0515 4 26.3732 4 25.666V13.666Z" stroke="#7B7B7B" stroke-width="1.5" stroke-linecap="round" stroke-linejoin="round"/>
</svg>
