<svg width="32" height="32" viewBox="0 0 32 32" fill="none" xmlns="http://www.w3.org/2000/svg">
<path d="M29.3331 13.3333V21.3333M7.99973 16.6666V21.3333C7.99973 22.3941 8.84259 23.4116 10.3429 24.1617C11.8432 24.9119 13.878 25.3333 15.9997 25.3333C18.1215 25.3333 20.1563 24.9119 21.6566 24.1617C23.1569 23.4116 23.9997 22.3941 23.9997 21.3333V16.6666M28.5597 14.5626C28.7984 14.4573 29.001 14.2843 29.1423 14.065C29.2836 13.8457 29.3575 13.5898 29.3548 13.3289C29.3521 13.0681 29.273 12.8137 29.1271 12.5974C28.9813 12.3811 28.7752 12.2123 28.5344 12.1119L17.1064 6.90661C16.759 6.74815 16.3816 6.66614 15.9997 6.66614C15.6179 6.66614 15.2405 6.74815 14.8931 6.90661L3.4664 12.1066C3.22902 12.2106 3.02709 12.3815 2.88529 12.5984C2.74349 12.8153 2.66797 13.0688 2.66797 13.3279C2.66797 13.5871 2.74349 13.8406 2.88529 14.0575C3.02709 14.2744 3.22902 14.4453 3.4664 14.5493L14.8931 19.7599C15.2405 19.9184 15.6179 20.0004 15.9997 20.0004C16.3816 20.0004 16.759 19.9184 17.1064 19.7599L28.5597 14.5626Z" stroke="#7B7B7B" stroke-width="1.5" stroke-linecap="round" stroke-linejoin="round"/>
</svg>
