<svg width="27" height="26" viewBox="0 0 27 26" fill="none" xmlns="http://www.w3.org/2000/svg">
<path d="M12.1549 1.85525C12.7051 0.740385 14.2949 0.740385 14.8451 1.85526L17.2886 6.80626C17.6527 7.54412 18.3566 8.05554 19.1709 8.17387L24.6347 8.9678C25.865 9.14657 26.3563 10.6585 25.466 11.5263L21.5124 15.3802C20.9232 15.9545 20.6543 16.782 20.7934 17.593L21.7267 23.0347C21.9369 24.26 20.6507 25.1945 19.5503 24.6159L14.6634 22.0467C13.935 21.6638 13.065 21.6638 12.3366 22.0467L7.44971 24.6159C6.34927 25.1945 5.06312 24.26 5.27329 23.0347L6.20661 17.593C6.3457 16.782 6.07683 15.9545 5.48762 15.3802L1.534 11.5263C0.643724 10.6585 1.13499 9.14657 2.36532 8.9678L7.82908 8.17387C8.64336 8.05554 9.34727 7.54412 9.71143 6.80626L12.1549 1.85525Z" fill="url(#paint0_linear_1694_35371)" stroke="url(#paint1_linear_1694_35371)"/>
<defs>
<linearGradient id="paint0_linear_1694_35371" x1="-2.5" y1="-2" x2="31.682" y2="0.530944" gradientUnits="userSpaceOnUse">
<stop stop-color="#F36364"/>
<stop offset="1" stop-color="#F292ED"/>
</linearGradient>
<linearGradient id="paint1_linear_1694_35371" x1="-2.5" y1="-2" x2="31.682" y2="0.530944" gradientUnits="userSpaceOnUse">
<stop stop-color="#FF9596"/>
<stop offset="1" stop-color="#FFB0FF"/>
</linearGradient>
</defs>
</svg>
