<svg width="18" height="18" viewBox="0 0 18 18" fill="none" xmlns="http://www.w3.org/2000/svg">
<g clip-path="url(#clip0_1694_34987)">
<path d="M12.375 5.99988C12.5821 5.99988 12.75 5.83198 12.75 5.62488C12.75 5.41777 12.5821 5.24988 12.375 5.24988C12.1679 5.24988 12 5.41777 12 5.62488C12 5.83198 12.1679 5.99988 12.375 5.99988Z" fill="black"/>
<path d="M1.9395 13.0604C1.65818 13.3416 1.50008 13.7231 1.5 14.1209V15.7499C1.5 15.9488 1.57902 16.1396 1.71967 16.2802C1.86032 16.4209 2.05109 16.4999 2.25 16.4999H4.5C4.69891 16.4999 4.88968 16.4209 5.03033 16.2802C5.17098 16.1396 5.25 15.9488 5.25 15.7499V14.9999C5.25 14.801 5.32902 14.6102 5.46967 14.4695C5.61032 14.3289 5.80109 14.2499 6 14.2499H6.75C6.94891 14.2499 7.13968 14.1709 7.28033 14.0302C7.42098 13.8896 7.5 13.6988 7.5 13.4999V12.7499C7.5 12.551 7.57902 12.3602 7.71967 12.2195C7.86032 12.0789 8.05109 11.9999 8.25 11.9999H8.379C8.77679 11.9998 9.15826 11.8417 9.4395 11.5604L10.05 10.9499C11.0924 11.313 12.2271 11.3116 13.2686 10.9459C14.3101 10.5803 15.1967 9.872 15.7833 8.93697C16.3699 8.00194 16.6218 6.89551 16.4978 5.79868C16.3739 4.70185 15.8813 3.67957 15.1008 2.89905C14.3203 2.11854 13.298 1.62601 12.2012 1.50204C11.1044 1.37807 9.99794 1.63 9.06291 2.21661C8.12787 2.80322 7.41959 3.68978 7.05394 4.73127C6.68828 5.77275 6.68689 6.9075 7.05 7.94988L1.9395 13.0604Z" stroke="black" stroke-width="1.5" stroke-linecap="round" stroke-linejoin="round"/>
<path d="M12.375 5.99988C12.5821 5.99988 12.75 5.83198 12.75 5.62488C12.75 5.41777 12.5821 5.24988 12.375 5.24988C12.1679 5.24988 12 5.41777 12 5.62488C12 5.83198 12.1679 5.99988 12.375 5.99988Z" stroke="black" stroke-width="1.5" stroke-linecap="round" stroke-linejoin="round"/>
</g>
<defs>
<clipPath id="clip0_1694_34987">
<rect width="18" height="18" fill="white"/>
</clipPath>
</defs>
</svg>  