<svg width="32" height="32" viewBox="0 0 32 32" fill="none" xmlns="http://www.w3.org/2000/svg">
<rect x="0.5" y="0.5" width="31" height="31" rx="5.5" fill="url(#paint0_linear_1941_52716)" stroke="url(#paint1_linear_1941_52716)"/>
<path d="M16.1486 25C14.3018 25 12.6754 24.7173 11.2728 24.1552C9.87017 23.5931 8.77813 22.8653 8 21.9783L10.9589 19.496C11.3296 19.1841 11.8773 19.1419 12.2747 19.4213C12.819 19.8047 13.4101 20.1036 14.048 20.3213C14.9597 20.6235 15.7612 20.7762 16.4525 20.7762C16.6963 20.7762 16.9201 20.7534 17.1204 20.7112C17.3208 20.669 17.4778 20.604 17.588 20.5162C17.7216 20.409 17.8217 20.2986 17.8885 20.1913C17.9787 20.0614 18.0221 19.9217 18.0221 19.769C18.0221 19.4018 17.8318 19.1191 17.4544 18.9242C17.254 18.8365 16.9201 18.7292 16.4525 18.5993C16.0083 18.4466 15.4072 18.2841 14.6491 18.1119C13.714 17.8747 12.8791 17.5921 12.1444 17.2671C11.4097 16.9195 10.7852 16.5199 10.2743 16.065C9.78334 15.6101 9.39595 15.0903 9.10541 14.5054C8.83824 13.8978 8.70465 13.2383 8.70465 12.5235C8.70465 11.656 8.90503 10.8892 9.30578 10.2166C9.70653 9.54404 10.2642 8.9722 10.9756 8.49458C11.6869 7.99747 12.4884 7.62708 13.3801 7.38989C14.2718 7.12996 15.1835 7 16.1186 7C17.1638 7 18.1457 7.10722 19.0574 7.32491C19.9925 7.51986 20.8608 7.81227 21.6623 8.20217C22.4872 8.56931 23.2219 9.02419 23.8664 9.56679L21.315 12.3058C20.961 12.6859 20.3765 12.7606 19.9424 12.4715C19.7487 12.3448 19.5416 12.2181 19.3246 12.0978C18.8336 11.8152 18.3227 11.5877 17.7884 11.4155C17.254 11.2206 16.7531 11.1231 16.2855 11.1231C15.995 11.1231 15.7512 11.1458 15.5508 11.1881C15.3504 11.2303 15.1835 11.2953 15.0499 11.383C14.9163 11.4708 14.8161 11.578 14.7493 11.7079C14.6825 11.8379 14.6491 11.9776 14.6491 12.1303C14.6491 12.3253 14.7059 12.5105 14.8161 12.6827C14.9263 12.8549 15.1067 12.9978 15.3504 13.1051C15.5508 13.2123 15.8848 13.3552 16.3523 13.5274C16.8432 13.6801 17.5446 13.8751 18.4563 14.1123C19.4815 14.3949 20.3699 14.7199 21.1279 15.087C21.886 15.4542 22.4972 15.8765 22.9647 16.3542C23.2987 16.7213 23.5558 17.1339 23.7328 17.5888C23.9098 18.0209 24 18.5083 24 19.0509C24 20.1978 23.656 21.2278 22.9647 22.1375C22.2968 23.0245 21.3717 23.7296 20.1929 24.2495C19.014 24.7466 17.6648 24.9967 16.152 24.9967L16.1486 25Z" fill="white"/>
<path d="M26.5 8C25.7021 8 25.0824 7.78385 24.6383 7.34896C24.2128 6.91406 24 6.29948 24 5.5C24 4.77083 24.2314 4.17188 24.6915 3.70313C25.1516 3.23438 25.7553 3 26.5 3C27.2447 3 27.891 3.21615 28.3351 3.65104C28.7793 4.08594 29 4.70052 29 5.5C29 6.22917 28.7686 6.82812 28.3085 7.29688C27.8484 7.76562 27.2447 8 26.5 8Z" fill="white"/>
<defs>
<linearGradient id="paint0_linear_1941_52716" x1="0" y1="0" x2="34.182" y2="2.53094" gradientUnits="userSpaceOnUse">
<stop stop-color="#F36364"/>
<stop offset="1" stop-color="#F292ED"/>
</linearGradient>
<linearGradient id="paint1_linear_1941_52716" x1="0" y1="0" x2="34.182" y2="2.53094" gradientUnits="userSpaceOnUse">
<stop stop-color="#FF9596"/>
<stop offset="1" stop-color="#FFB0FF"/>
</linearGradient>
</defs>
</svg>
