<svg width="128" height="32" viewBox="0 0 128 32" fill="none" xmlns="http://www.w3.org/2000/svg">
<path fill-rule="evenodd" clip-rule="evenodd" d="M14.2378 31.9423C11.0109 31.9423 8.16922 31.4407 5.71845 30.4432C3.26769 29.4458 1.35959 28.1542 0 26.5802L5.16995 22.1751C5.81765 21.6216 6.77462 21.5467 7.469 22.0425C8.42013 22.7229 9.45296 23.2533 10.5675 23.6396C12.1605 24.1759 13.5609 24.4468 14.7688 24.4468C15.1947 24.4468 15.5857 24.4065 15.9358 24.3315C16.2859 24.2566 16.5602 24.1413 16.7527 23.9856C16.9861 23.7953 17.1612 23.5993 17.2779 23.409C17.4354 23.1784 17.5113 22.9304 17.5113 22.6595C17.5113 22.0079 17.1787 21.5063 16.5193 21.1604C16.1692 21.0047 15.5857 20.8144 14.7688 20.5838C13.9927 20.3128 12.9424 20.0245 11.6178 19.7189C9.98395 19.298 8.52516 18.7964 7.24143 18.2198C5.9577 17.6029 4.86652 16.8937 3.97374 16.0865C3.11597 15.2793 2.4391 14.3568 1.93144 13.3189C1.46462 12.2407 1.23122 11.0703 1.23122 9.8018C1.23122 8.26234 1.58133 6.90162 2.28155 5.70811C2.98177 4.51459 3.95624 3.49982 5.19912 2.65225C6.44201 1.77009 7.84245 1.11279 9.40044 0.691892C10.9584 0.230631 12.5514 0 14.1853 0C16.0117 0 17.7272 0.19027 19.3202 0.576577C20.9541 0.922522 22.4712 1.44144 23.8716 2.13333C25.3129 2.78486 26.5966 3.59207 27.7228 4.55495L23.2648 9.41549C22.6462 10.0901 21.6251 10.2227 20.8665 9.70955C20.5281 9.48468 20.1663 9.25982 19.787 9.04649C18.9292 8.54486 18.0365 8.14126 17.1028 7.83568C16.1692 7.48973 15.2939 7.31676 14.477 7.31676C13.9694 7.31676 13.5434 7.35712 13.1933 7.43207C12.8432 7.50703 12.5514 7.62234 12.318 7.77802C12.0846 7.93369 11.9096 8.12396 11.7929 8.35459C11.6761 8.58522 11.6178 8.83315 11.6178 9.10414C11.6178 9.45009 11.717 9.77874 11.9096 10.0843C12.1021 10.3899 12.4172 10.6436 12.8432 10.8339C13.1933 11.0241 13.7768 11.2778 14.5937 11.5834C15.4515 11.8544 16.6769 12.2004 18.2699 12.6213C20.0613 13.1229 21.6134 13.6995 22.938 14.351C24.2626 15.0025 25.3304 15.7521 26.1473 16.5996C26.7309 17.2512 27.1802 17.9834 27.4894 18.7906C27.7987 19.5575 27.9562 20.4223 27.9562 21.3852C27.9562 23.4205 27.3552 25.2483 26.1473 26.8627C24.9803 28.4368 23.364 29.6879 21.3042 30.6104C19.2443 31.4926 16.8869 31.9366 14.2436 31.9366L14.2378 31.9423ZM44.4639 31.9423C41.3887 31.9423 38.6287 31.2504 36.178 29.8667C33.768 28.4829 31.8599 26.5975 30.4595 24.2162C29.0591 21.7946 28.3588 19.0443 28.3588 15.9712C28.3588 12.898 29.0591 10.165 30.4595 7.78378C31.8599 5.36216 33.768 3.45946 36.178 2.07568C38.6287 0.691892 41.3887 0 44.4639 0C47.2648 0 49.8322 0.443964 52.1663 1.32613C54.5412 2.20829 56.4259 3.47676 57.8264 5.13153L53.2283 10.5283C52.5923 11.2721 51.4777 11.445 50.6842 10.8685L50.6492 10.8437L50.6491 10.8437C50.5372 10.7646 50.4205 10.6821 50.299 10.609C49.6397 10.1477 48.8986 9.8018 48.0817 9.57117C47.3056 9.30018 46.4303 9.16757 45.4559 9.16757C44.1721 9.16757 43.0459 9.45585 42.0715 10.0324C41.097 10.609 40.3384 11.4162 39.7957 12.4541C39.2881 13.4515 39.0372 14.6047 39.0372 15.9135C39.0372 17.2223 39.2881 18.3755 39.7957 19.373C40.3034 20.3704 41.0386 21.1777 42.0131 21.7946C43.0226 22.4115 44.1721 22.7171 45.4559 22.7171C46.4303 22.7171 47.3056 22.6018 48.0817 22.3712C48.8986 22.1405 49.6163 21.8119 50.2407 21.391C50.3749 21.3045 50.5033 21.218 50.6258 21.1258C51.4369 20.5377 52.5572 20.6299 53.1991 21.391L57.8264 26.8627C56.3851 28.4771 54.4828 29.7283 52.1079 30.6104C49.7739 31.4926 47.2239 31.9366 44.4639 31.9366V31.9423ZM80.4902 10.3784L82.9643 0.518919C82.4157 0.363243 81.8322 0.247928 81.2137 0.172973C80.5893 0.0576577 79.93 0 79.2298 0C77.5551 0 75.9621 0.403604 74.4449 1.21081C72.9278 1.97766 71.6207 3.05586 70.5354 4.43964C70.4012 4.61261 70.267 4.79135 70.1444 4.97009L69.9927 2.36396C69.9343 1.39532 69.1233 0.634234 68.1371 0.634234H59.7403V26.2977L61.4909 28.3791L63.2998 30.5297C63.7433 31.0602 64.4026 31.3658 65.097 31.3658H68.7907C69.8176 31.3658 70.6521 30.5413 70.6521 29.5265V16.6631C70.6521 15.8155 70.7688 15.0832 71.0022 14.4721C71.2356 13.8148 71.5624 13.2613 71.9942 12.8C72.4201 12.3387 72.9453 11.9928 73.5697 11.7622C74.1882 11.4912 74.8884 11.3586 75.6703 11.3586C76.5631 11.3586 77.3975 11.4739 78.1794 11.7045C78.1853 11.7045 78.1911 11.7045 78.2028 11.7103C79.2123 11.9582 80.2392 11.3816 80.4902 10.3784ZM113.395 12.4541V31.3658H104.403C103.376 31.3658 102.541 30.5413 102.541 29.5265V13.3189C102.541 12.3157 102.384 11.4912 102.074 10.8396C101.765 10.1477 101.298 9.62883 100.674 9.28288C100.05 8.93694 99.3144 8.78126 98.4566 8.82162C97.7972 8.82162 97.1729 8.91387 96.5894 9.10991C96.0467 9.30018 95.5565 9.60577 95.1306 10.0324C94.7046 10.413 94.372 10.8569 94.1386 11.3586C93.946 11.8544 93.8468 12.4137 93.8468 13.0306V29.5323C93.8468 30.547 93.0182 31.3658 91.9913 31.3658H82.9351V8.75243L84.5456 2.38126C84.8082 1.35496 85.7418 0.634234 86.8096 0.634234H91.3611C92.3355 0.634234 93.1466 1.37802 93.2167 2.33514L93.3392 3.97838C93.4267 3.88036 93.5201 3.78234 93.6134 3.69009C94.7396 2.53694 96.0817 1.63171 97.6397 0.98018C99.1977 0.322883 100.832 0 102.541 0C104.875 0 106.842 0.478559 108.435 1.44144C110.069 2.36396 111.294 3.76505 112.111 5.65045C112.969 7.4955 113.395 9.76144 113.395 12.4541ZM118.43 30.5585C119.405 31.5214 120.764 32 122.515 32C124.149 32 125.473 31.481 126.483 30.4432C127.492 29.4054 128 28.0792 128 26.4648C128 24.6947 127.516 23.334 126.541 22.3711C125.567 21.4082 124.149 20.9297 122.515 20.9297C120.881 20.9297 119.557 21.4486 118.547 22.4864C117.538 23.5243 117.03 24.8504 117.03 26.4648C117.03 28.2349 117.497 29.5956 118.43 30.5585Z" fill="black"/>
<path fill-rule="evenodd" clip-rule="evenodd" d="M14.2378 31.9423C11.0109 31.9423 8.16922 31.4407 5.71845 30.4432C3.26769 29.4458 1.35959 28.1542 0 26.5802L5.16995 22.1751C5.81765 21.6216 6.77462 21.5467 7.469 22.0425C8.42013 22.7229 9.45296 23.2533 10.5675 23.6396C12.1605 24.1759 13.5609 24.4468 14.7688 24.4468C15.1947 24.4468 15.5857 24.4065 15.9358 24.3315C16.2859 24.2566 16.5602 24.1413 16.7527 23.9856C16.9861 23.7953 17.1612 23.5993 17.2779 23.409C17.4354 23.1784 17.5113 22.9304 17.5113 22.6595C17.5113 22.0079 17.1787 21.5063 16.5193 21.1604C16.1692 21.0047 15.5857 20.8144 14.7688 20.5838C13.9927 20.3128 12.9424 20.0245 11.6178 19.7189C9.98395 19.298 8.52516 18.7964 7.24143 18.2198C5.9577 17.6029 4.86652 16.8937 3.97374 16.0865C3.11597 15.2793 2.4391 14.3568 1.93144 13.3189C1.46462 12.2407 1.23122 11.0703 1.23122 9.8018C1.23122 8.26234 1.58133 6.90162 2.28155 5.70811C2.98177 4.51459 3.95624 3.49982 5.19912 2.65225C6.44201 1.77009 7.84245 1.11279 9.40044 0.691892C10.9584 0.230631 12.5514 0 14.1853 0C16.0117 0 17.7272 0.19027 19.3202 0.576577C20.9541 0.922522 22.4712 1.44144 23.8716 2.13333C25.3129 2.78486 26.5966 3.59207 27.7228 4.55495L23.2648 9.41549C22.6462 10.0901 21.6251 10.2227 20.8665 9.70955C20.5281 9.48468 20.1663 9.25982 19.787 9.04649C18.9292 8.54486 18.0365 8.14126 17.1028 7.83568C16.1692 7.48973 15.2939 7.31676 14.477 7.31676C13.9694 7.31676 13.5434 7.35712 13.1933 7.43207C12.8432 7.50703 12.5514 7.62234 12.318 7.77802C12.0846 7.93369 11.9096 8.12396 11.7929 8.35459C11.6761 8.58522 11.6178 8.83315 11.6178 9.10414C11.6178 9.45009 11.717 9.77874 11.9096 10.0843C12.1021 10.3899 12.4172 10.6436 12.8432 10.8339C13.1933 11.0241 13.7768 11.2778 14.5937 11.5834C15.4515 11.8544 16.6769 12.2004 18.2699 12.6213C20.0613 13.1229 21.6134 13.6995 22.938 14.351C24.2626 15.0025 25.3304 15.7521 26.1473 16.5996C26.7309 17.2512 27.1802 17.9834 27.4894 18.7906C27.7987 19.5575 27.9562 20.4223 27.9562 21.3852C27.9562 23.4205 27.3552 25.2483 26.1473 26.8627C24.9803 28.4368 23.364 29.6879 21.3042 30.6104C19.2443 31.4926 16.8869 31.9366 14.2436 31.9366L14.2378 31.9423ZM44.4639 31.9423C41.3887 31.9423 38.6287 31.2504 36.178 29.8667C33.768 28.4829 31.8599 26.5975 30.4595 24.2162C29.0591 21.7946 28.3588 19.0443 28.3588 15.9712C28.3588 12.898 29.0591 10.165 30.4595 7.78378C31.8599 5.36216 33.768 3.45946 36.178 2.07568C38.6287 0.691892 41.3887 0 44.4639 0C47.2648 0 49.8322 0.443964 52.1663 1.32613C54.5412 2.20829 56.4259 3.47676 57.8264 5.13153L53.2283 10.5283C52.5923 11.2721 51.4777 11.445 50.6842 10.8685L50.6492 10.8437L50.6491 10.8437C50.5372 10.7646 50.4205 10.6821 50.299 10.609C49.6397 10.1477 48.8986 9.8018 48.0817 9.57117C47.3056 9.30018 46.4303 9.16757 45.4559 9.16757C44.1721 9.16757 43.0459 9.45585 42.0715 10.0324C41.097 10.609 40.3384 11.4162 39.7957 12.4541C39.2881 13.4515 39.0372 14.6047 39.0372 15.9135C39.0372 17.2223 39.2881 18.3755 39.7957 19.373C40.3034 20.3704 41.0386 21.1777 42.0131 21.7946C43.0226 22.4115 44.1721 22.7171 45.4559 22.7171C46.4303 22.7171 47.3056 22.6018 48.0817 22.3712C48.8986 22.1405 49.6163 21.8119 50.2407 21.391C50.3749 21.3045 50.5033 21.218 50.6258 21.1258C51.4369 20.5377 52.5572 20.6299 53.1991 21.391L57.8264 26.8627C56.3851 28.4771 54.4828 29.7283 52.1079 30.6104C49.7739 31.4926 47.2239 31.9366 44.4639 31.9366V31.9423ZM80.4902 10.3784L82.9643 0.518919C82.4157 0.363243 81.8322 0.247928 81.2137 0.172973C80.5893 0.0576577 79.93 0 79.2298 0C77.5551 0 75.9621 0.403604 74.4449 1.21081C72.9278 1.97766 71.6207 3.05586 70.5354 4.43964C70.4012 4.61261 70.267 4.79135 70.1444 4.97009L69.9927 2.36396C69.9343 1.39532 69.1233 0.634234 68.1371 0.634234H59.7403V26.2977L61.4909 28.3791L63.2998 30.5297C63.7433 31.0602 64.4026 31.3658 65.097 31.3658H68.7907C69.8176 31.3658 70.6521 30.5413 70.6521 29.5265V16.6631C70.6521 15.8155 70.7688 15.0832 71.0022 14.4721C71.2356 13.8148 71.5624 13.2613 71.9942 12.8C72.4201 12.3387 72.9453 11.9928 73.5697 11.7622C74.1882 11.4912 74.8884 11.3586 75.6703 11.3586C76.5631 11.3586 77.3975 11.4739 78.1794 11.7045C78.1853 11.7045 78.1911 11.7045 78.2028 11.7103C79.2123 11.9582 80.2392 11.3816 80.4902 10.3784ZM113.395 12.4541V31.3658H104.403C103.376 31.3658 102.541 30.5413 102.541 29.5265V13.3189C102.541 12.3157 102.384 11.4912 102.074 10.8396C101.765 10.1477 101.298 9.62883 100.674 9.28288C100.05 8.93694 99.3144 8.78126 98.4566 8.82162C97.7972 8.82162 97.1729 8.91387 96.5894 9.10991C96.0467 9.30018 95.5565 9.60577 95.1306 10.0324C94.7046 10.413 94.372 10.8569 94.1386 11.3586C93.946 11.8544 93.8468 12.4137 93.8468 13.0306V29.5323C93.8468 30.547 93.0182 31.3658 91.9913 31.3658H82.9351V8.75243L84.5456 2.38126C84.8082 1.35496 85.7418 0.634234 86.8096 0.634234H91.3611C92.3355 0.634234 93.1466 1.37802 93.2167 2.33514L93.3392 3.97838C93.4267 3.88036 93.5201 3.78234 93.6134 3.69009C94.7396 2.53694 96.0817 1.63171 97.6397 0.98018C99.1977 0.322883 100.832 0 102.541 0C104.875 0 106.842 0.478559 108.435 1.44144C110.069 2.36396 111.294 3.76505 112.111 5.65045C112.969 7.4955 113.395 9.76144 113.395 12.4541ZM118.43 30.5585C119.405 31.5214 120.764 32 122.515 32C124.149 32 125.473 31.481 126.483 30.4432C127.492 29.4054 128 28.0792 128 26.4648C128 24.6947 127.516 23.334 126.541 22.3711C125.567 21.4082 124.149 20.9297 122.515 20.9297C120.881 20.9297 119.557 21.4486 118.547 22.4864C117.538 23.5243 117.03 24.8504 117.03 26.4648C117.03 28.2349 117.497 29.5956 118.43 30.5585Z" fill="url(#paint0_linear_1694_34953)"/>
<defs>
<linearGradient id="paint0_linear_1694_34953" x1="0" y1="0" x2="126.391" y2="37.4335" gradientUnits="userSpaceOnUse">
<stop stop-color="#F36364"/>
<stop offset="1" stop-color="#F292ED"/>
</linearGradient>
</defs>
</svg>
