<svg width="250" height="250" viewBox="0 0 250 250" fill="none" xmlns="http://www.w3.org/2000/svg">
<g clip-path="url(#clip0_1815_39010)">
<rect width="250" height="250" fill="#2C2C2C"/>
<g clip-path="url(#clip1_1815_39010)">
<path fill-rule="evenodd" clip-rule="evenodd" d="M23.75 61.5C22.5142 61.5 21.5 62.5142 21.5 63.75V71.25C21.5 72.4858 22.5142 73.5 23.75 73.5H34.25C35.4858 73.5 36.5 72.4858 36.5 71.25V63.75C36.5 62.5142 35.4858 61.5 34.25 61.5H23.75ZM20 63.75C20 61.6858 21.6858 60 23.75 60H34.25C36.3142 60 38 61.6858 38 63.75V71.25C38 73.3142 36.3142 75 34.25 75H23.75C21.6858 75 20 73.3142 20 71.25V63.75Z" fill="#909090"/>
<path fill-rule="evenodd" clip-rule="evenodd" d="M27.5 58.5C27.0892 58.5 26.75 58.8392 26.75 59.25V60H31.25V59.25C31.25 58.8392 30.9108 58.5 30.5 58.5H27.5ZM25.25 59.25C25.25 58.0108 26.2608 57 27.5 57H30.5C31.7392 57 32.75 58.0108 32.75 59.25V60.75C32.75 61.1642 32.4142 61.5 32 61.5H26C25.5858 61.5 25.25 61.1642 25.25 60.75V59.25Z" fill="#909090"/>
<path fill-rule="evenodd" clip-rule="evenodd" d="M23 60.75C23 60.3358 23.3358 60 23.75 60H34.25C34.6642 60 35 60.3358 35 60.75V66.75C35 67.9892 33.9892 69 32.75 69H25.25C24.0108 69 23 67.9892 23 66.75V60.75ZM24.5 61.5V66.75C24.5 67.1608 24.8392 67.5 25.25 67.5H32.75C33.1608 67.5 33.5 67.1608 33.5 66.75V61.5H24.5Z" fill="#909090"/>
<path fill-rule="evenodd" clip-rule="evenodd" d="M29 66C29.4142 66 29.75 66.3358 29.75 66.75V69.75C29.75 70.1642 29.4142 70.5 29 70.5C28.5858 70.5 28.25 70.1642 28.25 69.75V66.75C28.25 66.3358 28.5858 66 29 66Z" fill="#909090"/>
</g>
<path d="M57.892 65.9998V58.4638H55.168V57.5158H61.66V58.4638H58.936V65.9998H57.892Z" fill="#909090"/>
<path d="M62.636 65.9998V59.6758H63.656V65.9998H62.636ZM63.14 58.7398C62.932 58.7398 62.764 58.6758 62.636 58.5478C62.516 58.4198 62.456 58.2558 62.456 58.0558C62.456 57.8558 62.52 57.6958 62.648 57.5758C62.776 57.4478 62.94 57.3838 63.14 57.3838C63.324 57.3838 63.484 57.4478 63.62 57.5758C63.764 57.7038 63.836 57.8638 63.836 58.0558C63.836 58.2558 63.768 58.4198 63.632 58.5478C63.496 58.6758 63.332 58.7398 63.14 58.7398Z" fill="#909090"/>
<path d="M67.829 65.9998C67.349 65.9998 66.961 65.9278 66.665 65.7838C66.377 65.6398 66.165 65.4158 66.029 65.1118C65.901 64.8078 65.837 64.4238 65.837 63.9598V60.5758H64.805V59.6758H65.837V57.7918H66.857V59.6758H68.549V60.5758H66.857V63.8518C66.857 64.2838 66.933 64.6038 67.085 64.8118C67.245 65.0118 67.565 65.1118 68.045 65.1118H68.513V65.9998H67.829Z" fill="#909090"/>
<path d="M69.7024 65.9998V57.5158H70.7224V65.9998H69.7024Z" fill="#909090"/>
<path d="M75.0634 66.0718C74.3914 66.0718 73.8354 65.9358 73.3954 65.6638C72.9554 65.3838 72.6274 64.9998 72.4114 64.5118C72.1954 64.0238 72.0874 63.4678 72.0874 62.8438C72.0874 62.2118 72.1994 61.6558 72.4234 61.1758C72.6554 60.6878 72.9914 60.3038 73.4314 60.0238C73.8714 59.7438 74.4114 59.6038 75.0514 59.6038C75.5474 59.6038 75.9714 59.6998 76.3234 59.8918C76.6834 60.0758 76.9794 60.3238 77.2114 60.6358C77.4434 60.9478 77.6114 61.2918 77.7154 61.6678C77.8194 62.0358 77.8634 62.4078 77.8474 62.7838C77.8394 62.8558 77.8314 62.9278 77.8234 62.9998C77.8234 63.0718 77.8194 63.1438 77.8114 63.2158H73.1194C73.1514 63.5838 73.2434 63.9158 73.3954 64.2118C73.5474 64.5078 73.7634 64.7438 74.0434 64.9198C74.3234 65.0878 74.6714 65.1718 75.0874 65.1718C75.2954 65.1718 75.5034 65.1478 75.7114 65.0998C75.9274 65.0438 76.1194 64.9518 76.2874 64.8238C76.4634 64.6958 76.5874 64.5238 76.6594 64.3078H77.7034C77.6074 64.7158 77.4274 65.0518 77.1634 65.3158C76.8994 65.5718 76.5834 65.7638 76.2154 65.8918C75.8474 66.0118 75.4634 66.0718 75.0634 66.0718ZM73.1434 62.3278H76.8034C76.7954 61.9678 76.7154 61.6518 76.5634 61.3798C76.4114 61.1078 76.2034 60.8958 75.9394 60.7438C75.6834 60.5918 75.3754 60.5158 75.0154 60.5158C74.6234 60.5158 74.2914 60.5998 74.0194 60.7678C73.7554 60.9358 73.5514 61.1558 73.4074 61.4278C73.2634 61.6998 73.1754 61.9998 73.1434 62.3278Z" fill="#909090"/>
<rect x="55" y="76" width="105" height="8" rx="4" fill="#4D4D4D"/>
<path d="M56.043 110V101.516H59.055C59.935 101.516 60.671 101.696 61.263 102.056C61.855 102.408 62.299 102.904 62.595 103.544C62.899 104.176 63.051 104.916 63.051 105.764C63.051 106.604 62.903 107.344 62.607 107.984C62.311 108.616 61.867 109.112 61.275 109.472C60.683 109.824 59.943 110 59.055 110H56.043ZM57.087 109.052H58.983C59.671 109.052 60.235 108.912 60.675 108.632C61.115 108.352 61.443 107.968 61.659 107.48C61.875 106.984 61.983 106.412 61.983 105.764C61.983 105.132 61.875 104.568 61.659 104.072C61.451 103.576 61.131 103.184 60.699 102.896C60.267 102.608 59.715 102.464 59.043 102.464H57.087V109.052Z" fill="#909090"/>
<path d="M67.1757 110.072C66.5037 110.072 65.9477 109.936 65.5077 109.664C65.0677 109.384 64.7397 109 64.5237 108.512C64.3077 108.024 64.1997 107.468 64.1997 106.844C64.1997 106.212 64.3117 105.656 64.5357 105.176C64.7677 104.688 65.1037 104.304 65.5437 104.024C65.9837 103.744 66.5237 103.604 67.1637 103.604C67.6597 103.604 68.0837 103.7 68.4357 103.892C68.7957 104.076 69.0917 104.324 69.3237 104.636C69.5557 104.948 69.7237 105.292 69.8277 105.668C69.9317 106.036 69.9757 106.408 69.9597 106.784C69.9517 106.856 69.9437 106.928 69.9357 107C69.9357 107.072 69.9317 107.144 69.9237 107.216H65.2317C65.2637 107.584 65.3557 107.916 65.5077 108.212C65.6597 108.508 65.8757 108.744 66.1557 108.92C66.4357 109.088 66.7837 109.172 67.1997 109.172C67.4077 109.172 67.6157 109.148 67.8237 109.1C68.0397 109.044 68.2317 108.952 68.3997 108.824C68.5757 108.696 68.6997 108.524 68.7717 108.308H69.8157C69.7197 108.716 69.5397 109.052 69.2757 109.316C69.0117 109.572 68.6957 109.764 68.3277 109.892C67.9597 110.012 67.5757 110.072 67.1757 110.072ZM65.2557 106.328H68.9157C68.9077 105.968 68.8277 105.652 68.6757 105.38C68.5237 105.108 68.3157 104.896 68.0517 104.744C67.7957 104.592 67.4877 104.516 67.1277 104.516C66.7357 104.516 66.4037 104.6 66.1317 104.768C65.8677 104.936 65.6637 105.156 65.5197 105.428C65.3757 105.7 65.2877 106 65.2557 106.328Z" fill="#909090"/>
<path d="M73.6226 110.072C73.3346 110.072 73.0426 110.044 72.7466 109.988C72.4586 109.932 72.1866 109.836 71.9306 109.7C71.6826 109.564 71.4746 109.38 71.3066 109.148C71.1386 108.916 71.0306 108.628 70.9826 108.284H72.0146C72.0946 108.5 72.2226 108.676 72.3986 108.812C72.5826 108.94 72.7866 109.032 73.0106 109.088C73.2426 109.144 73.4626 109.172 73.6706 109.172C73.7986 109.172 73.9466 109.164 74.1146 109.148C74.2826 109.132 74.4426 109.096 74.5946 109.04C74.7546 108.976 74.8826 108.884 74.9786 108.764C75.0826 108.644 75.1346 108.476 75.1346 108.26C75.1346 108.1 75.0986 107.968 75.0266 107.864C74.9546 107.76 74.8546 107.676 74.7266 107.612C74.5986 107.54 74.4426 107.488 74.2586 107.456C73.8826 107.376 73.4786 107.3 73.0466 107.228C72.6226 107.156 72.2466 107.02 71.9186 106.82C71.8066 106.748 71.7026 106.668 71.6066 106.58C71.5186 106.484 71.4426 106.38 71.3786 106.268C71.3146 106.148 71.2626 106.02 71.2226 105.884C71.1906 105.74 71.1746 105.584 71.1746 105.416C71.1746 105.104 71.2346 104.836 71.3546 104.612C71.4826 104.38 71.6586 104.192 71.8826 104.048C72.1066 103.896 72.3626 103.784 72.6506 103.712C72.9466 103.64 73.2626 103.604 73.5986 103.604C74.0146 103.604 74.3866 103.672 74.7146 103.808C75.0506 103.936 75.3266 104.128 75.5426 104.384C75.7586 104.632 75.8866 104.94 75.9266 105.308H74.9786C74.9226 105.076 74.7706 104.888 74.5226 104.744C74.2746 104.592 73.9586 104.516 73.5746 104.516C73.4466 104.516 73.3026 104.528 73.1426 104.552C72.9826 104.568 72.8306 104.608 72.6866 104.672C72.5426 104.728 72.4226 104.816 72.3266 104.936C72.2306 105.048 72.1826 105.2 72.1826 105.392C72.1826 105.568 72.2266 105.716 72.3146 105.836C72.4106 105.956 72.5426 106.052 72.7106 106.124C72.8786 106.196 73.0706 106.256 73.2866 106.304C73.5666 106.36 73.8746 106.42 74.2106 106.484C74.5466 106.54 74.8106 106.6 75.0026 106.664C75.2586 106.744 75.4706 106.856 75.6386 107C75.8146 107.144 75.9426 107.316 76.0226 107.516C76.1106 107.716 76.1546 107.948 76.1546 108.212C76.1546 108.588 76.0786 108.896 75.9266 109.136C75.7826 109.376 75.5866 109.564 75.3386 109.7C75.0906 109.836 74.8146 109.932 74.5106 109.988C74.2146 110.044 73.9186 110.072 73.6226 110.072Z" fill="#909090"/>
<path d="M80.2413 110.072C79.5773 110.072 79.0253 109.936 78.5853 109.664C78.1533 109.384 77.8293 109 77.6133 108.512C77.4053 108.024 77.3013 107.472 77.3013 106.856C77.3013 106.256 77.4092 105.712 77.6252 105.224C77.8492 104.728 78.1852 104.336 78.6332 104.048C79.0892 103.752 79.6652 103.604 80.3612 103.604C80.7932 103.604 81.1773 103.676 81.5133 103.82C81.8573 103.964 82.1412 104.176 82.3652 104.456C82.5892 104.728 82.7452 105.072 82.8333 105.488H81.7892C81.6692 105.136 81.4773 104.888 81.2133 104.744C80.9573 104.592 80.6533 104.516 80.3013 104.516C79.8213 104.516 79.4373 104.628 79.1493 104.852C78.8613 105.076 78.6493 105.368 78.5133 105.728C78.3853 106.08 78.3212 106.456 78.3212 106.856C78.3212 107.272 78.3892 107.656 78.5252 108.008C78.6612 108.36 78.8732 108.644 79.1612 108.86C79.4492 109.068 79.8213 109.172 80.2773 109.172C80.6133 109.172 80.9293 109.1 81.2253 108.956C81.5293 108.812 81.7293 108.556 81.8253 108.188H82.8813C82.8013 108.62 82.6292 108.976 82.3652 109.256C82.1092 109.536 81.7932 109.744 81.4172 109.88C81.0492 110.008 80.6573 110.072 80.2413 110.072Z" fill="#909090"/>
<path d="M84.1741 110V103.676H85.1581L85.2061 104.66C85.3661 104.412 85.5501 104.212 85.7581 104.06C85.9741 103.908 86.2101 103.796 86.4661 103.724C86.7301 103.644 87.0141 103.604 87.3181 103.604C87.3741 103.604 87.4261 103.604 87.4741 103.604C87.5301 103.604 87.5861 103.604 87.6421 103.604V104.564H87.2701C86.7741 104.564 86.3701 104.672 86.0581 104.888C85.7541 105.096 85.5341 105.38 85.3981 105.74C85.2621 106.092 85.1941 106.484 85.1941 106.916V110H84.1741Z" fill="#909090"/>
<path d="M88.6506 110V103.676H89.6706V110H88.6506ZM89.1546 102.74C88.9466 102.74 88.7786 102.676 88.6506 102.548C88.5306 102.42 88.4706 102.256 88.4706 102.056C88.4706 101.856 88.5346 101.696 88.6626 101.576C88.7906 101.448 88.9546 101.384 89.1546 101.384C89.3386 101.384 89.4986 101.448 89.6346 101.576C89.7786 101.704 89.8506 101.864 89.8506 102.056C89.8506 102.256 89.7826 102.42 89.6466 102.548C89.5106 102.676 89.3466 102.74 89.1546 102.74Z" fill="#909090"/>
<path d="M91.2756 112.28V103.676H92.2476L92.2956 104.624C92.5116 104.296 92.8036 104.044 93.1716 103.868C93.5476 103.692 93.9516 103.604 94.3836 103.604C95.0236 103.604 95.5476 103.748 95.9556 104.036C96.3636 104.316 96.6636 104.7 96.8556 105.188C97.0556 105.676 97.1556 106.228 97.1556 106.844C97.1556 107.46 97.0556 108.012 96.8556 108.5C96.6556 108.988 96.3476 109.372 95.9316 109.652C95.5156 109.932 94.9836 110.072 94.3356 110.072C94.0156 110.072 93.7276 110.04 93.4716 109.976C93.2156 109.904 92.9916 109.804 92.7996 109.676C92.6076 109.54 92.4396 109.384 92.2956 109.208V112.28H91.2756ZM94.2516 109.172C94.7156 109.172 95.0836 109.068 95.3556 108.86C95.6276 108.644 95.8236 108.36 95.9436 108.008C96.0716 107.656 96.1356 107.268 96.1356 106.844C96.1356 106.412 96.0716 106.02 95.9436 105.668C95.8236 105.316 95.6236 105.036 95.3436 104.828C95.0636 104.62 94.6916 104.516 94.2276 104.516C93.8116 104.516 93.4556 104.624 93.1596 104.84C92.8716 105.048 92.6516 105.332 92.4996 105.692C92.3476 106.044 92.2716 106.432 92.2716 106.856C92.2716 107.296 92.3436 107.692 92.4876 108.044C92.6316 108.396 92.8516 108.672 93.1476 108.872C93.4436 109.072 93.8116 109.172 94.2516 109.172Z" fill="#909090"/>
<path d="M100.851 110C100.371 110 99.9834 109.928 99.6874 109.784C99.3994 109.64 99.1874 109.416 99.0514 109.112C98.9234 108.808 98.8594 108.424 98.8594 107.96V104.576H97.8274V103.676H98.8594V101.792H99.8794V103.676H101.571V104.576H99.8794V107.852C99.8794 108.284 99.9554 108.604 100.107 108.812C100.267 109.012 100.587 109.112 101.067 109.112H101.535V110H100.851Z" fill="#909090"/>
<path d="M102.725 110V103.676H103.745V110H102.725ZM103.229 102.74C103.021 102.74 102.853 102.676 102.725 102.548C102.605 102.42 102.545 102.256 102.545 102.056C102.545 101.856 102.609 101.696 102.737 101.576C102.865 101.448 103.029 101.384 103.229 101.384C103.413 101.384 103.573 101.448 103.709 101.576C103.853 101.704 103.925 101.864 103.925 102.056C103.925 102.256 103.857 102.42 103.721 102.548C103.585 102.676 103.421 102.74 103.229 102.74Z" fill="#909090"/>
<path d="M108.11 110.072C107.446 110.072 106.89 109.936 106.442 109.664C105.994 109.384 105.658 109 105.434 108.512C105.218 108.024 105.11 107.468 105.11 106.844C105.11 106.212 105.222 105.656 105.446 105.176C105.67 104.688 106.006 104.304 106.454 104.024C106.902 103.744 107.462 103.604 108.134 103.604C108.798 103.604 109.35 103.744 109.79 104.024C110.238 104.304 110.57 104.688 110.786 105.176C111.01 105.656 111.122 106.212 111.122 106.844C111.122 107.468 111.01 108.024 110.786 108.512C110.562 109 110.226 109.384 109.778 109.664C109.338 109.936 108.782 110.072 108.11 110.072ZM108.11 109.172C108.574 109.172 108.95 109.068 109.238 108.86C109.534 108.652 109.75 108.372 109.886 108.02C110.03 107.668 110.102 107.276 110.102 106.844C110.102 106.412 110.03 106.02 109.886 105.668C109.75 105.316 109.534 105.036 109.238 104.828C108.95 104.62 108.574 104.516 108.11 104.516C107.654 104.516 107.278 104.62 106.982 104.828C106.694 105.036 106.478 105.316 106.334 105.668C106.198 106.02 106.13 106.412 106.13 106.844C106.13 107.276 106.198 107.668 106.334 108.02C106.478 108.372 106.694 108.652 106.982 108.86C107.278 109.068 107.654 109.172 108.11 109.172Z" fill="#909090"/>
<path d="M112.487 110V103.676H113.471L113.519 104.636C113.663 104.404 113.847 104.212 114.071 104.06C114.295 103.908 114.539 103.796 114.803 103.724C115.075 103.644 115.339 103.604 115.595 103.604C116.211 103.604 116.691 103.732 117.035 103.988C117.387 104.244 117.635 104.592 117.779 105.032C117.931 105.464 118.007 105.956 118.007 106.508V110H116.987V106.784C116.987 106.488 116.967 106.204 116.927 105.932C116.895 105.66 116.823 105.416 116.711 105.2C116.607 104.984 116.455 104.816 116.255 104.696C116.055 104.568 115.787 104.504 115.451 104.504C115.035 104.504 114.679 104.62 114.383 104.852C114.095 105.084 113.875 105.396 113.723 105.788C113.579 106.18 113.507 106.62 113.507 107.108V110H112.487Z" fill="#909090"/>
<rect x="55" y="120" width="162" height="2" rx="1" fill="#4D4D4D"/>
<rect x="55" y="126" width="145" height="2" rx="1" fill="#4D4D4D"/>
<rect x="55" y="132" width="154" height="2" rx="1" fill="#4D4D4D"/>
<g clip-path="url(#clip2_1815_39010)">
<path fill-rule="evenodd" clip-rule="evenodd" d="M29 102.5C24.8579 102.5 21.5 105.858 21.5 110C21.5 114.142 24.8579 117.5 29 117.5C33.1421 117.5 36.5 114.142 36.5 110C36.5 105.858 33.1421 102.5 29 102.5ZM20 110C20 105.029 24.0294 101 29 101C33.9706 101 38 105.029 38 110C38 114.971 33.9706 119 29 119C24.0294 119 20 114.971 20 110Z" fill="#909090"/>
<path fill-rule="evenodd" clip-rule="evenodd" d="M28.5472 109.263L28.0303 109.78C27.7374 110.073 27.2626 110.073 26.9697 109.78C26.6768 109.487 26.6768 109.013 26.9697 108.72L27.4947 108.195C27.8171 107.872 28.2511 107.75 28.625 107.75C29.1566 107.75 29.6294 107.989 29.9253 108.396C30.2175 108.798 30.3015 109.311 30.1776 109.807L30.1768 109.81L30.1768 109.81L29.2018 113.635C29.2 113.642 29.1981 113.649 29.1961 113.656C29.1967 113.654 29.1937 113.662 29.1985 113.682C29.2035 113.705 29.2158 113.734 29.2375 113.764C29.2593 113.793 29.2825 113.812 29.2984 113.821C29.3022 113.823 29.3051 113.824 29.307 113.825C29.3348 113.824 29.3575 113.819 29.3718 113.814C29.3743 113.813 29.3763 113.812 29.3778 113.812L29.9697 113.22C30.2626 112.927 30.7374 112.927 31.0303 113.22C31.3232 113.513 31.3232 113.987 31.0303 114.28L30.4303 114.88C30.1079 115.203 29.6739 115.325 29.3 115.325C28.7477 115.325 28.2981 115.016 28.0312 114.655C27.7649 114.295 27.6049 113.782 27.7505 113.256L28.7227 109.442C28.7483 109.338 28.72 109.289 28.7122 109.279C28.7071 109.272 28.7012 109.266 28.6927 109.262C28.6845 109.258 28.6641 109.25 28.625 109.25C28.5939 109.25 28.5687 109.255 28.5532 109.261C28.5507 109.262 28.5487 109.263 28.5472 109.263ZM29.3697 113.82C29.3697 113.82 29.3698 113.82 29.3698 113.82L29.3697 113.82Z" fill="#909090"/>
<path d="M29.375 107C29.9963 107 30.5 106.496 30.5 105.875C30.5 105.254 29.9963 104.75 29.375 104.75C28.7537 104.75 28.25 105.254 28.25 105.875C28.25 106.496 28.7537 107 29.375 107Z" fill="#909090"/>
</g>
<path d="M59.1036 160.096C58.5676 160.096 58.0596 160.024 57.5796 159.88C57.1076 159.728 56.7036 159.484 56.3676 159.148C56.0316 158.804 55.8036 158.348 55.6836 157.78H56.7756C56.8876 158.14 57.0676 158.42 57.3156 158.62C57.5716 158.82 57.8636 158.96 58.1916 159.04C58.5196 159.112 58.8476 159.148 59.1756 159.148C59.5036 159.148 59.8076 159.104 60.0876 159.016C60.3756 158.92 60.6076 158.768 60.7836 158.56C60.9676 158.352 61.0596 158.084 61.0596 157.756C61.0596 157.5 61.0116 157.292 60.9156 157.132C60.8276 156.972 60.6996 156.844 60.5316 156.748C60.3716 156.644 60.1796 156.56 59.9556 156.496C59.6596 156.4 59.3436 156.32 59.0076 156.256C58.6716 156.192 58.3396 156.116 58.0116 156.028C57.6916 155.94 57.3916 155.828 57.1116 155.692C56.9596 155.612 56.8116 155.516 56.6676 155.404C56.5316 155.284 56.4116 155.148 56.3076 154.996C56.2116 154.836 56.1316 154.656 56.0676 154.456C56.0116 154.256 55.9836 154.036 55.9836 153.796C55.9836 153.436 56.0396 153.124 56.1516 152.86C56.2636 152.596 56.4156 152.372 56.6076 152.188C56.7996 152.004 57.0236 151.856 57.2796 151.744C57.5356 151.632 57.8076 151.552 58.0956 151.504C58.3916 151.448 58.6876 151.42 58.9836 151.42C59.4716 151.42 59.9276 151.496 60.3516 151.648C60.7836 151.792 61.1396 152.028 61.4196 152.356C61.7076 152.684 61.8636 153.128 61.8876 153.688H60.8676C60.8276 153.352 60.7156 153.088 60.5316 152.896C60.3476 152.704 60.1196 152.568 59.8476 152.488C59.5756 152.408 59.2876 152.368 58.9836 152.368C58.7596 152.368 58.5316 152.388 58.2996 152.428C58.0756 152.468 57.8676 152.54 57.6756 152.644C57.4916 152.74 57.3436 152.876 57.2316 153.052C57.1196 153.22 57.0636 153.436 57.0636 153.7C57.0636 153.908 57.0996 154.092 57.1716 154.252C57.2516 154.412 57.3556 154.548 57.4836 154.66C57.6196 154.764 57.7676 154.852 57.9276 154.924C58.3116 155.084 58.7356 155.204 59.1996 155.284C59.6716 155.356 60.1116 155.464 60.5196 155.608C60.7596 155.688 60.9796 155.788 61.1796 155.908C61.3796 156.028 61.5476 156.168 61.6836 156.328C61.8276 156.488 61.9356 156.672 62.0076 156.88C62.0876 157.08 62.1276 157.308 62.1276 157.564C62.1276 158.028 62.0476 158.424 61.8876 158.752C61.7276 159.072 61.5076 159.332 61.2276 159.532C60.9476 159.732 60.6236 159.876 60.2556 159.964C59.8956 160.052 59.5116 160.096 59.1036 160.096Z" fill="#909090"/>
<path d="M66.3317 160.072C65.6677 160.072 65.1157 159.936 64.6757 159.664C64.2437 159.384 63.9197 159 63.7037 158.512C63.4957 158.024 63.3917 157.472 63.3917 156.856C63.3917 156.256 63.4997 155.712 63.7157 155.224C63.9397 154.728 64.2757 154.336 64.7237 154.048C65.1797 153.752 65.7557 153.604 66.4517 153.604C66.8837 153.604 67.2677 153.676 67.6037 153.82C67.9477 153.964 68.2317 154.176 68.4557 154.456C68.6797 154.728 68.8357 155.072 68.9237 155.488H67.8797C67.7597 155.136 67.5677 154.888 67.3037 154.744C67.0477 154.592 66.7437 154.516 66.3917 154.516C65.9117 154.516 65.5277 154.628 65.2397 154.852C64.9517 155.076 64.7397 155.368 64.6037 155.728C64.4757 156.08 64.4117 156.456 64.4117 156.856C64.4117 157.272 64.4797 157.656 64.6157 158.008C64.7517 158.36 64.9637 158.644 65.2517 158.86C65.5397 159.068 65.9117 159.172 66.3677 159.172C66.7037 159.172 67.0197 159.1 67.3157 158.956C67.6197 158.812 67.8197 158.556 67.9157 158.188H68.9717C68.8917 158.62 68.7197 158.976 68.4557 159.256C68.1997 159.536 67.8837 159.744 67.5077 159.88C67.1397 160.008 66.7477 160.072 66.3317 160.072Z" fill="#909090"/>
<path d="M70.2645 160V153.676H71.2485L71.2965 154.66C71.4565 154.412 71.6405 154.212 71.8485 154.06C72.0645 153.908 72.3005 153.796 72.5565 153.724C72.8205 153.644 73.1045 153.604 73.4085 153.604C73.4645 153.604 73.5165 153.604 73.5645 153.604C73.6205 153.604 73.6765 153.604 73.7325 153.604V154.564H73.3605C72.8645 154.564 72.4605 154.672 72.1485 154.888C71.8445 155.096 71.6245 155.38 71.4885 155.74C71.3525 156.092 71.2845 156.484 71.2845 156.916V160H70.2645Z" fill="#909090"/>
<path d="M77.3599 160.072C76.6879 160.072 76.1319 159.936 75.6919 159.664C75.2519 159.384 74.9239 159 74.7079 158.512C74.4919 158.024 74.3839 157.468 74.3839 156.844C74.3839 156.212 74.4959 155.656 74.7199 155.176C74.9519 154.688 75.2879 154.304 75.7279 154.024C76.1679 153.744 76.7079 153.604 77.3479 153.604C77.8439 153.604 78.2679 153.7 78.6199 153.892C78.9799 154.076 79.2759 154.324 79.5079 154.636C79.7399 154.948 79.9079 155.292 80.0119 155.668C80.1159 156.036 80.1599 156.408 80.1439 156.784C80.1359 156.856 80.1279 156.928 80.1199 157C80.1199 157.072 80.1159 157.144 80.1079 157.216H75.4159C75.4479 157.584 75.5399 157.916 75.6919 158.212C75.8439 158.508 76.0599 158.744 76.3399 158.92C76.6199 159.088 76.9679 159.172 77.3839 159.172C77.5919 159.172 77.7999 159.148 78.0079 159.1C78.2239 159.044 78.4159 158.952 78.5839 158.824C78.7599 158.696 78.8839 158.524 78.9559 158.308H79.9999C79.9039 158.716 79.7239 159.052 79.4599 159.316C79.1959 159.572 78.8799 159.764 78.5119 159.892C78.1439 160.012 77.7599 160.072 77.3599 160.072ZM75.4399 156.328H79.0999C79.0919 155.968 79.0119 155.652 78.8599 155.38C78.7079 155.108 78.4999 154.896 78.2359 154.744C77.9799 154.592 77.6719 154.516 77.3119 154.516C76.9199 154.516 76.5879 154.6 76.3159 154.768C76.0519 154.936 75.8479 155.156 75.7039 155.428C75.5599 155.7 75.4719 156 75.4399 156.328Z" fill="#909090"/>
<path d="M84.2388 160.072C83.5668 160.072 83.0108 159.936 82.5708 159.664C82.1308 159.384 81.8028 159 81.5868 158.512C81.3708 158.024 81.2628 157.468 81.2628 156.844C81.2628 156.212 81.3748 155.656 81.5988 155.176C81.8308 154.688 82.1668 154.304 82.6068 154.024C83.0468 153.744 83.5868 153.604 84.2268 153.604C84.7228 153.604 85.1468 153.7 85.4988 153.892C85.8588 154.076 86.1548 154.324 86.3868 154.636C86.6188 154.948 86.7868 155.292 86.8908 155.668C86.9948 156.036 87.0388 156.408 87.0228 156.784C87.0148 156.856 87.0068 156.928 86.9988 157C86.9988 157.072 86.9948 157.144 86.9868 157.216H82.2948C82.3268 157.584 82.4188 157.916 82.5708 158.212C82.7228 158.508 82.9388 158.744 83.2188 158.92C83.4988 159.088 83.8468 159.172 84.2628 159.172C84.4708 159.172 84.6788 159.148 84.8868 159.1C85.1028 159.044 85.2948 158.952 85.4628 158.824C85.6388 158.696 85.7628 158.524 85.8348 158.308H86.8788C86.7828 158.716 86.6028 159.052 86.3388 159.316C86.0748 159.572 85.7588 159.764 85.3908 159.892C85.0228 160.012 84.6388 160.072 84.2388 160.072ZM82.3188 156.328H85.9788C85.9708 155.968 85.8908 155.652 85.7388 155.38C85.5868 155.108 85.3788 154.896 85.1148 154.744C84.8588 154.592 84.5508 154.516 84.1908 154.516C83.7988 154.516 83.4668 154.6 83.1948 154.768C82.9308 154.936 82.7268 155.156 82.5828 155.428C82.4388 155.7 82.3508 156 82.3188 156.328Z" fill="#909090"/>
<path d="M88.3817 160V153.676H89.3657L89.4137 154.636C89.5577 154.404 89.7417 154.212 89.9657 154.06C90.1897 153.908 90.4337 153.796 90.6977 153.724C90.9697 153.644 91.2337 153.604 91.4897 153.604C92.1057 153.604 92.5857 153.732 92.9297 153.988C93.2817 154.244 93.5297 154.592 93.6737 155.032C93.8257 155.464 93.9017 155.956 93.9017 156.508V160H92.8817V156.784C92.8817 156.488 92.8617 156.204 92.8217 155.932C92.7897 155.66 92.7177 155.416 92.6057 155.2C92.5017 154.984 92.3497 154.816 92.1497 154.696C91.9497 154.568 91.6817 154.504 91.3457 154.504C90.9297 154.504 90.5737 154.62 90.2777 154.852C89.9897 155.084 89.7697 155.396 89.6177 155.788C89.4737 156.18 89.4017 156.62 89.4017 157.108V160H88.3817Z" fill="#909090"/>
<path d="M95.4716 160V153.676H96.4916V160H95.4716ZM95.9756 152.74C95.7676 152.74 95.5996 152.676 95.4716 152.548C95.3516 152.42 95.2916 152.256 95.2916 152.056C95.2916 151.856 95.3556 151.696 95.4836 151.576C95.6116 151.448 95.7756 151.384 95.9756 151.384C96.1596 151.384 96.3196 151.448 96.4556 151.576C96.5996 151.704 96.6716 151.864 96.6716 152.056C96.6716 152.256 96.6036 152.42 96.4676 152.548C96.3316 152.676 96.1676 152.74 95.9756 152.74Z" fill="#909090"/>
<path d="M98.0966 160V153.676H99.0806L99.1286 154.636C99.2726 154.404 99.4566 154.212 99.6806 154.06C99.9046 153.908 100.149 153.796 100.413 153.724C100.685 153.644 100.949 153.604 101.205 153.604C101.821 153.604 102.301 153.732 102.645 153.988C102.997 154.244 103.245 154.592 103.389 155.032C103.541 155.464 103.617 155.956 103.617 156.508V160H102.597V156.784C102.597 156.488 102.577 156.204 102.537 155.932C102.505 155.66 102.433 155.416 102.321 155.2C102.217 154.984 102.065 154.816 101.865 154.696C101.665 154.568 101.397 154.504 101.061 154.504C100.645 154.504 100.289 154.62 99.9926 154.852C99.7046 155.084 99.4846 155.396 99.3326 155.788C99.1886 156.18 99.1166 156.62 99.1166 157.108V160H98.0966Z" fill="#909090"/>
<path d="M107.934 162.832C107.502 162.832 107.102 162.764 106.734 162.628C106.366 162.5 106.054 162.296 105.798 162.016C105.542 161.736 105.37 161.38 105.282 160.948H106.338C106.402 161.188 106.522 161.38 106.698 161.524C106.874 161.668 107.078 161.768 107.31 161.824C107.542 161.888 107.77 161.92 107.994 161.92C108.426 161.92 108.774 161.832 109.038 161.656C109.31 161.488 109.506 161.252 109.626 160.948C109.746 160.652 109.806 160.312 109.806 159.928V159.052C109.67 159.292 109.49 159.488 109.266 159.64C109.042 159.792 108.798 159.904 108.534 159.976C108.27 160.04 107.998 160.072 107.718 160.072C107.078 160.072 106.554 159.932 106.146 159.652C105.738 159.364 105.434 158.98 105.234 158.5C105.042 158.012 104.946 157.464 104.946 156.856C104.946 156.248 105.046 155.7 105.246 155.212C105.446 154.716 105.754 154.324 106.17 154.036C106.586 153.748 107.118 153.604 107.766 153.604C108.134 153.604 108.506 153.672 108.882 153.808C109.258 153.944 109.566 154.164 109.806 154.468L109.854 153.676H110.826V159.952C110.826 160.544 110.718 161.056 110.502 161.488C110.294 161.92 109.974 162.252 109.542 162.484C109.118 162.716 108.582 162.832 107.934 162.832ZM107.862 159.172C108.286 159.172 108.642 159.064 108.93 158.848C109.218 158.632 109.438 158.344 109.59 157.984C109.742 157.624 109.818 157.232 109.818 156.808C109.818 156.368 109.742 155.976 109.59 155.632C109.446 155.288 109.23 155.016 108.942 154.816C108.654 154.616 108.29 154.516 107.85 154.516C107.394 154.516 107.026 154.62 106.746 154.828C106.474 155.036 106.274 155.316 106.146 155.668C106.026 156.02 105.966 156.412 105.966 156.844C105.966 157.292 106.03 157.692 106.158 158.044C106.286 158.396 106.49 158.672 106.77 158.872C107.05 159.072 107.414 159.172 107.862 159.172Z" fill="#909090"/>
<path d="M122.419 161.512L121.147 159.772C120.899 159.876 120.631 159.956 120.343 160.012C120.063 160.068 119.759 160.096 119.431 160.096C118.551 160.096 117.815 159.908 117.223 159.532C116.631 159.156 116.183 158.64 115.879 157.984C115.583 157.328 115.435 156.588 115.435 155.764C115.435 154.932 115.583 154.188 115.879 153.532C116.183 152.876 116.631 152.36 117.223 151.984C117.815 151.608 118.551 151.42 119.431 151.42C120.311 151.42 121.043 151.608 121.627 151.984C122.219 152.36 122.663 152.876 122.959 153.532C123.263 154.188 123.415 154.932 123.415 155.764C123.415 156.492 123.295 157.152 123.055 157.744C122.823 158.328 122.479 158.816 122.023 159.208L123.235 160.888L122.419 161.512ZM119.431 159.148C120.103 159.148 120.655 158.996 121.087 158.692C121.519 158.38 121.835 157.968 122.035 157.456C122.243 156.944 122.347 156.38 122.347 155.764C122.347 155.14 122.243 154.572 122.035 154.06C121.827 153.548 121.507 153.14 121.075 152.836C120.643 152.524 120.095 152.368 119.431 152.368C118.767 152.368 118.215 152.524 117.775 152.836C117.343 153.148 117.019 153.56 116.803 154.072C116.595 154.584 116.491 155.148 116.491 155.764C116.491 156.372 116.595 156.932 116.803 157.444C117.011 157.956 117.331 158.368 117.763 158.68C118.203 158.992 118.759 159.148 119.431 159.148Z" fill="#909090"/>
<path d="M127.432 160.072C126.56 160.072 125.896 159.84 125.44 159.376C124.992 158.912 124.768 158.2 124.768 157.24V153.676H125.788V157.192C125.788 157.608 125.848 157.964 125.968 158.26C126.088 158.556 126.268 158.784 126.508 158.944C126.756 159.096 127.064 159.172 127.432 159.172C127.816 159.172 128.132 159.096 128.38 158.944C128.628 158.784 128.808 158.556 128.92 158.26C129.04 157.964 129.1 157.608 129.1 157.192V153.676H130.12V157.24C130.12 158.2 129.888 158.912 129.424 159.376C128.968 159.84 128.304 160.072 127.432 160.072Z" fill="#909090"/>
<path d="M134.442 160.072C133.77 160.072 133.214 159.936 132.774 159.664C132.334 159.384 132.006 159 131.79 158.512C131.574 158.024 131.466 157.468 131.466 156.844C131.466 156.212 131.578 155.656 131.802 155.176C132.034 154.688 132.37 154.304 132.81 154.024C133.25 153.744 133.79 153.604 134.43 153.604C134.926 153.604 135.35 153.7 135.702 153.892C136.062 154.076 136.358 154.324 136.59 154.636C136.822 154.948 136.99 155.292 137.094 155.668C137.198 156.036 137.242 156.408 137.226 156.784C137.218 156.856 137.21 156.928 137.202 157C137.202 157.072 137.198 157.144 137.19 157.216H132.498C132.53 157.584 132.622 157.916 132.774 158.212C132.926 158.508 133.142 158.744 133.422 158.92C133.702 159.088 134.05 159.172 134.466 159.172C134.674 159.172 134.882 159.148 135.09 159.1C135.306 159.044 135.498 158.952 135.666 158.824C135.842 158.696 135.966 158.524 136.038 158.308H137.082C136.986 158.716 136.806 159.052 136.542 159.316C136.278 159.572 135.962 159.764 135.594 159.892C135.226 160.012 134.842 160.072 134.442 160.072ZM132.522 156.328H136.182C136.174 155.968 136.094 155.652 135.942 155.38C135.79 155.108 135.582 154.896 135.318 154.744C135.062 154.592 134.754 154.516 134.394 154.516C134.002 154.516 133.67 154.6 133.398 154.768C133.134 154.936 132.93 155.156 132.786 155.428C132.642 155.7 132.554 156 132.522 156.328Z" fill="#909090"/>
<path d="M140.889 160.072C140.601 160.072 140.309 160.044 140.013 159.988C139.725 159.932 139.453 159.836 139.197 159.7C138.949 159.564 138.741 159.38 138.573 159.148C138.405 158.916 138.297 158.628 138.249 158.284H139.281C139.361 158.5 139.489 158.676 139.665 158.812C139.849 158.94 140.053 159.032 140.277 159.088C140.509 159.144 140.729 159.172 140.937 159.172C141.065 159.172 141.213 159.164 141.381 159.148C141.549 159.132 141.709 159.096 141.861 159.04C142.021 158.976 142.149 158.884 142.245 158.764C142.349 158.644 142.401 158.476 142.401 158.26C142.401 158.1 142.365 157.968 142.293 157.864C142.221 157.76 142.121 157.676 141.993 157.612C141.865 157.54 141.709 157.488 141.525 157.456C141.149 157.376 140.745 157.3 140.313 157.228C139.889 157.156 139.513 157.02 139.185 156.82C139.073 156.748 138.969 156.668 138.873 156.58C138.785 156.484 138.709 156.38 138.645 156.268C138.581 156.148 138.529 156.02 138.489 155.884C138.457 155.74 138.441 155.584 138.441 155.416C138.441 155.104 138.501 154.836 138.621 154.612C138.749 154.38 138.925 154.192 139.149 154.048C139.373 153.896 139.629 153.784 139.917 153.712C140.213 153.64 140.529 153.604 140.865 153.604C141.281 153.604 141.653 153.672 141.981 153.808C142.317 153.936 142.593 154.128 142.809 154.384C143.025 154.632 143.153 154.94 143.193 155.308H142.245C142.189 155.076 142.037 154.888 141.789 154.744C141.541 154.592 141.225 154.516 140.841 154.516C140.713 154.516 140.569 154.528 140.409 154.552C140.249 154.568 140.097 154.608 139.953 154.672C139.809 154.728 139.689 154.816 139.593 154.936C139.497 155.048 139.449 155.2 139.449 155.392C139.449 155.568 139.493 155.716 139.581 155.836C139.677 155.956 139.809 156.052 139.977 156.124C140.145 156.196 140.337 156.256 140.553 156.304C140.833 156.36 141.141 156.42 141.477 156.484C141.813 156.54 142.077 156.6 142.269 156.664C142.525 156.744 142.737 156.856 142.905 157C143.081 157.144 143.209 157.316 143.289 157.516C143.377 157.716 143.421 157.948 143.421 158.212C143.421 158.588 143.345 158.896 143.193 159.136C143.049 159.376 142.853 159.564 142.605 159.7C142.357 159.836 142.081 159.932 141.777 159.988C141.481 160.044 141.185 160.072 140.889 160.072Z" fill="#909090"/>
<path d="M147.141 160C146.661 160 146.273 159.928 145.977 159.784C145.689 159.64 145.477 159.416 145.341 159.112C145.213 158.808 145.149 158.424 145.149 157.96V154.576H144.117V153.676H145.149V151.792H146.169V153.676H147.861V154.576H146.169V157.852C146.169 158.284 146.245 158.604 146.397 158.812C146.557 159.012 146.877 159.112 147.357 159.112H147.825V160H147.141Z" fill="#909090"/>
<path d="M149.015 160V153.676H150.035V160H149.015ZM149.519 152.74C149.311 152.74 149.143 152.676 149.015 152.548C148.895 152.42 148.835 152.256 148.835 152.056C148.835 151.856 148.899 151.696 149.027 151.576C149.155 151.448 149.319 151.384 149.519 151.384C149.703 151.384 149.863 151.448 149.999 151.576C150.143 151.704 150.215 151.864 150.215 152.056C150.215 152.256 150.147 152.42 150.011 152.548C149.875 152.676 149.711 152.74 149.519 152.74Z" fill="#909090"/>
<path d="M154.4 160.072C153.736 160.072 153.18 159.936 152.732 159.664C152.284 159.384 151.948 159 151.724 158.512C151.508 158.024 151.4 157.468 151.4 156.844C151.4 156.212 151.512 155.656 151.736 155.176C151.96 154.688 152.296 154.304 152.744 154.024C153.192 153.744 153.752 153.604 154.424 153.604C155.088 153.604 155.64 153.744 156.08 154.024C156.528 154.304 156.86 154.688 157.076 155.176C157.3 155.656 157.412 156.212 157.412 156.844C157.412 157.468 157.3 158.024 157.076 158.512C156.852 159 156.516 159.384 156.068 159.664C155.628 159.936 155.072 160.072 154.4 160.072ZM154.4 159.172C154.864 159.172 155.24 159.068 155.528 158.86C155.824 158.652 156.04 158.372 156.176 158.02C156.32 157.668 156.392 157.276 156.392 156.844C156.392 156.412 156.32 156.02 156.176 155.668C156.04 155.316 155.824 155.036 155.528 154.828C155.24 154.62 154.864 154.516 154.4 154.516C153.944 154.516 153.568 154.62 153.272 154.828C152.984 155.036 152.768 155.316 152.624 155.668C152.488 156.02 152.42 156.412 152.42 156.844C152.42 157.276 152.488 157.668 152.624 158.02C152.768 158.372 152.984 158.652 153.272 158.86C153.568 159.068 153.944 159.172 154.4 159.172Z" fill="#909090"/>
<path d="M158.776 160V153.676H159.76L159.808 154.636C159.952 154.404 160.136 154.212 160.36 154.06C160.584 153.908 160.828 153.796 161.092 153.724C161.364 153.644 161.628 153.604 161.884 153.604C162.5 153.604 162.98 153.732 163.324 153.988C163.676 154.244 163.924 154.592 164.068 155.032C164.22 155.464 164.296 155.956 164.296 156.508V160H163.276V156.784C163.276 156.488 163.256 156.204 163.216 155.932C163.184 155.66 163.112 155.416 163 155.2C162.896 154.984 162.744 154.816 162.544 154.696C162.344 154.568 162.076 154.504 161.74 154.504C161.324 154.504 160.968 154.62 160.672 154.852C160.384 155.084 160.164 155.396 160.012 155.788C159.868 156.18 159.796 156.62 159.796 157.108V160H158.776Z" fill="#909090"/>
<path d="M168.17 160.072C167.882 160.072 167.59 160.044 167.294 159.988C167.006 159.932 166.734 159.836 166.478 159.7C166.23 159.564 166.022 159.38 165.854 159.148C165.686 158.916 165.578 158.628 165.53 158.284H166.562C166.642 158.5 166.77 158.676 166.946 158.812C167.13 158.94 167.334 159.032 167.558 159.088C167.79 159.144 168.01 159.172 168.218 159.172C168.346 159.172 168.494 159.164 168.662 159.148C168.83 159.132 168.99 159.096 169.142 159.04C169.302 158.976 169.43 158.884 169.526 158.764C169.63 158.644 169.682 158.476 169.682 158.26C169.682 158.1 169.646 157.968 169.574 157.864C169.502 157.76 169.402 157.676 169.274 157.612C169.146 157.54 168.99 157.488 168.806 157.456C168.43 157.376 168.026 157.3 167.594 157.228C167.17 157.156 166.794 157.02 166.466 156.82C166.354 156.748 166.25 156.668 166.154 156.58C166.066 156.484 165.99 156.38 165.926 156.268C165.862 156.148 165.81 156.02 165.77 155.884C165.738 155.74 165.722 155.584 165.722 155.416C165.722 155.104 165.782 154.836 165.902 154.612C166.03 154.38 166.206 154.192 166.43 154.048C166.654 153.896 166.91 153.784 167.198 153.712C167.494 153.64 167.81 153.604 168.146 153.604C168.562 153.604 168.934 153.672 169.262 153.808C169.598 153.936 169.874 154.128 170.09 154.384C170.306 154.632 170.434 154.94 170.474 155.308H169.526C169.47 155.076 169.318 154.888 169.07 154.744C168.822 154.592 168.506 154.516 168.122 154.516C167.994 154.516 167.85 154.528 167.69 154.552C167.53 154.568 167.378 154.608 167.234 154.672C167.09 154.728 166.97 154.816 166.874 154.936C166.778 155.048 166.73 155.2 166.73 155.392C166.73 155.568 166.774 155.716 166.862 155.836C166.958 155.956 167.09 156.052 167.258 156.124C167.426 156.196 167.618 156.256 167.834 156.304C168.114 156.36 168.422 156.42 168.758 156.484C169.094 156.54 169.358 156.6 169.55 156.664C169.806 156.744 170.018 156.856 170.186 157C170.362 157.144 170.49 157.316 170.57 157.516C170.658 157.716 170.702 157.948 170.702 158.212C170.702 158.588 170.626 158.896 170.474 159.136C170.33 159.376 170.134 159.564 169.886 159.7C169.638 159.836 169.362 159.932 169.058 159.988C168.762 160.044 168.466 160.072 168.17 160.072Z" fill="#909090"/>
<rect x="55.5" y="170.5" width="174" height="30" rx="3.5" fill="#373737" vector-effect="non-scaling-stroke" stroke="#3D3D3D"/>
<rect x="63" y="179" width="102" height="8" rx="4" fill="#4D4D4D"/>
<rect x="63" y="191" width="159" height="2" rx="1" fill="#4D4D4D"/>
<rect x="55.5" y="205.5" width="174" height="30" rx="3.5" fill="#373737" vector-effect="non-scaling-stroke" stroke="#3D3D3D"/>
<rect x="63" y="214" width="63" height="8" rx="4" fill="#4D4D4D"/>
<rect x="63" y="226" width="141" height="2" rx="1" fill="#4D4D4D"/>
<rect x="55.5" y="240.5" width="174" height="30" rx="3.5" fill="#373737" vector-effect="non-scaling-stroke" stroke="#3D3D3D"/>
<rect x="63" y="249" width="83" height="8" rx="4" fill="#4D4D4D"/>
<g clip-path="url(#clip3_1815_39010)">
<path fill-rule="evenodd" clip-rule="evenodd" d="M29 151.5C24.8392 151.5 21.5 154.839 21.5 159C21.5 163.161 24.8392 166.5 29 166.5C33.1608 166.5 36.5 163.161 36.5 159C36.5 154.839 33.1608 151.5 29 151.5ZM20 159C20 154.011 24.0108 150 29 150C33.9892 150 38 154.011 38 159C38 163.989 33.9892 168 29 168C24.0108 168 20 163.989 20 159ZM25.775 157.35C25.775 155.519 27.2373 154.027 29.1144 154.126L29.119 154.126L29.119 154.126C30.7736 154.224 32.1264 155.576 32.2237 157.231C32.2246 157.246 32.225 157.26 32.225 157.275C32.225 158.681 31.462 159.87 30.1863 160.368C29.9631 160.47 29.75 160.779 29.75 161.1V161.25C29.75 161.664 29.4142 162 29 162C28.5858 162 28.25 161.664 28.25 161.25V161.1C28.25 160.226 28.781 159.339 29.6046 158.986C29.6132 158.982 29.622 158.978 29.6308 158.975C30.2889 158.722 30.7172 158.124 30.7249 157.298C30.6617 156.412 29.9205 155.677 29.0332 155.624C28.0614 155.574 27.275 156.332 27.275 157.35C27.275 157.764 26.9392 158.1 26.525 158.1C26.1108 158.1 25.775 157.764 25.775 157.35ZM29 162.375C29.4142 162.375 29.75 162.711 29.75 163.125V163.5C29.75 163.914 29.4142 164.25 29 164.25C28.5858 164.25 28.25 163.914 28.25 163.5V163.125C28.25 162.711 28.5858 162.375 29 162.375Z" fill="#909090"/>
</g>
<rect x="194.5" y="20.5" width="35" height="15" rx="3.5" fill="#4D4D4D" vector-effect="non-scaling-stroke" stroke="#585858"/>
<rect x="150.5" y="20.5" width="35" height="15" rx="7.5" fill="#373737" vector-effect="non-scaling-stroke" stroke="#3D3D3D"/>
<rect x="170.5" y="20.5" width="15" height="15" rx="7.5" fill="#4D4D4D" vector-effect="non-scaling-stroke" stroke="#585858"/>
</g>
<defs>
<clipPath id="clip0_1815_39010">
<rect width="250" height="250" fill="white"/>
</clipPath>
<clipPath id="clip1_1815_39010">
<rect width="18" height="18" fill="white" transform="translate(20 57)"/>
</clipPath>
<clipPath id="clip2_1815_39010">
<rect width="18" height="18" fill="white" transform="translate(20 101)"/>
</clipPath>
<clipPath id="clip3_1815_39010">
<rect width="18" height="18" fill="white" transform="translate(20 150)"/>
</clipPath>
</defs>
</svg>
