<svg width="250" height="250" viewBox="0 0 250 250" fill="none" xmlns="http://www.w3.org/2000/svg">
<rect width="250" height="250" fill="#2C2C2C"/>
<path d="M22.7769 28.1745V25.0984L19.875 19.9679H21.0474L23.2993 24.077L25.5279 19.9679H26.6771L23.7868 25.0868V28.1745H22.7769Z" fill="#909090"/>
<path d="M31.0384 28.2673C30.1872 28.2673 29.4752 28.0855 28.9026 27.7218C28.3299 27.3581 27.8966 26.8589 27.6025 26.2244C27.3162 25.5898 27.173 24.874 27.173 24.077C27.173 23.2722 27.3162 22.5525 27.6025 21.9179C27.8966 21.2834 28.3299 20.7843 28.9026 20.4206C29.4752 20.0569 30.1872 19.875 31.0384 19.875C31.8896 19.875 32.5977 20.0569 33.1626 20.4206C33.7352 20.7843 34.1647 21.2834 34.451 21.9179C34.7451 22.5525 34.8921 23.2722 34.8921 24.077C34.8921 24.874 34.7451 25.5898 34.451 26.2244C34.1647 26.8589 33.7352 27.3581 33.1626 27.7218C32.5977 28.0855 31.8896 28.2673 31.0384 28.2673ZM31.0384 27.3503C31.6884 27.3503 32.2224 27.2033 32.6403 26.9092C33.0581 26.6074 33.3638 26.2089 33.5573 25.7137C33.7585 25.2184 33.8591 24.6728 33.8591 24.077C33.8591 23.6281 33.801 23.2064 33.6849 22.8117C33.5766 22.4093 33.4064 22.0572 33.1742 21.7554C32.9421 21.4536 32.648 21.2176 32.292 21.0474C31.9361 20.8771 31.5182 20.792 31.0384 20.792C30.3961 20.792 29.8622 20.9429 29.4365 21.2447C29.0187 21.5465 28.7053 21.945 28.4963 22.4403C28.2951 22.9356 28.1945 23.4811 28.1945 24.077C28.1945 24.6651 28.2951 25.2068 28.4963 25.702C28.6975 26.1973 29.0071 26.5958 29.4249 26.8976C29.8505 27.1994 30.3884 27.3503 31.0384 27.3503Z" fill="#909090"/>
<path d="M39.6599 28.2673C38.8938 28.2673 38.2708 28.1087 37.7911 27.7914C37.3113 27.4741 36.9592 27.0447 36.7348 26.503C36.5104 25.9535 36.3981 25.3306 36.3981 24.6341V19.9679H37.408V24.6225C37.408 25.1178 37.4777 25.5744 37.6169 25.9922C37.764 26.4024 38.0039 26.7313 38.3366 26.9789C38.6694 27.2265 39.1143 27.3503 39.6715 27.3503C40.2364 27.3503 40.6775 27.2265 40.9948 26.9789C41.3198 26.7313 41.5519 26.4024 41.6912 25.9922C41.8305 25.5744 41.9002 25.1178 41.9002 24.6225V19.9679H42.9216V24.6341C42.9216 25.3229 42.8094 25.9419 42.585 26.4914C42.3606 27.0408 42.0085 27.4741 41.5287 27.7914C41.0489 28.1087 40.426 28.2673 39.6599 28.2673Z" fill="#909090"/>
<path d="M44.8785 28.1745V19.9679H47.9546C48.4111 19.9679 48.8174 20.0143 49.1734 20.1072C49.5371 20.2 49.8466 20.347 50.102 20.5482C50.3574 20.7494 50.5508 21.0164 50.6824 21.3492C50.8217 21.6742 50.8913 22.0688 50.8913 22.5332C50.8913 22.9897 50.8062 23.3805 50.6359 23.7055C50.4657 24.0228 50.2413 24.282 49.9627 24.4832C49.6841 24.6844 49.3823 24.8315 49.0573 24.9243L50.7752 28.1745H49.6725L48.0358 25.0984H45.8884V28.1745H44.8785ZM45.8884 24.1814H47.6296C47.9314 24.1814 48.2138 24.1582 48.4769 24.1118C48.7478 24.0654 48.9838 23.9841 49.185 23.868C49.3939 23.7442 49.5564 23.574 49.6725 23.3573C49.7886 23.1329 49.8505 22.8466 49.8582 22.4983C49.866 22.1037 49.7924 21.7903 49.6377 21.5581C49.4829 21.3182 49.2546 21.148 48.9528 21.0474C48.651 20.939 48.2835 20.8849 47.8501 20.8849H45.8884V24.1814Z" fill="#909090"/>
<path d="M20.4902 39.7821V31.5639H22.5912V37.8437H26.5262V39.7821H20.4902Z" fill="#909090"/>
<path d="M31.2554 39.875C30.4197 39.875 29.6884 39.7009 29.0616 39.3527C28.4347 39.0044 27.9472 38.5169 27.599 37.8901C27.2585 37.2555 27.0883 36.5204 27.0883 35.6846C27.0883 34.8257 27.2662 34.0828 27.6222 33.456C27.9782 32.8214 28.4734 32.33 29.108 31.9818C29.7425 31.6336 30.4777 31.4594 31.3134 31.4594C32.1415 31.4594 32.8689 31.6297 33.4957 31.9702C34.1225 32.3107 34.6139 32.7943 34.9699 33.4211C35.3258 34.0402 35.5038 34.7754 35.5038 35.6266C35.5038 36.4623 35.3258 37.2014 34.9699 37.8437C34.6216 38.4782 34.1264 38.9773 33.4841 39.341C32.8495 39.697 32.1066 39.875 31.2554 39.875ZM31.3018 37.8901C31.7971 37.8901 32.1956 37.7779 32.4974 37.5535C32.7992 37.3213 33.0159 37.035 33.1475 36.6945C33.2867 36.354 33.3564 36.0174 33.3564 35.6846C33.3564 35.437 33.3177 35.1855 33.2403 34.9301C33.1707 34.667 33.0546 34.4233 32.8921 34.1989C32.7373 33.9744 32.5284 33.7926 32.2653 33.6533C32.0022 33.514 31.6771 33.4444 31.2902 33.4444C30.8027 33.4444 30.408 33.5566 30.1062 33.781C29.8044 33.9977 29.5839 34.2762 29.4446 34.6167C29.3053 34.9572 29.2357 35.3093 29.2357 35.673C29.2357 36.0367 29.3053 36.3888 29.4446 36.7293C29.5916 37.0698 29.8161 37.3484 30.1179 37.5651C30.4274 37.7818 30.8221 37.8901 31.3018 37.8901Z" fill="#909090"/>
<path d="M40.3778 39.875C39.5576 39.875 38.8418 39.7048 38.2304 39.3643C37.6268 39.016 37.1587 38.5246 36.8259 37.8901C36.4932 37.2555 36.3268 36.5049 36.3268 35.6382C36.3268 34.9882 36.4196 34.4078 36.6054 33.8971C36.7988 33.3786 37.0735 32.9375 37.4295 32.5738C37.7855 32.2101 38.2111 31.9354 38.7063 31.7496C39.2093 31.5562 39.7665 31.4594 40.3778 31.4594C41.0124 31.4594 41.5928 31.5678 42.119 31.7845C42.6529 31.9934 43.094 32.3223 43.4423 32.7711C43.7982 33.2122 44.0227 33.7771 44.1155 34.4658H42.0377C41.9913 34.2182 41.8985 34.0209 41.7592 33.8738C41.6276 33.7268 41.4574 33.6185 41.2484 33.5488C41.0472 33.4792 40.8151 33.4444 40.552 33.4444C40.165 33.4444 39.84 33.5101 39.5769 33.6417C39.3138 33.7732 39.101 33.9512 38.9385 34.1756C38.7837 34.3923 38.6715 34.6361 38.6019 34.9069C38.5322 35.17 38.4974 35.437 38.4974 35.7078C38.4974 36.0716 38.5593 36.4237 38.6831 36.7641C38.8147 37.0969 39.0236 37.3677 39.3099 37.5767C39.604 37.7856 39.9987 37.8901 40.4939 37.8901C40.7416 37.8901 40.9776 37.8591 41.202 37.7972C41.4264 37.7353 41.616 37.6386 41.7708 37.507C41.9255 37.3677 42.0223 37.1898 42.061 36.9731H40.1225V35.2087H44.2664V35.5105C44.2664 36.4314 44.1271 37.2168 43.8485 37.8669C43.57 38.5169 43.1443 39.016 42.5717 39.3643C41.9991 39.7048 41.2678 39.875 40.3778 39.875Z" fill="#909090"/>
<path d="M49.2563 39.875C48.4206 39.875 47.6893 39.7009 47.0625 39.3527C46.4357 39.0044 45.9482 38.5169 45.5999 37.8901C45.2594 37.2555 45.0892 36.5204 45.0892 35.6846C45.0892 34.8257 45.2672 34.0828 45.6231 33.456C45.9791 32.8214 46.4744 32.33 47.1089 31.9818C47.7435 31.6336 48.4786 31.4594 49.3144 31.4594C50.1424 31.4594 50.8698 31.6297 51.4966 31.9702C52.1234 32.3107 52.6148 32.7943 52.9708 33.4211C53.3268 34.0402 53.5048 34.7754 53.5048 35.6266C53.5048 36.4623 53.3268 37.2014 52.9708 37.8437C52.6226 38.4782 52.1273 38.9773 51.485 39.341C50.8505 39.697 50.1076 39.875 49.2563 39.875ZM49.3028 37.8901C49.798 37.8901 50.1966 37.7779 50.4984 37.5535C50.8002 37.3213 51.0168 37.035 51.1484 36.6945C51.2877 36.354 51.3573 36.0174 51.3573 35.6846C51.3573 35.437 51.3186 35.1855 51.2413 34.9301C51.1716 34.667 51.0555 34.4233 50.893 34.1989C50.7383 33.9744 50.5293 33.7926 50.2662 33.6533C50.0031 33.514 49.6781 33.4444 49.2912 33.4444C48.8036 33.4444 48.409 33.5566 48.1072 33.781C47.8054 33.9977 47.5848 34.2762 47.4456 34.6167C47.3063 34.9572 47.2366 35.3093 47.2366 35.673C47.2366 36.0367 47.3063 36.3888 47.4456 36.7293C47.5926 37.0698 47.817 37.3484 48.1188 37.5651C48.4283 37.7818 48.823 37.8901 49.3028 37.8901Z" fill="#909090"/>
<path d="M75.5742 69.9999V66.8199L72.5742 61.5159H73.7862L76.1142 65.7639L78.4182 61.5159H79.6062L76.6182 66.8079V69.9999H75.5742Z" fill="#909090"/>
<path d="M82.4976 70.0719C81.8336 70.0719 81.2776 69.9359 80.8296 69.6639C80.3816 69.3839 80.0456 68.9999 79.8216 68.5119C79.6056 68.0239 79.4976 67.4679 79.4976 66.8439C79.4976 66.2119 79.6096 65.6559 79.8336 65.1759C80.0576 64.6879 80.3936 64.3039 80.8416 64.0239C81.2896 63.7439 81.8496 63.6039 82.5216 63.6039C83.1856 63.6039 83.7376 63.7439 84.1776 64.0239C84.6256 64.3039 84.9576 64.6879 85.1736 65.1759C85.3976 65.6559 85.5096 66.2119 85.5096 66.8439C85.5096 67.4679 85.3976 68.0239 85.1736 68.5119C84.9496 68.9999 84.6136 69.3839 84.1656 69.6639C83.7256 69.9359 83.1696 70.0719 82.4976 70.0719ZM82.4976 69.1719C82.9616 69.1719 83.3376 69.0679 83.6256 68.8599C83.9216 68.6519 84.1376 68.3719 84.2736 68.0199C84.4176 67.6679 84.4896 67.2759 84.4896 66.8439C84.4896 66.4119 84.4176 66.0199 84.2736 65.6679C84.1376 65.3159 83.9216 65.0359 83.6256 64.8279C83.3376 64.6199 82.9616 64.5159 82.4976 64.5159C82.0416 64.5159 81.6656 64.6199 81.3696 64.8279C81.0816 65.0359 80.8656 65.3159 80.7216 65.6679C80.5856 66.0199 80.5176 66.4119 80.5176 66.8439C80.5176 67.2759 80.5856 67.6679 80.7216 68.0199C80.8656 68.3719 81.0816 68.6519 81.3696 68.8599C81.6656 69.0679 82.0416 69.1719 82.4976 69.1719Z" fill="#909090"/>
<path d="M89.5143 70.0719C88.6423 70.0719 87.9783 69.8399 87.5223 69.3759C87.0743 68.9119 86.8503 68.1999 86.8503 67.2399V63.6759H87.8703V67.1919C87.8703 67.6079 87.9303 67.9639 88.0503 68.2599C88.1703 68.5559 88.3503 68.7839 88.5903 68.9439C88.8383 69.0959 89.1463 69.1719 89.5143 69.1719C89.8983 69.1719 90.2143 69.0959 90.4623 68.9439C90.7103 68.7839 90.8903 68.5559 91.0023 68.2599C91.1223 67.9639 91.1823 67.6079 91.1823 67.1919V63.6759H92.2023V67.2399C92.2023 68.1999 91.9703 68.9119 91.5063 69.3759C91.0503 69.8399 90.3863 70.0719 89.5143 70.0719Z" fill="#909090"/>
<path d="M94.0763 64.0239L93.7883 63.6279C93.9003 63.5479 94.0043 63.4519 94.1003 63.3399C94.1963 63.2279 94.2803 63.1079 94.3523 62.9799C94.4323 62.8519 94.4883 62.7239 94.5203 62.5959C94.3123 62.5799 94.1443 62.5119 94.0163 62.3919C93.8883 62.2719 93.8243 62.1119 93.8243 61.9119C93.8243 61.6879 93.8923 61.5159 94.0283 61.3959C94.1723 61.2759 94.3523 61.2159 94.5683 61.2159C94.8403 61.2159 95.0283 61.3159 95.1323 61.5159C95.2443 61.7159 95.3003 61.9319 95.3003 62.1639C95.3003 62.4279 95.2403 62.6879 95.1203 62.9439C95.0083 63.1999 94.8603 63.4239 94.6763 63.6159C94.4923 63.8079 94.2923 63.9439 94.0763 64.0239Z" fill="#909090"/>
<path d="M96.9172 69.9999V63.6759H97.9013L97.9492 64.6599C98.1092 64.4119 98.2932 64.2119 98.5012 64.0599C98.7172 63.9079 98.9532 63.7959 99.2092 63.7239C99.4732 63.6439 99.7572 63.6039 100.061 63.6039C100.117 63.6039 100.169 63.6039 100.217 63.6039C100.273 63.6039 100.329 63.6039 100.385 63.6039V64.5639H100.013C99.5173 64.5639 99.1133 64.6719 98.8013 64.8879C98.4972 65.0959 98.2773 65.3799 98.1413 65.7399C98.0053 66.0919 97.9373 66.4839 97.9373 66.9159V69.9999H96.9172Z" fill="#909090"/>
<path d="M104.013 70.0719C103.341 70.0719 102.785 69.9359 102.345 69.6639C101.905 69.3839 101.577 68.9999 101.361 68.5119C101.145 68.0239 101.037 67.4679 101.037 66.8439C101.037 66.2119 101.149 65.6559 101.373 65.1759C101.605 64.6879 101.941 64.3039 102.381 64.0239C102.821 63.7439 103.361 63.6039 104.001 63.6039C104.497 63.6039 104.921 63.6999 105.273 63.8919C105.633 64.0759 105.929 64.3239 106.161 64.6359C106.393 64.9479 106.561 65.2919 106.665 65.6679C106.769 66.0359 106.813 66.4079 106.797 66.7839C106.789 66.8559 106.781 66.9279 106.773 66.9999C106.773 67.0719 106.769 67.1439 106.761 67.2159H102.069C102.101 67.5839 102.193 67.9159 102.345 68.2119C102.497 68.5079 102.713 68.7439 102.993 68.9199C103.273 69.0879 103.621 69.1719 104.037 69.1719C104.245 69.1719 104.453 69.1479 104.661 69.0999C104.877 69.0439 105.069 68.9519 105.237 68.8239C105.413 68.6959 105.537 68.5239 105.609 68.3079H106.653C106.557 68.7159 106.377 69.0519 106.113 69.3159C105.849 69.5719 105.533 69.7639 105.165 69.8919C104.797 70.0119 104.413 70.0719 104.013 70.0719ZM102.093 66.3279H105.753C105.745 65.9679 105.665 65.6519 105.513 65.3799C105.361 65.1079 105.153 64.8959 104.889 64.7439C104.633 64.5919 104.325 64.5159 103.965 64.5159C103.573 64.5159 103.241 64.5999 102.969 64.7679C102.705 64.9359 102.501 65.1559 102.357 65.4279C102.213 65.6999 102.125 65.9999 102.093 66.3279Z" fill="#909090"/>
<path d="M113.418 70.0719C113.13 70.0719 112.85 70.0359 112.578 69.9639C112.314 69.8839 112.074 69.7679 111.858 69.6159C111.65 69.4559 111.482 69.2599 111.354 69.0279C111.234 68.7879 111.174 68.5119 111.174 68.1999C111.174 67.8399 111.238 67.5359 111.366 67.2879C111.502 67.0399 111.682 66.8439 111.906 66.6999C112.13 66.5559 112.39 66.4519 112.686 66.3879C112.982 66.3239 113.29 66.2919 113.61 66.2919H115.47C115.47 65.9319 115.418 65.6199 115.314 65.3559C115.218 65.0919 115.058 64.8879 114.834 64.7439C114.61 64.5919 114.314 64.5159 113.946 64.5159C113.722 64.5159 113.514 64.5399 113.322 64.5879C113.13 64.6359 112.966 64.7119 112.83 64.8159C112.694 64.9199 112.594 65.0599 112.53 65.2359H111.438C111.494 64.9479 111.602 64.7039 111.762 64.5039C111.93 64.2959 112.13 64.1279 112.362 63.9999C112.602 63.8639 112.858 63.7639 113.13 63.6999C113.402 63.6359 113.674 63.6039 113.946 63.6039C114.858 63.6039 115.506 63.8719 115.89 64.4079C116.274 64.9439 116.466 65.6679 116.466 66.5799V69.9999H115.614L115.554 69.1959C115.378 69.4359 115.166 69.6199 114.918 69.7479C114.67 69.8759 114.414 69.9599 114.15 69.9999C113.894 70.0479 113.65 70.0719 113.418 70.0719ZM113.514 69.1719C113.914 69.1719 114.258 69.1079 114.546 68.9799C114.842 68.8439 115.07 68.6479 115.23 68.3919C115.39 68.1359 115.47 67.8239 115.47 67.4559V67.1439H114.354C114.09 67.1439 113.83 67.1479 113.574 67.1559C113.318 67.1639 113.086 67.1959 112.878 67.2519C112.67 67.3079 112.502 67.4039 112.374 67.5399C112.254 67.6759 112.194 67.8719 112.194 68.1279C112.194 68.3679 112.254 68.5639 112.374 68.7159C112.502 68.8679 112.666 68.9839 112.866 69.0639C113.074 69.1359 113.29 69.1719 113.514 69.1719Z" fill="#909090"/>
<path d="M118.046 72.2799V63.6759H119.018L119.066 64.6239C119.282 64.2959 119.574 64.0439 119.942 63.8679C120.318 63.6919 120.722 63.6039 121.154 63.6039C121.794 63.6039 122.318 63.7479 122.726 64.0359C123.134 64.3159 123.434 64.6999 123.626 65.1879C123.826 65.6759 123.926 66.2279 123.926 66.8439C123.926 67.4599 123.826 68.0119 123.626 68.4999C123.426 68.9879 123.118 69.3719 122.702 69.6519C122.286 69.9319 121.754 70.0719 121.106 70.0719C120.786 70.0719 120.498 70.0399 120.242 69.9759C119.986 69.9039 119.762 69.8039 119.57 69.6759C119.378 69.5399 119.21 69.3839 119.066 69.2079V72.2799H118.046ZM121.022 69.1719C121.486 69.1719 121.854 69.0679 122.126 68.8599C122.398 68.6439 122.594 68.3599 122.714 68.0079C122.842 67.6559 122.906 67.2679 122.906 66.8439C122.906 66.4119 122.842 66.0199 122.714 65.6679C122.594 65.3159 122.394 65.0359 122.114 64.8279C121.834 64.6199 121.462 64.5159 120.998 64.5159C120.582 64.5159 120.226 64.6239 119.93 64.8399C119.642 65.0479 119.422 65.3319 119.27 65.6919C119.118 66.0439 119.042 66.4319 119.042 66.8559C119.042 67.2959 119.114 67.6919 119.258 68.0439C119.402 68.3959 119.622 68.6719 119.918 68.8719C120.214 69.0719 120.582 69.1719 121.022 69.1719Z" fill="#909090"/>
<path d="M125.288 72.2799V63.6759H126.26L126.308 64.6239C126.524 64.2959 126.816 64.0439 127.184 63.8679C127.56 63.6919 127.964 63.6039 128.396 63.6039C129.036 63.6039 129.56 63.7479 129.968 64.0359C130.376 64.3159 130.676 64.6999 130.868 65.1879C131.068 65.6759 131.168 66.2279 131.168 66.8439C131.168 67.4599 131.068 68.0119 130.868 68.4999C130.668 68.9879 130.36 69.3719 129.944 69.6519C129.528 69.9319 128.996 70.0719 128.348 70.0719C128.028 70.0719 127.74 70.0399 127.484 69.9759C127.228 69.9039 127.004 69.8039 126.812 69.6759C126.62 69.5399 126.452 69.3839 126.308 69.2079V72.2799H125.288ZM128.264 69.1719C128.728 69.1719 129.096 69.0679 129.368 68.8599C129.64 68.6439 129.836 68.3599 129.956 68.0079C130.084 67.6559 130.148 67.2679 130.148 66.8439C130.148 66.4119 130.084 66.0199 129.956 65.6679C129.836 65.3159 129.636 65.0359 129.356 64.8279C129.076 64.6199 128.704 64.5159 128.24 64.5159C127.824 64.5159 127.468 64.6239 127.172 64.8399C126.884 65.0479 126.664 65.3319 126.512 65.6919C126.36 66.0439 126.284 66.4319 126.284 66.8559C126.284 67.2959 126.356 67.6919 126.5 68.0439C126.644 68.3959 126.864 68.6719 127.16 68.8719C127.456 69.0719 127.824 69.1719 128.264 69.1719Z" fill="#909090"/>
<path d="M132.531 69.9999V61.5159H133.551V69.9999H132.531Z" fill="#909090"/>
<path d="M137.94 72.8319C137.452 72.8319 136.98 72.7639 136.524 72.6279C136.076 72.4919 135.672 72.2559 135.312 71.9199L135.756 71.1159C136.068 71.3639 136.4 71.5599 136.752 71.7039C137.112 71.8479 137.488 71.9199 137.88 71.9199C138.536 71.9199 139.004 71.7279 139.284 71.3439C139.572 70.9679 139.716 70.4879 139.716 69.9039V69.1479C139.572 69.3639 139.388 69.5439 139.164 69.6879C138.948 69.8239 138.708 69.9279 138.444 69.9999C138.18 70.0639 137.908 70.0959 137.628 70.0959C137.004 70.0959 136.512 69.9719 136.152 69.7239C135.792 69.4759 135.536 69.1319 135.384 68.6919C135.232 68.2519 135.156 67.7439 135.156 67.1679V63.6759H136.176V66.8799C136.176 67.1679 136.192 67.4519 136.224 67.7319C136.264 68.0039 136.34 68.2519 136.452 68.4759C136.564 68.6919 136.728 68.8679 136.944 69.0039C137.16 69.1319 137.448 69.1959 137.808 69.1959C138.264 69.1959 138.628 69.0839 138.9 68.8599C139.18 68.6359 139.38 68.3359 139.5 67.9599C139.628 67.5839 139.692 67.1679 139.692 66.7119V63.6759H140.712V69.9999C140.712 70.4559 140.652 70.8599 140.532 71.2119C140.412 71.5639 140.232 71.8599 139.992 72.0999C139.752 72.3399 139.46 72.5199 139.116 72.6399C138.78 72.7679 138.388 72.8319 137.94 72.8319Z" fill="#909090"/>
<path d="M142.316 69.9999V63.6759H143.336V69.9999H142.316ZM142.82 62.7399C142.612 62.7399 142.444 62.6759 142.316 62.5479C142.196 62.4199 142.136 62.2559 142.136 62.0559C142.136 61.8559 142.2 61.6959 142.328 61.5759C142.456 61.4479 142.62 61.3839 142.82 61.3839C143.004 61.3839 143.164 61.4479 143.3 61.5759C143.444 61.7039 143.516 61.8639 143.516 62.0559C143.516 62.2559 143.448 62.4199 143.312 62.5479C143.176 62.6759 143.012 62.7399 142.82 62.7399Z" fill="#909090"/>
<path d="M144.941 69.9999V63.6759H145.925L145.973 64.6359C146.117 64.4039 146.301 64.2119 146.525 64.0599C146.749 63.9079 146.993 63.7959 147.257 63.7239C147.529 63.6439 147.793 63.6039 148.049 63.6039C148.665 63.6039 149.145 63.7319 149.489 63.9879C149.841 64.2439 150.089 64.5919 150.233 65.0319C150.385 65.4639 150.461 65.9559 150.461 66.5079V69.9999H149.441V66.7839C149.441 66.4879 149.421 66.2039 149.381 65.9319C149.349 65.6599 149.277 65.4159 149.165 65.1999C149.061 64.9839 148.909 64.8159 148.709 64.6959C148.509 64.5679 148.241 64.5039 147.905 64.5039C147.489 64.5039 147.133 64.6199 146.837 64.8519C146.549 65.0839 146.329 65.3959 146.177 65.7879C146.033 66.1799 145.961 66.6199 145.961 67.1079V69.9999H144.941Z" fill="#909090"/>
<path d="M154.779 72.8319C154.347 72.8319 153.947 72.7639 153.579 72.6279C153.211 72.4999 152.899 72.2959 152.643 72.0159C152.387 71.7359 152.215 71.3799 152.127 70.9479H153.183C153.247 71.1879 153.367 71.3799 153.543 71.5239C153.719 71.6679 153.923 71.7679 154.155 71.8239C154.387 71.8879 154.615 71.9199 154.839 71.9199C155.271 71.9199 155.619 71.8319 155.883 71.6559C156.155 71.4879 156.351 71.2519 156.471 70.9479C156.591 70.6519 156.651 70.3119 156.651 69.9279V69.0519C156.515 69.2919 156.335 69.4879 156.111 69.6399C155.887 69.7919 155.643 69.9039 155.379 69.9759C155.115 70.0399 154.843 70.0719 154.563 70.0719C153.923 70.0719 153.399 69.9319 152.991 69.6519C152.583 69.3639 152.279 68.9799 152.079 68.4999C151.887 68.0119 151.791 67.4639 151.791 66.8559C151.791 66.2479 151.891 65.6999 152.091 65.2119C152.291 64.7159 152.599 64.3239 153.015 64.0359C153.431 63.7479 153.963 63.6039 154.611 63.6039C154.979 63.6039 155.351 63.6719 155.727 63.8079C156.103 63.9439 156.411 64.1639 156.651 64.4679L156.699 63.6759H157.671V69.9519C157.671 70.5439 157.563 71.0559 157.347 71.4879C157.139 71.9199 156.819 72.2519 156.387 72.4839C155.963 72.7159 155.427 72.8319 154.779 72.8319ZM154.707 69.1719C155.131 69.1719 155.487 69.0639 155.775 68.8479C156.063 68.6319 156.283 68.3439 156.435 67.9839C156.587 67.6239 156.663 67.2319 156.663 66.8079C156.663 66.3679 156.587 65.9759 156.435 65.6319C156.291 65.2879 156.075 65.0159 155.787 64.8159C155.499 64.6159 155.135 64.5159 154.695 64.5159C154.239 64.5159 153.871 64.6199 153.591 64.8279C153.319 65.0359 153.119 65.3159 152.991 65.6679C152.871 66.0199 152.811 66.4119 152.811 66.8439C152.811 67.2919 152.875 67.6919 153.003 68.0439C153.131 68.3959 153.335 68.6719 153.615 68.8719C153.895 69.0719 154.259 69.1719 154.707 69.1719Z" fill="#909090"/>
<path d="M163.119 69.9999V64.5759H162.087V63.6759H163.119V63.0039C163.119 62.5319 163.183 62.1479 163.311 61.8519C163.447 61.5479 163.659 61.3239 163.947 61.1799C164.243 61.0359 164.631 60.9639 165.111 60.9639H165.831V61.8639H165.219C164.931 61.8639 164.707 61.9119 164.547 62.0079C164.395 62.1039 164.287 62.2479 164.223 62.4399C164.167 62.6239 164.139 62.8519 164.139 63.1239V63.6759H165.831V64.5759H164.139V69.9999H163.119Z" fill="#909090"/>
<path d="M169.544 70.0719C168.88 70.0719 168.324 69.9359 167.876 69.6639C167.428 69.3839 167.092 68.9999 166.868 68.5119C166.652 68.0239 166.544 67.4679 166.544 66.8439C166.544 66.2119 166.656 65.6559 166.88 65.1759C167.104 64.6879 167.44 64.3039 167.888 64.0239C168.336 63.7439 168.896 63.6039 169.568 63.6039C170.232 63.6039 170.784 63.7439 171.224 64.0239C171.672 64.3039 172.004 64.6879 172.22 65.1759C172.444 65.6559 172.556 66.2119 172.556 66.8439C172.556 67.4679 172.444 68.0239 172.22 68.5119C171.996 68.9999 171.66 69.3839 171.212 69.6639C170.772 69.9359 170.216 70.0719 169.544 70.0719ZM169.544 69.1719C170.008 69.1719 170.384 69.0679 170.672 68.8599C170.968 68.6519 171.184 68.3719 171.32 68.0199C171.464 67.6679 171.536 67.2759 171.536 66.8439C171.536 66.4119 171.464 66.0199 171.32 65.6679C171.184 65.3159 170.968 65.0359 170.672 64.8279C170.384 64.6199 170.008 64.5159 169.544 64.5159C169.088 64.5159 168.712 64.6199 168.416 64.8279C168.128 65.0359 167.912 65.3159 167.768 65.6679C167.632 66.0199 167.564 66.4119 167.564 66.8439C167.564 67.2759 167.632 67.6679 167.768 68.0199C167.912 68.3719 168.128 68.6519 168.416 68.8599C168.712 69.0679 169.088 69.1719 169.544 69.1719Z" fill="#909090"/>
<path d="M173.921 69.9999V63.6759H174.905L174.953 64.6599C175.113 64.4119 175.297 64.2119 175.505 64.0599C175.721 63.9079 175.957 63.7959 176.213 63.7239C176.477 63.6439 176.761 63.6039 177.065 63.6039C177.121 63.6039 177.173 63.6039 177.221 63.6039C177.277 63.6039 177.333 63.6039 177.389 63.6039V64.5639H177.017C176.521 64.5639 176.117 64.6719 175.805 64.8879C175.501 65.0959 175.281 65.3799 175.145 65.7399C175.009 66.0919 174.941 66.4839 174.941 66.9159V69.9999H173.921Z" fill="#909090"/>
<path d="M76.155 87.9999V79.5159H79.347C79.987 79.5159 80.539 79.6159 81.003 79.8159C81.475 80.0079 81.839 80.3159 82.095 80.7399C82.359 81.1639 82.491 81.7199 82.491 82.4079C82.491 83.0639 82.347 83.6119 82.059 84.0519C81.771 84.4919 81.379 84.8239 80.883 85.0479C80.387 85.2639 79.819 85.3719 79.179 85.3719H77.655V87.9999H76.155ZM77.655 84.0279H79.155C79.707 84.0279 80.151 83.8959 80.487 83.6319C80.823 83.3679 80.991 82.9519 80.991 82.3839C80.991 81.8879 80.851 81.5159 80.571 81.2679C80.291 81.0119 79.859 80.8839 79.275 80.8839H77.655V84.0279Z" fill="#909090"/>
<path d="M83.6728 87.9999V81.6759H85.0048L85.0888 82.5039C85.2488 82.2639 85.4288 82.0799 85.6288 81.9519C85.8368 81.8159 86.0568 81.7199 86.2888 81.6639C86.5288 81.6079 86.7688 81.5799 87.0088 81.5799C87.0968 81.5799 87.1768 81.5799 87.2488 81.5799C87.3288 81.5799 87.3928 81.5839 87.4408 81.5919V82.9839H87.0568C86.6408 82.9839 86.2888 83.0639 86.0008 83.2239C85.7128 83.3839 85.4968 83.6119 85.3528 83.9079C85.2088 84.2039 85.1368 84.5679 85.1368 84.9999V87.9999H83.6728Z" fill="#909090"/>
<path d="M91.0765 88.0839C90.4285 88.0839 89.8685 87.9519 89.3965 87.6879C88.9325 87.4239 88.5725 87.0479 88.3165 86.5599C88.0685 86.0719 87.9445 85.4999 87.9445 84.8439C87.9445 84.1799 88.0725 83.6079 88.3285 83.1279C88.5845 82.6399 88.9445 82.2599 89.4085 81.9879C89.8725 81.7159 90.4285 81.5799 91.0765 81.5799C91.7165 81.5799 92.2685 81.7159 92.7325 81.9879C93.1965 82.2599 93.5525 82.6439 93.8005 83.1399C94.0485 83.6279 94.1725 84.2039 94.1725 84.8679C94.1725 85.5159 94.0485 86.0839 93.8005 86.5719C93.5605 87.0519 93.2085 87.4239 92.7445 87.6879C92.2805 87.9519 91.7245 88.0839 91.0765 88.0839ZM91.0645 86.7519C91.4645 86.7519 91.7845 86.6639 92.0245 86.4879C92.2725 86.3119 92.4525 86.0799 92.5645 85.7919C92.6765 85.5039 92.7325 85.1919 92.7325 84.8559C92.7325 84.5199 92.6765 84.2039 92.5645 83.9079C92.4525 83.6119 92.2725 83.3759 92.0245 83.1999C91.7845 83.0159 91.4645 82.9239 91.0645 82.9239C90.6645 82.9239 90.3405 83.0159 90.0925 83.1999C89.8445 83.3759 89.6645 83.6119 89.5525 83.9079C89.4405 84.1959 89.3845 84.5119 89.3845 84.8559C89.3845 85.1919 89.4405 85.5079 89.5525 85.8039C89.6725 86.0919 89.8525 86.3239 90.0925 86.4999C90.3405 86.6679 90.6645 86.7519 91.0645 86.7519Z" fill="#909090"/>
<path d="M97.9247 88.0839C97.2847 88.0839 96.7567 87.9399 96.3407 87.6519C95.9247 87.3559 95.6127 86.9639 95.4047 86.4759C95.2047 85.9879 95.1047 85.4439 95.1047 84.8439C95.1047 84.2199 95.2127 83.6639 95.4287 83.1759C95.6447 82.6799 95.9687 82.2919 96.4007 82.0119C96.8327 81.7239 97.3727 81.5799 98.0207 81.5799C98.2607 81.5799 98.4927 81.6079 98.7167 81.6639C98.9487 81.7119 99.1647 81.7919 99.3647 81.9039C99.5727 82.0079 99.7447 82.1479 99.8807 82.3239V79.5159H101.345V87.9999H99.9287L99.9047 87.2079C99.7527 87.4079 99.5727 87.5719 99.3647 87.6999C99.1647 87.8279 98.9407 87.9239 98.6927 87.9879C98.4447 88.0519 98.1887 88.0839 97.9247 88.0839ZM98.2007 86.7639C98.5847 86.7639 98.9007 86.6759 99.1487 86.4999C99.3967 86.3159 99.5807 86.0759 99.7007 85.7799C99.8287 85.4759 99.8927 85.1559 99.8927 84.8199C99.8927 84.4679 99.8287 84.1479 99.7007 83.8599C99.5807 83.5719 99.3967 83.3399 99.1487 83.1639C98.9007 82.9879 98.5847 82.8999 98.2007 82.8999C97.7927 82.8999 97.4687 82.9919 97.2287 83.1759C96.9967 83.3599 96.8247 83.6039 96.7127 83.9079C96.6087 84.2039 96.5567 84.5239 96.5567 84.8679C96.5567 85.1239 96.5847 85.3679 96.6407 85.5999C96.7047 85.8239 96.8007 86.0239 96.9287 86.1999C97.0567 86.3759 97.2247 86.5159 97.4327 86.6199C97.6407 86.7159 97.8967 86.7639 98.2007 86.7639Z" fill="#909090"/>
<path d="M105.559 88.0839C104.647 88.0839 103.947 87.8479 103.459 87.3759C102.979 86.9039 102.739 86.1839 102.739 85.2159V81.6759H104.203V85.1199C104.203 85.4559 104.247 85.7479 104.335 85.9959C104.431 86.2439 104.579 86.4359 104.779 86.5719C104.987 86.6999 105.247 86.7639 105.559 86.7639C105.895 86.7639 106.159 86.6959 106.351 86.5599C106.551 86.4159 106.691 86.2199 106.771 85.9719C106.851 85.7239 106.891 85.4399 106.891 85.1199V81.6759H108.355V85.2159C108.355 86.2079 108.107 86.9359 107.611 87.3999C107.123 87.8559 106.439 88.0839 105.559 88.0839Z" fill="#909090"/>
<path d="M112.531 88.0839C111.875 88.0839 111.323 87.9519 110.875 87.6879C110.427 87.4159 110.087 87.0359 109.855 86.5479C109.623 86.0599 109.507 85.4959 109.507 84.8559C109.507 84.2159 109.627 83.6519 109.867 83.1639C110.107 82.6679 110.459 82.2799 110.923 81.9999C111.387 81.7199 111.951 81.5799 112.615 81.5799C113.103 81.5799 113.535 81.6639 113.911 81.8319C114.295 81.9999 114.603 82.2479 114.835 82.5759C115.075 82.8959 115.227 83.2959 115.291 83.7759H113.851C113.755 83.4719 113.595 83.2519 113.371 83.1159C113.155 82.9719 112.895 82.8999 112.591 82.8999C112.183 82.8999 111.859 82.9999 111.619 83.1999C111.387 83.3919 111.219 83.6359 111.115 83.9319C111.011 84.2279 110.959 84.5359 110.959 84.8559C110.959 85.1919 111.015 85.5079 111.127 85.8039C111.239 86.0919 111.411 86.3239 111.643 86.4999C111.883 86.6759 112.191 86.7639 112.567 86.7639C112.871 86.7639 113.143 86.6959 113.383 86.5599C113.631 86.4239 113.791 86.2039 113.863 85.8999H115.351C115.295 86.3879 115.131 86.7959 114.859 87.1239C114.595 87.4439 114.259 87.6839 113.851 87.8439C113.443 88.0039 113.003 88.0839 112.531 88.0839Z" fill="#909090"/>
<path d="M118.97 88.0719C118.274 88.0719 117.766 87.8799 117.446 87.4959C117.126 87.1119 116.966 86.5799 116.966 85.8999V82.9719H115.994V81.6759H116.966V79.8999H118.43V81.6759H120.35V82.9719H118.43V85.6239C118.43 85.8319 118.454 86.0199 118.502 86.1879C118.55 86.3559 118.638 86.4879 118.766 86.5839C118.894 86.6799 119.07 86.7319 119.294 86.7399C119.486 86.7399 119.65 86.7079 119.786 86.6439C119.922 86.5799 120.034 86.5079 120.122 86.4279L120.614 87.5439C120.462 87.6719 120.29 87.7759 120.098 87.8559C119.914 87.9359 119.726 87.9919 119.534 88.0239C119.342 88.0559 119.154 88.0719 118.97 88.0719Z" fill="#909090"/>
<path d="M124.987 87.9999V79.5159H128.119C129.007 79.5159 129.759 79.6879 130.375 80.0319C130.991 80.3679 131.459 80.8559 131.779 81.4959C132.107 82.1279 132.271 82.8879 132.271 83.7759C132.271 84.6479 132.111 85.3999 131.791 86.0319C131.479 86.6639 131.015 87.1519 130.399 87.4959C129.783 87.8319 129.027 87.9999 128.131 87.9999H124.987ZM126.487 86.6319H128.095C128.727 86.6319 129.235 86.5119 129.619 86.2719C130.011 86.0239 130.295 85.6879 130.471 85.2639C130.655 84.8319 130.747 84.3319 130.747 83.7639C130.747 83.2119 130.659 82.7199 130.483 82.2879C130.307 81.8559 130.023 81.5159 129.631 81.2679C129.247 81.0119 128.739 80.8839 128.107 80.8839H126.487V86.6319Z" fill="#909090"/>
<path d="M136.298 88.0839C135.642 88.0839 135.082 87.9479 134.618 87.6759C134.162 87.4039 133.814 87.0279 133.574 86.5479C133.342 86.0599 133.226 85.4959 133.226 84.8559C133.226 84.2159 133.346 83.6519 133.586 83.1639C133.834 82.6679 134.186 82.2799 134.642 81.9999C135.106 81.7199 135.662 81.5799 136.31 81.5799C136.79 81.5799 137.21 81.6679 137.57 81.8439C137.93 82.0119 138.23 82.2439 138.47 82.5399C138.718 82.8359 138.902 83.1719 139.022 83.5479C139.142 83.9239 139.198 84.3199 139.19 84.7359C139.182 84.8319 139.174 84.9279 139.166 85.0239C139.158 85.1119 139.146 85.2079 139.13 85.3119H134.69C134.714 85.5919 134.786 85.8479 134.906 86.0799C135.034 86.3119 135.21 86.4959 135.434 86.6319C135.666 86.7679 135.954 86.8359 136.298 86.8359C136.498 86.8359 136.69 86.8119 136.874 86.7639C137.058 86.7079 137.218 86.6279 137.354 86.5239C137.498 86.4199 137.594 86.2879 137.642 86.1279H139.106C139.002 86.5839 138.81 86.9559 138.53 87.2439C138.25 87.5319 137.914 87.7439 137.522 87.8799C137.138 88.0159 136.73 88.0839 136.298 88.0839ZM134.714 84.2199H137.762C137.762 83.9559 137.702 83.7159 137.582 83.4999C137.462 83.2839 137.29 83.1159 137.066 82.9959C136.85 82.8679 136.586 82.8039 136.274 82.8039C135.938 82.8039 135.658 82.8719 135.434 83.0079C135.21 83.1439 135.038 83.3199 134.918 83.5359C134.798 83.7519 134.73 83.9799 134.714 84.2199Z" fill="#909090"/>
<path d="M142.78 88.0839C142.476 88.0839 142.172 88.0519 141.868 87.9879C141.572 87.9239 141.292 87.8199 141.028 87.6759C140.764 87.5239 140.544 87.3199 140.368 87.0639C140.192 86.8079 140.076 86.4879 140.02 86.1039H141.496C141.56 86.2799 141.66 86.4239 141.796 86.5359C141.94 86.6399 142.104 86.7199 142.288 86.7759C142.48 86.8239 142.668 86.8479 142.852 86.8479C142.964 86.8479 143.084 86.8399 143.212 86.8239C143.348 86.8079 143.472 86.7759 143.584 86.7279C143.704 86.6799 143.8 86.6119 143.872 86.5239C143.944 86.4279 143.98 86.3039 143.98 86.1519C143.98 86.0079 143.94 85.8959 143.86 85.8159C143.78 85.7279 143.672 85.6599 143.536 85.6119C143.4 85.5559 143.236 85.5119 143.044 85.4799C142.7 85.4079 142.332 85.3319 141.94 85.2519C141.548 85.1639 141.208 85.0279 140.92 84.8439C140.8 84.7719 140.696 84.6879 140.608 84.5919C140.52 84.4959 140.444 84.3919 140.38 84.2799C140.324 84.1599 140.28 84.0319 140.248 83.8959C140.224 83.7599 140.212 83.6119 140.212 83.4519C140.212 83.1159 140.28 82.8319 140.416 82.5999C140.56 82.3599 140.748 82.1679 140.98 82.0239C141.22 81.8719 141.492 81.7599 141.796 81.6879C142.1 81.6159 142.412 81.5799 142.732 81.5799C143.164 81.5799 143.556 81.6479 143.908 81.7839C144.26 81.9199 144.552 82.1279 144.784 82.4079C145.024 82.6879 145.168 83.0439 145.216 83.4759H143.824C143.784 83.2759 143.66 83.1159 143.452 82.9959C143.252 82.8759 142.996 82.8159 142.684 82.8159C142.572 82.8159 142.456 82.8279 142.336 82.8519C142.216 82.8679 142.1 82.8999 141.988 82.9479C141.884 82.9879 141.796 83.0519 141.724 83.1399C141.66 83.2279 141.628 83.3359 141.628 83.4639C141.628 83.5839 141.656 83.6879 141.712 83.7759C141.776 83.8639 141.868 83.9399 141.988 84.0039C142.116 84.0599 142.264 84.1079 142.432 84.1479C142.704 84.2039 142.988 84.2599 143.284 84.3159C143.58 84.3719 143.836 84.4279 144.052 84.4839C144.308 84.5559 144.54 84.6599 144.748 84.7959C144.956 84.9239 145.116 85.0959 145.228 85.3119C145.348 85.5199 145.408 85.7879 145.408 86.1159C145.408 86.4999 145.328 86.8199 145.168 87.0759C145.016 87.3319 144.812 87.5319 144.556 87.6759C144.3 87.8199 144.016 87.9239 143.704 87.9879C143.392 88.0519 143.084 88.0839 142.78 88.0839Z" fill="#909090"/>
<path d="M146.485 87.9999V81.6759H147.949V87.9999H146.485ZM147.217 80.9439C146.937 80.9439 146.713 80.8599 146.545 80.6919C146.377 80.5239 146.293 80.3039 146.293 80.0319C146.293 79.7679 146.381 79.5519 146.557 79.3839C146.733 79.2079 146.953 79.1199 147.217 79.1199C147.473 79.1199 147.693 79.2039 147.877 79.3719C148.061 79.5399 148.153 79.7599 148.153 80.0319C148.153 80.3039 148.065 80.5239 147.889 80.6919C147.713 80.8599 147.489 80.9439 147.217 80.9439Z" fill="#909090"/>
<path d="M152.308 90.8919C151.844 90.8919 151.408 90.8159 151 90.6639C150.6 90.5199 150.26 90.2879 149.98 89.9679C149.708 89.6559 149.524 89.2519 149.428 88.7559H150.928C150.976 88.9479 151.072 89.1039 151.216 89.2239C151.36 89.3439 151.528 89.4279 151.72 89.4759C151.92 89.5319 152.124 89.5599 152.332 89.5599C152.724 89.5599 153.032 89.4799 153.256 89.3199C153.488 89.1599 153.652 88.9399 153.748 88.6599C153.844 88.3879 153.892 88.0879 153.892 87.7599V87.1599C153.748 87.3919 153.564 87.5759 153.34 87.7119C153.124 87.8479 152.892 87.9439 152.644 87.9999C152.404 88.0479 152.164 88.0719 151.924 88.0719C151.268 88.0719 150.732 87.9279 150.316 87.6399C149.908 87.3519 149.608 86.9679 149.416 86.4879C149.224 85.9999 149.128 85.4639 149.128 84.8799C149.128 84.2719 149.232 83.7199 149.44 83.2239C149.656 82.7199 149.976 82.3199 150.4 82.0239C150.832 81.7279 151.372 81.5799 152.02 81.5799C152.396 81.5799 152.748 81.6479 153.076 81.7839C153.412 81.9119 153.692 82.1079 153.916 82.3719L154.012 81.6759H155.368V87.4479C155.368 88.1599 155.264 88.7719 155.056 89.2839C154.856 89.8039 154.532 90.1999 154.084 90.4719C153.636 90.7519 153.044 90.8919 152.308 90.8919ZM152.224 86.7759C152.6 86.7759 152.912 86.6879 153.16 86.5119C153.408 86.3279 153.596 86.0879 153.724 85.7919C153.852 85.4879 153.916 85.1599 153.916 84.8079C153.916 84.4479 153.852 84.1239 153.724 83.8359C153.604 83.5479 153.42 83.3199 153.172 83.1519C152.932 82.9839 152.62 82.8999 152.236 82.8999C151.828 82.8999 151.504 82.9919 151.264 83.1759C151.024 83.3599 150.848 83.6039 150.736 83.9079C150.632 84.2039 150.58 84.5199 150.58 84.8559C150.58 85.2079 150.636 85.5319 150.748 85.8279C150.86 86.1159 151.036 86.3479 151.276 86.5239C151.516 86.6919 151.832 86.7759 152.224 86.7759Z" fill="#909090"/>
<path d="M156.786 87.9999V81.6759H158.154L158.238 82.4799C158.406 82.2559 158.602 82.0799 158.826 81.9519C159.05 81.8239 159.286 81.7319 159.534 81.6759C159.782 81.6119 160.014 81.5799 160.23 81.5799C160.83 81.5799 161.302 81.7119 161.646 81.9759C161.998 82.2399 162.246 82.5919 162.39 83.0319C162.534 83.4719 162.606 83.9639 162.606 84.5079V87.9999H161.142V84.7479C161.142 84.5159 161.126 84.2919 161.094 84.0759C161.062 83.8519 160.998 83.6519 160.902 83.4759C160.814 83.2999 160.686 83.1599 160.518 83.0559C160.35 82.9519 160.126 82.8999 159.846 82.8999C159.502 82.8999 159.21 82.9919 158.97 83.1759C158.73 83.3599 158.55 83.6079 158.43 83.9199C158.31 84.2239 158.25 84.5719 158.25 84.9639V87.9999H156.786Z" fill="#909090"/>
<path d="M166.813 88.0839C166.157 88.0839 165.597 87.9479 165.133 87.6759C164.677 87.4039 164.329 87.0279 164.089 86.5479C163.857 86.0599 163.741 85.4959 163.741 84.8559C163.741 84.2159 163.861 83.6519 164.101 83.1639C164.349 82.6679 164.701 82.2799 165.157 81.9999C165.621 81.7199 166.177 81.5799 166.825 81.5799C167.305 81.5799 167.725 81.6679 168.085 81.8439C168.445 82.0119 168.745 82.2439 168.985 82.5399C169.233 82.8359 169.417 83.1719 169.537 83.5479C169.657 83.9239 169.713 84.3199 169.705 84.7359C169.697 84.8319 169.689 84.9279 169.681 85.0239C169.673 85.1119 169.661 85.2079 169.645 85.3119H165.205C165.229 85.5919 165.301 85.8479 165.421 86.0799C165.549 86.3119 165.725 86.4959 165.949 86.6319C166.181 86.7679 166.469 86.8359 166.813 86.8359C167.013 86.8359 167.205 86.8119 167.389 86.7639C167.573 86.7079 167.733 86.6279 167.869 86.5239C168.013 86.4199 168.109 86.2879 168.157 86.1279H169.621C169.517 86.5839 169.325 86.9559 169.045 87.2439C168.765 87.5319 168.429 87.7439 168.037 87.8799C167.653 88.0159 167.245 88.0839 166.813 88.0839ZM165.229 84.2199H168.277C168.277 83.9559 168.217 83.7159 168.097 83.4999C167.977 83.2839 167.805 83.1159 167.581 82.9959C167.365 82.8679 167.101 82.8039 166.789 82.8039C166.453 82.8039 166.173 82.8719 165.949 83.0079C165.725 83.1439 165.553 83.3199 165.433 83.5359C165.313 83.7519 165.245 83.9799 165.229 84.2199Z" fill="#909090"/>
<path d="M170.872 87.9999V81.6759H172.204L172.288 82.5039C172.448 82.2639 172.628 82.0799 172.828 81.9519C173.036 81.8159 173.256 81.7199 173.488 81.6639C173.728 81.6079 173.968 81.5799 174.208 81.5799C174.296 81.5799 174.376 81.5799 174.448 81.5799C174.528 81.5799 174.592 81.5839 174.64 81.5919V82.9839H174.256C173.84 82.9839 173.488 83.0639 173.2 83.2239C172.912 83.3839 172.696 83.6119 172.552 83.9079C172.408 84.2039 172.336 84.5679 172.336 84.9999V87.9999H170.872Z" fill="#909090"/>
<rect x="45" y="101" width="162" height="2" rx="1" fill="#4D4D4D"/>
<rect x="54" y="107" width="145" height="2" rx="1" fill="#4D4D4D"/>
<rect x="38.5" y="129.5" width="174" height="30" rx="3.5" fill="#373737" stroke="#3D3D3D"/>
<path fill-rule="evenodd" clip-rule="evenodd" d="M55 137.25C51.2721 137.25 48.25 140.272 48.25 144C48.25 145.656 48.8467 147.174 49.8368 148.348L50.148 147.245C50.3867 146.221 51.3003 145.555 52.3 145.555H57.55C58.5498 145.555 59.4633 146.221 59.702 147.245L60.0501 148.479C61.1077 147.287 61.75 145.719 61.75 144C61.75 140.272 58.7279 137.25 55 137.25ZM58.8017 149.578L58.2532 147.634C58.2494 147.62 58.2459 147.606 58.2429 147.593C58.1733 147.28 57.8929 147.055 57.55 147.055H52.3C51.9571 147.055 51.6768 147.28 51.6072 147.593C51.6041 147.606 51.6007 147.62 51.5969 147.634L51.0731 149.491C52.1794 150.283 53.5352 150.75 55 150.75C56.41 150.75 57.719 150.318 58.8017 149.578ZM46.75 144C46.75 139.444 50.4437 135.75 55 135.75C59.5563 135.75 63.25 139.444 63.25 144C63.25 148.556 59.5563 152.25 55 152.25C50.4437 152.25 46.75 148.556 46.75 144ZM55 139.63C53.9645 139.63 53.125 140.47 53.125 141.505C53.125 142.541 53.9645 143.38 55 143.38C56.0355 143.38 56.875 142.541 56.875 141.505C56.875 140.47 56.0355 139.63 55 139.63ZM51.625 141.505C51.625 139.641 53.136 138.13 55 138.13C56.864 138.13 58.375 139.641 58.375 141.505C58.375 143.369 56.864 144.88 55 144.88C53.136 144.88 51.625 143.369 51.625 141.505Z" fill="#909090"/>
<rect x="72" y="138" width="76" height="8" rx="4" fill="#4D4D4D"/>
<rect x="74" y="150" width="131" height="2" rx="1" fill="#4D4D4D"/>
<rect x="38.5" y="164.5" width="174" height="30" rx="3.5" fill="#373737" stroke="#3D3D3D"/>
<path fill-rule="evenodd" clip-rule="evenodd" d="M52 173C52 171.761 53.0108 170.75 54.25 170.75H60.25C61.4892 170.75 62.5 171.761 62.5 173V182C62.5 183.239 61.4892 184.25 60.25 184.25H54.25C53.0108 184.25 52 183.239 52 182V173ZM54.25 172.25C53.8392 172.25 53.5 172.589 53.5 173V182C53.5 182.411 53.8392 182.75 54.25 182.75H60.25C60.6608 182.75 61 182.411 61 182V173C61 172.589 60.6608 172.25 60.25 172.25H54.25ZM47.5 176C47.5 174.761 48.5108 173.75 49.75 173.75H50.5C50.9142 173.75 51.25 174.086 51.25 174.5C51.25 174.914 50.9142 175.25 50.5 175.25H49.75C49.3392 175.25 49 175.589 49 176V185C49 185.411 49.3392 185.75 49.75 185.75H55.75C56.0215 185.75 56.2694 185.584 56.3542 185.415C56.5394 185.044 56.9899 184.894 57.3604 185.079C57.7309 185.264 57.8811 185.715 57.6958 186.085C57.3306 186.816 56.5285 187.25 55.75 187.25H49.75C48.5108 187.25 47.5 186.239 47.5 185V176ZM54.25 174.5C54.25 174.086 54.5858 173.75 55 173.75H58C58.4142 173.75 58.75 174.086 58.75 174.5C58.75 174.914 58.4142 175.25 58 175.25H55C54.5858 175.25 54.25 174.914 54.25 174.5ZM54.25 177.5C54.25 177.086 54.5858 176.75 55 176.75H59.5C59.9142 176.75 60.25 177.086 60.25 177.5C60.25 177.914 59.9142 178.25 59.5 178.25H55C54.5858 178.25 54.25 177.914 54.25 177.5ZM54.25 180.5C54.25 180.086 54.5858 179.75 55 179.75H58C58.4142 179.75 58.75 180.086 58.75 180.5C58.75 180.914 58.4142 181.25 58 181.25H55C54.5858 181.25 54.25 180.914 54.25 180.5Z" fill="#909090"/>
<rect x="72" y="173" width="76" height="8" rx="4" fill="#4D4D4D"/>
<rect x="74" y="185" width="131" height="2" rx="1" fill="#4D4D4D"/>
<rect x="38.5" y="199.5" width="174" height="30" rx="3.5" fill="#373737" stroke="#3D3D3D"/>
<path fill-rule="evenodd" clip-rule="evenodd" d="M47.5 209.5C47.5 207.811 48.8108 206.5 50.5 206.5H59.5C61.1892 206.5 62.5 207.811 62.5 209.5V218.5C62.5 220.189 61.1892 221.5 59.5 221.5H50.5C48.8108 221.5 47.5 220.189 47.5 218.5V209.5ZM49 217V209.5C49 208.639 49.6392 208 50.5 208H59.5C60.3608 208 61 208.639 61 209.5V217H49ZM61 218.5H49C49 219.361 49.6392 220 50.5 220H59.5C60.3608 220 61 219.361 61 218.5ZM54.25 211.59V213.41L55.7673 212.5L54.25 211.59ZM53.3521 209.935C53.7079 209.758 54.1087 209.791 54.4354 209.954C54.4526 209.963 54.4694 209.972 54.4859 209.982L57.1109 211.557C57.1211 211.563 57.1311 211.569 57.141 211.576C57.8113 212.023 57.8113 212.977 57.141 213.424C57.1311 213.431 57.1211 213.437 57.1109 213.443L54.497 215.011C54.1326 215.244 53.7085 215.216 53.4013 215.075C53.0734 214.923 52.75 214.578 52.75 214.075V210.925C52.75 210.499 52.9784 210.122 53.3521 209.935Z" fill="#909090"/>
<rect x="72" y="208" width="76" height="8" rx="4" fill="#4D4D4D"/>
<rect x="74" y="220" width="131" height="2" rx="1" fill="#4D4D4D"/>
</svg>
