<svg width="250" height="250" viewBox="0 0 250 250" fill="none" xmlns="http://www.w3.org/2000/svg">
<g clip-path="url(#clip0_1815_39090)">
<rect width="250" height="250" fill="#2C2C2C"/>
<path d="M58.9492 34.0001V25.5161H64.9372V26.8841H60.4492V29.1161H64.3492V30.4601H60.4492V32.6321H64.9372V34.0001H58.9492Z" fill="#909090"/>
<path d="M66.1272 34.0001V27.6761H67.4712L67.5672 28.3961C67.7272 28.1801 67.8992 28.0161 68.0832 27.9041C68.2752 27.7841 68.4712 27.7001 68.6712 27.6521C68.8792 27.6041 69.0752 27.5801 69.2592 27.5801C69.6592 27.5801 69.9992 27.6601 70.2792 27.8201C70.5672 27.9801 70.7912 28.2201 70.9512 28.5401C71.1112 28.3161 71.2912 28.1361 71.4912 28.0001C71.6912 27.8561 71.9032 27.7521 72.1272 27.6881C72.3512 27.6161 72.5872 27.5801 72.8352 27.5801C73.3232 27.5801 73.7152 27.6841 74.0112 27.8921C74.3072 28.0921 74.5232 28.3721 74.6592 28.7321C74.7952 29.0841 74.8632 29.4881 74.8632 29.9441V34.0001H73.3992V30.4121C73.3992 30.2521 73.3912 30.0841 73.3752 29.9081C73.3592 29.7321 73.3152 29.5681 73.2432 29.4161C73.1792 29.2641 73.0832 29.1401 72.9552 29.0441C72.8272 28.9481 72.6472 28.9001 72.4152 28.9001C72.1832 28.9001 71.9912 28.9521 71.8392 29.0561C71.6952 29.1521 71.5752 29.2841 71.4792 29.4521C71.3912 29.6121 71.3272 29.7921 71.2872 29.9921C71.2552 30.1841 71.2392 30.3761 71.2392 30.5681V34.0001H69.7752V30.4001C69.7752 30.2481 69.7632 30.0881 69.7392 29.9201C69.7232 29.7441 69.6832 29.5801 69.6192 29.4281C69.5632 29.2681 69.4672 29.1401 69.3312 29.0441C69.2032 28.9481 69.0232 28.9001 68.7912 28.9001C68.4552 28.9001 68.1992 28.9921 68.0232 29.1761C67.8552 29.3601 67.7392 29.5841 67.6752 29.8481C67.6192 30.1121 67.5912 30.3641 67.5912 30.6041V34.0001H66.1272Z" fill="#909090"/>
<path d="M76.217 34.0001V27.6761H77.681V34.0001H76.217ZM76.949 26.9441C76.669 26.9441 76.445 26.8601 76.277 26.6921C76.109 26.5241 76.025 26.3041 76.025 26.0321C76.025 25.7681 76.113 25.5521 76.289 25.3841C76.465 25.2081 76.685 25.1201 76.949 25.1201C77.205 25.1201 77.425 25.2041 77.609 25.3721C77.793 25.5401 77.885 25.7601 77.885 26.0321C77.885 26.3041 77.797 26.5241 77.621 26.6921C77.445 26.8601 77.221 26.9441 76.949 26.9441Z" fill="#909090"/>
<path d="M79.0998 34.0001V25.5161H80.5638V34.0001H79.0998Z" fill="#909090"/>
<path d="M84.7787 36.8921C84.2907 36.8921 83.8147 36.8241 83.3507 36.6881C82.8947 36.5601 82.4707 36.3401 82.0787 36.0281L82.6067 34.8521C82.8787 35.0681 83.1827 35.2361 83.5187 35.3561C83.8547 35.4841 84.2227 35.5481 84.6227 35.5481C85.2547 35.5481 85.7147 35.3881 86.0027 35.0681C86.2987 34.7481 86.4467 34.3121 86.4467 33.7601V33.2921C86.3027 33.4761 86.1267 33.6281 85.9187 33.7481C85.7107 33.8681 85.4867 33.9561 85.2467 34.0121C85.0067 34.0681 84.7627 34.0961 84.5147 34.0961C83.8987 34.0961 83.4067 33.9721 83.0387 33.7241C82.6787 33.4681 82.4187 33.1201 82.2587 32.6801C82.0987 32.2321 82.0187 31.7241 82.0187 31.1561V27.6761H83.4707V30.8321C83.4707 31.0561 83.4867 31.2841 83.5187 31.5161C83.5507 31.7481 83.6147 31.9601 83.7107 32.1521C83.8067 32.3441 83.9467 32.5001 84.1307 32.6201C84.3227 32.7321 84.5747 32.7881 84.8867 32.7881C85.2947 32.7881 85.6107 32.6881 85.8347 32.4881C86.0587 32.2881 86.2107 32.0281 86.2907 31.7081C86.3787 31.3881 86.4227 31.0481 86.4227 30.6881V27.6761H87.8867V33.4001C87.8867 33.9361 87.8307 34.4161 87.7187 34.8401C87.6067 35.2721 87.4267 35.6401 87.1787 35.9441C86.9307 36.2481 86.6107 36.4801 86.2187 36.6401C85.8267 36.8081 85.3467 36.8921 84.7787 36.8921Z" fill="#909090"/>
<path d="M95.2507 34.0961C94.8267 34.0961 94.4387 34.0481 94.0867 33.9521C93.7347 33.8481 93.4307 33.6881 93.1747 33.4721C92.9267 33.2481 92.7307 32.9601 92.5867 32.6081C92.4427 32.2481 92.3627 31.8121 92.3467 31.3001H93.8467C93.8627 31.5561 93.9147 31.7921 94.0027 32.0081C94.0907 32.2241 94.2307 32.3961 94.4227 32.5241C94.6227 32.6521 94.8907 32.7161 95.2267 32.7161C95.5467 32.7161 95.7947 32.6481 95.9707 32.5121C96.1467 32.3761 96.2707 32.1961 96.3427 31.9721C96.4227 31.7481 96.4627 31.4961 96.4627 31.2161V25.5161H97.9507V31.0241C97.9507 31.4961 97.8987 31.9241 97.7947 32.3081C97.6987 32.6841 97.5387 33.0081 97.3147 33.2801C97.0987 33.5441 96.8187 33.7481 96.4747 33.8921C96.1387 34.0281 95.7307 34.0961 95.2507 34.0961Z" fill="#909090"/>
<path d="M102.453 34.0841C101.805 34.0841 101.245 33.9521 100.773 33.6881C100.309 33.4241 99.9488 33.0481 99.6928 32.5601C99.4448 32.0721 99.3208 31.5001 99.3208 30.8441C99.3208 30.1801 99.4488 29.6081 99.7048 29.1281C99.9608 28.6401 100.321 28.2601 100.785 27.9881C101.249 27.7161 101.805 27.5801 102.453 27.5801C103.093 27.5801 103.645 27.7161 104.109 27.9881C104.573 28.2601 104.929 28.6441 105.177 29.1401C105.425 29.6281 105.549 30.2041 105.549 30.8681C105.549 31.5161 105.425 32.0841 105.177 32.5721C104.937 33.0521 104.585 33.4241 104.121 33.6881C103.657 33.9521 103.101 34.0841 102.453 34.0841ZM102.441 32.7521C102.841 32.7521 103.161 32.6641 103.401 32.4881C103.649 32.3121 103.829 32.0801 103.941 31.7921C104.053 31.5041 104.109 31.1921 104.109 30.8561C104.109 30.5201 104.053 30.2041 103.941 29.9081C103.829 29.6121 103.649 29.3761 103.401 29.2001C103.161 29.0161 102.841 28.9241 102.441 28.9241C102.041 28.9241 101.717 29.0161 101.469 29.2001C101.221 29.3761 101.041 29.6121 100.929 29.9081C100.817 30.1961 100.761 30.5121 100.761 30.8561C100.761 31.1921 100.817 31.5081 100.929 31.8041C101.049 32.0921 101.229 32.3241 101.469 32.5001C101.717 32.6681 102.041 32.7521 102.441 32.7521Z" fill="#909090"/>
<path d="M106.721 34.0001V25.5161H108.185V28.4921C108.353 28.2761 108.549 28.1001 108.773 27.9641C108.997 27.8281 109.233 27.7321 109.481 27.6761C109.729 27.6121 109.965 27.5801 110.189 27.5801C110.789 27.5801 111.261 27.7121 111.605 27.9761C111.949 28.2401 112.189 28.5921 112.325 29.0321C112.469 29.4721 112.541 29.9681 112.541 30.5201V34.0001H111.077V30.7721C111.077 30.5561 111.061 30.3361 111.029 30.1121C110.997 29.8881 110.933 29.6881 110.837 29.5121C110.749 29.3281 110.613 29.1801 110.429 29.0681C110.253 28.9561 110.017 28.9001 109.721 28.9001C109.441 28.9001 109.201 28.9601 109.001 29.0801C108.801 29.1921 108.641 29.3481 108.521 29.5481C108.409 29.7481 108.325 29.9681 108.269 30.2081C108.213 30.4481 108.185 30.6881 108.185 30.9281V34.0001H106.721Z" fill="#909090"/>
<path d="M113.916 34.0001V27.6761H115.284L115.368 28.4801C115.536 28.2561 115.732 28.0801 115.956 27.9521C116.18 27.8241 116.416 27.7321 116.664 27.6761C116.912 27.6121 117.144 27.5801 117.36 27.5801C117.96 27.5801 118.432 27.7121 118.776 27.9761C119.128 28.2401 119.376 28.5921 119.52 29.0321C119.664 29.4721 119.736 29.9641 119.736 30.5081V34.0001H118.272V30.7481C118.272 30.5161 118.256 30.2921 118.224 30.0761C118.192 29.8521 118.128 29.6521 118.032 29.4761C117.944 29.3001 117.816 29.1601 117.648 29.0561C117.48 28.9521 117.256 28.9001 116.976 28.9001C116.632 28.9001 116.34 28.9921 116.1 29.1761C115.86 29.3601 115.68 29.6081 115.56 29.9201C115.44 30.2241 115.38 30.5721 115.38 30.9641V34.0001H113.916Z" fill="#909090"/>
<path d="M123.536 34.0841C123.232 34.0841 122.928 34.0521 122.624 33.9881C122.328 33.9241 122.048 33.8201 121.784 33.6761C121.52 33.5241 121.3 33.3201 121.124 33.0641C120.948 32.8081 120.832 32.4881 120.776 32.1041H122.252C122.316 32.2801 122.416 32.4241 122.552 32.5361C122.696 32.6401 122.86 32.7201 123.044 32.7761C123.236 32.8241 123.424 32.8481 123.608 32.8481C123.72 32.8481 123.84 32.8401 123.968 32.8241C124.104 32.8081 124.228 32.7761 124.34 32.7281C124.46 32.6801 124.556 32.6121 124.628 32.5241C124.7 32.4281 124.736 32.3041 124.736 32.1521C124.736 32.0081 124.696 31.8961 124.616 31.8161C124.536 31.7281 124.428 31.6601 124.292 31.6121C124.156 31.5561 123.992 31.5121 123.8 31.4801C123.456 31.4081 123.088 31.3321 122.696 31.2521C122.304 31.1641 121.964 31.0281 121.676 30.8441C121.556 30.7721 121.452 30.6881 121.364 30.5921C121.276 30.4961 121.2 30.3921 121.136 30.2801C121.08 30.1601 121.036 30.0321 121.004 29.8961C120.98 29.7601 120.968 29.6121 120.968 29.4521C120.968 29.1161 121.036 28.8321 121.172 28.6001C121.316 28.3601 121.504 28.1681 121.736 28.0241C121.976 27.8721 122.248 27.7601 122.552 27.6881C122.856 27.6161 123.168 27.5801 123.488 27.5801C123.92 27.5801 124.312 27.6481 124.664 27.7841C125.016 27.9201 125.308 28.1281 125.54 28.4081C125.78 28.6881 125.924 29.0441 125.972 29.4761H124.58C124.54 29.2761 124.416 29.1161 124.208 28.9961C124.008 28.8761 123.752 28.8161 123.44 28.8161C123.328 28.8161 123.212 28.8281 123.092 28.8521C122.972 28.8681 122.856 28.9001 122.744 28.9481C122.64 28.9881 122.552 29.0521 122.48 29.1401C122.416 29.2281 122.384 29.3361 122.384 29.4641C122.384 29.5841 122.412 29.6881 122.468 29.7761C122.532 29.8641 122.624 29.9401 122.744 30.0041C122.872 30.0601 123.02 30.1081 123.188 30.1481C123.46 30.2041 123.744 30.2601 124.04 30.3161C124.336 30.3721 124.592 30.4281 124.808 30.4841C125.064 30.5561 125.296 30.6601 125.504 30.7961C125.712 30.9241 125.872 31.0961 125.984 31.3121C126.104 31.5201 126.164 31.7881 126.164 32.1161C126.164 32.5001 126.084 32.8201 125.924 33.0761C125.772 33.3321 125.568 33.5321 125.312 33.6761C125.056 33.8201 124.772 33.9241 124.46 33.9881C124.148 34.0521 123.84 34.0841 123.536 34.0841Z" fill="#909090"/>
<path d="M130.132 34.0841C129.484 34.0841 128.924 33.9521 128.452 33.6881C127.988 33.4241 127.628 33.0481 127.372 32.5601C127.124 32.0721 127 31.5001 127 30.8441C127 30.1801 127.128 29.6081 127.384 29.1281C127.64 28.6401 128 28.2601 128.464 27.9881C128.928 27.7161 129.484 27.5801 130.132 27.5801C130.772 27.5801 131.324 27.7161 131.788 27.9881C132.252 28.2601 132.608 28.6441 132.856 29.1401C133.104 29.6281 133.228 30.2041 133.228 30.8681C133.228 31.5161 133.104 32.0841 132.856 32.5721C132.616 33.0521 132.264 33.4241 131.8 33.6881C131.336 33.9521 130.78 34.0841 130.132 34.0841ZM130.12 32.7521C130.52 32.7521 130.84 32.6641 131.08 32.4881C131.328 32.3121 131.508 32.0801 131.62 31.7921C131.732 31.5041 131.788 31.1921 131.788 30.8561C131.788 30.5201 131.732 30.2041 131.62 29.9081C131.508 29.6121 131.328 29.3761 131.08 29.2001C130.84 29.0161 130.52 28.9241 130.12 28.9241C129.72 28.9241 129.396 29.0161 129.148 29.2001C128.9 29.3761 128.72 29.6121 128.608 29.9081C128.496 30.1961 128.44 30.5121 128.44 30.8561C128.44 31.1921 128.496 31.5081 128.608 31.8041C128.728 32.0921 128.908 32.3241 129.148 32.5001C129.396 32.6681 129.72 32.7521 130.12 32.7521Z" fill="#909090"/>
<path d="M134.401 34.0001V27.6761H135.769L135.853 28.4801C136.021 28.2561 136.217 28.0801 136.441 27.9521C136.665 27.8241 136.901 27.7321 137.149 27.6761C137.397 27.6121 137.629 27.5801 137.845 27.5801C138.445 27.5801 138.917 27.7121 139.261 27.9761C139.613 28.2401 139.861 28.5921 140.005 29.0321C140.149 29.4721 140.221 29.9641 140.221 30.5081V34.0001H138.757V30.7481C138.757 30.5161 138.741 30.2921 138.709 30.0761C138.677 29.8521 138.613 29.6521 138.517 29.4761C138.429 29.3001 138.301 29.1601 138.133 29.0561C137.965 28.9521 137.741 28.9001 137.461 28.9001C137.117 28.9001 136.825 28.9921 136.585 29.1761C136.345 29.3601 136.165 29.6081 136.045 29.9201C135.925 30.2241 135.865 30.5721 135.865 30.9641V34.0001H134.401Z" fill="#909090"/>
<rect x="58" y="43" width="97" height="2" rx="1" fill="#4D4D4D"/>
<path opacity="0.3" fill-rule="evenodd" clip-rule="evenodd" d="M35 22C33.2928 22 31.6024 22.3363 30.0251 22.9896C28.4479 23.6429 27.0148 24.6004 25.8076 25.8076C24.6005 27.0148 23.6429 28.4479 22.9896 30.0251C22.3363 31.6023 22 33.2928 22 35C22 36.7072 22.3363 38.3976 22.9896 39.9749C23.6429 41.5521 24.6004 42.9852 25.8076 44.1924C27.0148 45.3995 28.4479 46.3571 30.0251 47.0104C31.6023 47.6637 33.2928 48 35 48C36.7072 48 38.3976 47.6637 39.9749 47.0104C41.5521 46.3571 42.9852 45.3996 44.1924 44.1924C45.3995 42.9852 46.3571 41.5521 47.0104 39.9749C47.6637 38.3977 48 36.7072 48 35C48 33.2928 47.6637 31.6024 47.0104 30.0251C46.3571 28.4479 45.3996 27.0148 44.1924 25.8076C42.9852 24.6005 41.5521 23.6429 39.9749 22.9896C38.3977 22.3363 36.7072 22 35 22ZM29.2598 21.1418C31.0796 20.388 33.0302 20 35 20C36.9698 20 38.9204 20.388 40.7403 21.1418C42.5601 21.8956 44.2137 23.0005 45.6066 24.3934C46.9995 25.7863 48.1044 27.4399 48.8582 29.2598C49.612 31.0796 50 33.0302 50 35C50 36.9698 49.612 38.9204 48.8582 40.7403C48.1044 42.5601 46.9995 44.2137 45.6066 45.6066C44.2137 46.9995 42.5601 48.1044 40.7402 48.8582C38.9204 49.612 36.9698 50 35 50C33.0302 50 31.0796 49.612 29.2597 48.8582C27.4399 48.1044 25.7863 46.9995 24.3934 45.6066C23.0005 44.2137 21.8956 42.5601 21.1418 40.7402C20.388 38.9204 20 36.9698 20 35C20 33.0302 20.388 31.0796 21.1418 29.2597C21.8956 27.4399 23.0005 25.7863 24.3934 24.3934C25.7863 23.0005 27.4399 21.8956 29.2598 21.1418Z" fill="#86B457"/>
<path fill-rule="evenodd" clip-rule="evenodd" d="M34 21C34 20.4477 34.4477 20 35 20C38.6121 20 42.1028 21.3034 44.831 23.6708C47.5591 26.0381 49.3414 29.3104 49.8503 32.8865C50.3593 36.4625 49.5607 40.1021 47.6014 43.1366C45.642 46.1711 42.6535 48.3967 39.1848 49.4044C35.7162 50.4121 32.0004 50.1344 28.7201 48.6221C25.4398 47.1099 22.8154 44.4648 21.329 41.1727C19.8425 37.8806 19.594 34.1628 20.6289 30.7021C21.6639 27.2415 23.9128 24.2705 26.9626 22.3351C27.4289 22.0391 28.0468 22.1773 28.3428 22.6436C28.6387 23.1099 28.5006 23.7278 28.0343 24.0237C25.3911 25.7011 23.442 28.276 22.5451 31.2752C21.6481 34.2744 21.8635 37.4966 23.1518 40.3497C24.44 43.2028 26.7145 45.4952 29.5574 46.8059C32.4003 48.1165 35.6207 48.3572 38.6269 47.4838C41.633 46.6104 44.2231 44.6816 45.9212 42.0517C47.6193 39.4218 48.3114 36.2675 47.8703 33.1683C47.4292 30.069 45.8846 27.233 43.5202 25.1813C41.1558 23.1296 38.1305 22 35 22C34.4477 22 34 21.5523 34 21Z" fill="#86B457"/>
<path d="M32.9671 39.0962C32.5111 39.0962 32.0791 39.0202 31.6711 38.8682C31.2711 38.7082 30.9311 38.4682 30.6511 38.1482C30.3711 37.8282 30.1871 37.4282 30.0991 36.9482H31.5991C31.7111 37.2042 31.9031 37.4002 32.1751 37.5362C32.4551 37.6642 32.7471 37.7282 33.0511 37.7282C33.4191 37.7282 33.7231 37.6562 33.9631 37.5122C34.2111 37.3602 34.4071 37.1602 34.5511 36.9122C34.7031 36.6562 34.8111 36.3762 34.8751 36.0722C34.9391 35.7602 34.9711 35.4442 34.9711 35.1242C34.9711 35.0842 34.9711 35.0442 34.9711 35.0042C34.9711 34.9642 34.9711 34.9282 34.9711 34.8962C34.8031 35.1762 34.5951 35.3962 34.3471 35.5562C34.0991 35.7082 33.8351 35.8202 33.5551 35.8922C33.2751 35.9562 33.0031 35.9882 32.7391 35.9882C32.2351 35.9882 31.7791 35.8842 31.3711 35.6762C30.9631 35.4682 30.6391 35.1642 30.3991 34.7642C30.1591 34.3562 30.0391 33.8682 30.0391 33.3002C30.0391 32.6922 30.1751 32.1722 30.4471 31.7402C30.7191 31.3082 31.0871 30.9802 31.5511 30.7562C32.0231 30.5242 32.5471 30.4082 33.1231 30.4082C33.7471 30.4082 34.2671 30.5362 34.6831 30.7922C35.0991 31.0482 35.4311 31.3922 35.6791 31.8242C35.9271 32.2482 36.1031 32.7202 36.2071 33.2402C36.3111 33.7602 36.3631 34.2882 36.3631 34.8242C36.3631 35.4162 36.2991 35.9722 36.1711 36.4922C36.0511 37.0042 35.8551 37.4562 35.5831 37.8482C35.3191 38.2402 34.9711 38.5482 34.5391 38.7722C34.1071 38.9882 33.5831 39.0962 32.9671 39.0962ZM33.0511 34.7042C33.3631 34.7042 33.6351 34.6402 33.8671 34.5122C34.1071 34.3762 34.2911 34.2002 34.4191 33.9842C34.5471 33.7602 34.6071 33.5202 34.5991 33.2642C34.5991 32.9602 34.5311 32.7002 34.3951 32.4842C34.2671 32.2602 34.0871 32.0842 33.8551 31.9562C33.6231 31.8282 33.3631 31.7642 33.0751 31.7642C32.7631 31.7642 32.4911 31.8322 32.2591 31.9682C32.0351 32.1042 31.8591 32.2842 31.7311 32.5082C31.6031 32.7322 31.5391 32.9722 31.5391 33.2282C31.5391 33.6682 31.6711 34.0242 31.9351 34.2962C32.1991 34.5682 32.5711 34.7042 33.0511 34.7042Z" fill="#909090"/>
<path d="M38.8242 39.0002V32.5802H37.1442V31.4882C37.4722 31.4722 37.7642 31.4362 38.0202 31.3802C38.2762 31.3242 38.5042 31.2282 38.7042 31.0922C38.9122 30.9562 39.0962 30.7642 39.2562 30.5162H40.3242V39.0002H38.8242Z" fill="#909090"/>
<rect x="20.5" y="58.5" width="209" height="91" rx="3.5" fill="#373737" vector-effect="non-scaling-stroke" stroke="#3D3D3D"/>
<path d="M115 94.1333V114C115 115.067 115.933 116 117.133 116C117.533 116 117.933 115.867 118.2 115.733L133.933 106.133C134.6 105.733 135.133 104.933 135.133 104.133C135.133 103.333 134.733 102.533 133.933 102.133L118.2 92.2667C117.8 92.1333 117.4 92 117.133 92C115.933 92 115 92.9333 115 94.1333Z" fill="#4D4D4D"/>
<rect x="21" y="166" width="41" height="2" rx="1" fill="#4D4D4D"/>
<rect opacity="0.3" x="21" y="172" width="50" height="4" rx="2" fill="#86B457"/>
<rect x="21" y="172" width="44" height="4" rx="2" fill="#86B457"/>
<rect x="98" y="166" width="41" height="2" rx="1" fill="#4D4D4D"/>
<rect opacity="0.3" x="98" y="172" width="50" height="4" rx="2" fill="#F2B848"/>
<rect x="98" y="172" width="27" height="4" rx="2" fill="#F2B848"/>
<rect x="175" y="166" width="41" height="2" rx="1" fill="#4D4D4D"/>
<rect opacity="0.3" x="175" y="172" width="50" height="4" rx="2" fill="#F24848"/>
<rect x="175" y="172" width="12" height="4" rx="2" fill="#F24848"/>
<rect x="20.5" y="192.5" width="209" height="35" rx="3.5" fill="#373737" vector-effect="non-scaling-stroke" stroke="#3D3D3D"/>
<path opacity="0.3" fill-rule="evenodd" clip-rule="evenodd" d="M38 202C36.9494 202 35.9091 202.207 34.9385 202.609C33.9679 203.011 33.086 203.6 32.3431 204.343C31.6003 205.086 31.011 205.968 30.609 206.939C30.2069 207.909 30 208.949 30 210C30 211.051 30.2069 212.091 30.609 213.061C31.011 214.032 31.6003 214.914 32.3431 215.657C33.086 216.4 33.9679 216.989 34.9385 217.391C35.9091 217.793 36.9494 218 38 218C39.0506 218 40.0909 217.793 41.0615 217.391C42.0321 216.989 42.914 216.4 43.6569 215.657C44.3997 214.914 44.989 214.032 45.391 213.061C45.7931 212.091 46 211.051 46 210C46 208.949 45.7931 207.909 45.391 206.939C44.989 205.968 44.3997 205.086 43.6569 204.343C42.914 203.6 42.0321 203.011 41.0615 202.609C40.0909 202.207 39.0506 202 38 202ZM34.1732 200.761C35.3864 200.259 36.6868 200 38 200C39.3132 200 40.6136 200.259 41.8268 200.761C43.0401 201.264 44.1425 202 45.0711 202.929C45.9997 203.858 46.7362 204.96 47.2388 206.173C47.7413 207.386 48 208.687 48 210C48 211.313 47.7413 212.614 47.2388 213.827C46.7362 215.04 45.9997 216.142 45.0711 217.071C44.1425 218 43.0401 218.736 41.8268 219.239C40.6136 219.741 39.3132 220 38 220C36.6868 220 35.3864 219.741 34.1732 219.239C32.9599 218.736 31.8575 218 30.9289 217.071C30.0003 216.142 29.2637 215.04 28.7612 213.827C28.2587 212.614 28 211.313 28 210C28 208.687 28.2587 207.386 28.7612 206.173C29.2638 204.96 30.0003 203.858 30.9289 202.929C31.8575 202 32.9599 201.264 34.1732 200.761Z" fill="#86B457"/>
<path fill-rule="evenodd" clip-rule="evenodd" d="M37 201C37 200.448 37.4477 200 38 200C40.2462 200 42.427 200.756 44.1909 202.147C45.9549 203.537 47.1993 205.481 47.7237 207.666C48.2481 209.85 48.0218 212.147 47.0814 214.187C46.141 216.226 44.5413 217.89 42.5399 218.91C40.5385 219.93 38.2521 220.246 36.0491 219.808C33.8461 219.37 31.8547 218.202 30.3959 216.494C28.9372 214.786 28.0959 212.637 28.0077 210.393C27.9195 208.148 28.5896 205.939 29.9098 204.122C30.2345 203.675 30.8598 203.576 31.3066 203.901C31.7534 204.226 31.8525 204.851 31.5279 205.298C30.4716 206.751 29.9356 208.519 30.0062 210.314C30.0767 212.11 30.7497 213.829 31.9168 215.196C33.0838 216.562 34.6769 217.496 36.4393 217.846C38.2017 218.197 40.0308 217.944 41.6319 217.128C43.233 216.312 44.5128 214.981 45.2651 213.349C46.0174 211.717 46.1984 209.88 45.779 208.132C45.3595 206.385 44.3639 204.83 42.9527 203.717C41.5416 202.605 39.7969 202 38 202C37.4477 202 37 201.552 37 201Z" fill="#86B457"/>
<rect x="57" y="212" width="97" height="2" rx="1" fill="#4D4D4D"/>
<rect x="57" y="206" width="57" height="2" rx="1" fill="#4D4D4D"/>
<rect x="20.5" y="232.5" width="209" height="35" rx="3.5" fill="#373737" vector-effect="non-scaling-stroke" stroke="#3D3D3D"/>
<path opacity="0.3" fill-rule="evenodd" clip-rule="evenodd" d="M38 242C36.9494 242 35.9091 242.207 34.9385 242.609C33.9679 243.011 33.086 243.6 32.3431 244.343C31.6003 245.086 31.011 245.968 30.609 246.939C30.2069 247.909 30 248.949 30 250C30 251.051 30.2069 252.091 30.609 253.061C31.011 254.032 31.6003 254.914 32.3431 255.657C33.086 256.4 33.9679 256.989 34.9385 257.391C35.9091 257.793 36.9494 258 38 258C39.0506 258 40.0909 257.793 41.0615 257.391C42.0321 256.989 42.914 256.4 43.6569 255.657C44.3997 254.914 44.989 254.032 45.391 253.061C45.7931 252.091 46 251.051 46 250C46 248.949 45.7931 247.909 45.391 246.939C44.989 245.968 44.3997 245.086 43.6569 244.343C42.914 243.6 42.0321 243.011 41.0615 242.609C40.0909 242.207 39.0506 242 38 242ZM34.1732 240.761C35.3864 240.259 36.6868 240 38 240C39.3132 240 40.6136 240.259 41.8268 240.761C43.0401 241.264 44.1425 242 45.0711 242.929C45.9997 243.858 46.7362 244.96 47.2388 246.173C47.7413 247.386 48 248.687 48 250C48 251.313 47.7413 252.614 47.2388 253.827C46.7362 255.04 45.9997 256.142 45.0711 257.071C44.1425 258 43.0401 258.736 41.8268 259.239C40.6136 259.741 39.3132 260 38 260C36.6868 260 35.3864 259.741 34.1732 259.239C32.9599 258.736 31.8575 258 30.9289 257.071C30.0003 256.142 29.2637 255.04 28.7612 253.827C28.2587 252.614 28 251.313 28 250C28 248.687 28.2587 247.386 28.7612 246.173C29.2638 244.96 30.0003 243.858 30.9289 242.929C31.8575 242 32.9599 241.264 34.1732 240.761Z" fill="#F2B848"/>
<path fill-rule="evenodd" clip-rule="evenodd" d="M37 241C37 240.448 37.4477 240 38 240C39.3132 240 40.6136 240.259 41.8268 240.761C43.0401 241.264 44.1425 242 45.0711 242.929C45.9997 243.858 46.7363 244.96 47.2388 246.173C47.7413 247.386 48 248.687 48 250C48 251.313 47.7413 252.614 47.2388 253.827C46.7363 255.04 45.9997 256.142 45.0711 257.071C44.1425 258 43.0401 258.736 41.8268 259.239C40.6136 259.741 39.3132 260 38 260C37.4477 260 37 259.552 37 259C37 258.448 37.4477 258 38 258C39.0506 258 40.0909 257.793 41.0615 257.391C42.0321 256.989 42.914 256.4 43.6569 255.657C44.3997 254.914 44.989 254.032 45.391 253.061C45.7931 252.091 46 251.051 46 250C46 248.949 45.7931 247.909 45.391 246.939C44.989 245.968 44.3997 245.086 43.6569 244.343C42.914 243.6 42.0321 243.011 41.0615 242.609C40.0909 242.207 39.0506 242 38 242C37.4477 242 37 241.552 37 241Z" fill="#F2B848"/>
<rect x="57" y="246" width="57" height="2" rx="1" fill="#4D4D4D"/>
</g>
<defs>
<clipPath id="clip0_1815_39090">
<rect width="250" height="250" fill="white"/>
</clipPath>
</defs>
</svg>
