<svg width="250" height="250" viewBox="0 0 250 250" fill="none" xmlns="http://www.w3.org/2000/svg">
<g clip-path="url(#clip0_1815_39064)">
<rect width="250" height="250" fill="#2C2C2C"/>
<path d="M20.9492 33.0001V24.5161H24.1412C24.7812 24.5161 25.3332 24.6161 25.7972 24.8161C26.2692 25.0081 26.6332 25.3161 26.8892 25.7401C27.1532 26.1641 27.2852 26.7201 27.2852 27.4081C27.2852 28.0641 27.1412 28.6121 26.8532 29.0521C26.5652 29.4921 26.1732 29.8241 25.6772 30.0481C25.1812 30.2641 24.6132 30.3721 23.9732 30.3721H22.4492V33.0001H20.9492ZM22.4492 29.0281H23.9492C24.5012 29.0281 24.9452 28.8961 25.2812 28.6321C25.6172 28.3681 25.7852 27.9521 25.7852 27.3841C25.7852 26.8881 25.6452 26.5161 25.3652 26.2681C25.0852 26.0121 24.6532 25.8841 24.0692 25.8841H22.4492V29.0281Z" fill="#909090"/>
<path d="M28.467 33.0001V26.6761H29.799L29.883 27.5041C30.043 27.2641 30.223 27.0801 30.423 26.9521C30.631 26.8161 30.851 26.7201 31.083 26.6641C31.323 26.6081 31.563 26.5801 31.803 26.5801C31.891 26.5801 31.971 26.5801 32.043 26.5801C32.123 26.5801 32.187 26.5841 32.235 26.5921V27.9841H31.851C31.435 27.9841 31.083 28.0641 30.795 28.2241C30.507 28.3841 30.291 28.6121 30.147 28.9081C30.003 29.2041 29.931 29.5681 29.931 30.0001V33.0001H28.467Z" fill="#909090"/>
<path d="M35.8708 33.0841C35.2228 33.0841 34.6628 32.9521 34.1908 32.6881C33.7268 32.4241 33.3668 32.0481 33.1108 31.5601C32.8628 31.0721 32.7387 30.5001 32.7387 29.8441C32.7387 29.1801 32.8668 28.6081 33.1228 28.1281C33.3788 27.6401 33.7388 27.2601 34.2028 26.9881C34.6668 26.7161 35.2228 26.5801 35.8708 26.5801C36.5108 26.5801 37.0628 26.7161 37.5268 26.9881C37.9908 27.2601 38.3467 27.6441 38.5947 28.1401C38.8427 28.6281 38.9668 29.2041 38.9668 29.8681C38.9668 30.5161 38.8427 31.0841 38.5947 31.5721C38.3547 32.0521 38.0027 32.4241 37.5387 32.6881C37.0747 32.9521 36.5188 33.0841 35.8708 33.0841ZM35.8588 31.7521C36.2588 31.7521 36.5788 31.6641 36.8188 31.4881C37.0668 31.3121 37.2467 31.0801 37.3587 30.7921C37.4707 30.5041 37.5268 30.1921 37.5268 29.8561C37.5268 29.5201 37.4707 29.2041 37.3587 28.9081C37.2467 28.6121 37.0668 28.3761 36.8188 28.2001C36.5788 28.0161 36.2588 27.9241 35.8588 27.9241C35.4588 27.9241 35.1348 28.0161 34.8868 28.2001C34.6388 28.3761 34.4588 28.6121 34.3468 28.9081C34.2348 29.1961 34.1788 29.5121 34.1788 29.8561C34.1788 30.1921 34.2348 30.5081 34.3468 30.8041C34.4668 31.0921 34.6468 31.3241 34.8868 31.5001C35.1348 31.6681 35.4588 31.7521 35.8588 31.7521Z" fill="#909090"/>
<path d="M42.7189 33.0841C42.0789 33.0841 41.5509 32.9401 41.1349 32.6521C40.7189 32.3561 40.4069 31.9641 40.1989 31.4761C39.9989 30.9881 39.8989 30.4441 39.8989 29.8441C39.8989 29.2201 40.0069 28.6641 40.2229 28.1761C40.4389 27.6801 40.7629 27.2921 41.1949 27.0121C41.6269 26.7241 42.1669 26.5801 42.8149 26.5801C43.0549 26.5801 43.2869 26.6081 43.5109 26.6641C43.7429 26.7121 43.9589 26.7921 44.1589 26.9041C44.3669 27.0081 44.5389 27.1481 44.6749 27.3241V24.5161H46.1389V33.0001H44.7229L44.6989 32.2081C44.5469 32.4081 44.3669 32.5721 44.1589 32.7001C43.9589 32.8281 43.7349 32.9241 43.4869 32.9881C43.2389 33.0521 42.9829 33.0841 42.7189 33.0841ZM42.9949 31.7641C43.3789 31.7641 43.6949 31.6761 43.9429 31.5001C44.1909 31.3161 44.3749 31.0761 44.4949 30.7801C44.6229 30.4761 44.6869 30.1561 44.6869 29.8201C44.6869 29.4681 44.6229 29.1481 44.4949 28.8601C44.3749 28.5721 44.1909 28.3401 43.9429 28.1641C43.6949 27.9881 43.3789 27.9001 42.9949 27.9001C42.5869 27.9001 42.2629 27.9921 42.0229 28.1761C41.7909 28.3601 41.6189 28.6041 41.5069 28.9081C41.4029 29.2041 41.3509 29.5241 41.3509 29.8681C41.3509 30.1241 41.3789 30.3681 41.4349 30.6001C41.4989 30.8241 41.5949 31.0241 41.7229 31.2001C41.8509 31.3761 42.0189 31.5161 42.2269 31.6201C42.4349 31.7161 42.6909 31.7641 42.9949 31.7641Z" fill="#909090"/>
<path d="M50.3529 33.0841C49.4409 33.0841 48.7409 32.8481 48.2529 32.3761C47.7729 31.9041 47.5329 31.1841 47.5329 30.2161V26.6761H48.9969V30.1201C48.9969 30.4561 49.0409 30.7481 49.1289 30.9961C49.2249 31.2441 49.3729 31.4361 49.5729 31.5721C49.7809 31.7001 50.0409 31.7641 50.3529 31.7641C50.6889 31.7641 50.9529 31.6961 51.1449 31.5601C51.3449 31.4161 51.4849 31.2201 51.5649 30.9721C51.6449 30.7241 51.6849 30.4401 51.6849 30.1201V26.6761H53.1489V30.2161C53.1489 31.2081 52.9009 31.9361 52.4049 32.4001C51.9169 32.8561 51.2329 33.0841 50.3529 33.0841Z" fill="#909090"/>
<path d="M57.3252 33.0841C56.6692 33.0841 56.1173 32.9521 55.6693 32.6881C55.2213 32.4161 54.8813 32.0361 54.6493 31.5481C54.4173 31.0601 54.3013 30.4961 54.3013 29.8561C54.3013 29.2161 54.4213 28.6521 54.6613 28.1641C54.9013 27.6681 55.2533 27.2801 55.7173 27.0001C56.1813 26.7201 56.7452 26.5801 57.4092 26.5801C57.8972 26.5801 58.3292 26.6641 58.7052 26.8321C59.0892 27.0001 59.3972 27.2481 59.6292 27.5761C59.8692 27.8961 60.0213 28.2961 60.0853 28.7761H58.6452C58.5492 28.4721 58.3892 28.2521 58.1652 28.1161C57.9492 27.9721 57.6893 27.9001 57.3853 27.9001C56.9773 27.9001 56.6532 28.0001 56.4132 28.2001C56.1812 28.3921 56.0132 28.6361 55.9092 28.9321C55.8052 29.2281 55.7533 29.5361 55.7533 29.8561C55.7533 30.1921 55.8092 30.5081 55.9212 30.8041C56.0332 31.0921 56.2052 31.3241 56.4372 31.5001C56.6772 31.6761 56.9853 31.7641 57.3613 31.7641C57.6653 31.7641 57.9372 31.6961 58.1772 31.5601C58.4252 31.4241 58.5852 31.2041 58.6572 30.9001H60.1452C60.0892 31.3881 59.9253 31.7961 59.6533 32.1241C59.3893 32.4441 59.0532 32.6841 58.6452 32.8441C58.2372 33.0041 57.7972 33.0841 57.3252 33.0841Z" fill="#909090"/>
<path d="M63.7644 33.0721C63.0684 33.0721 62.5604 32.8801 62.2404 32.4961C61.9204 32.1121 61.7604 31.5801 61.7604 30.9001V27.9721H60.7884V26.6761H61.7604V24.9001H63.2244V26.6761H65.1444V27.9721H63.2244V30.6241C63.2244 30.8321 63.2484 31.0201 63.2964 31.1881C63.3444 31.3561 63.4324 31.4881 63.5604 31.5841C63.6884 31.6801 63.8644 31.7321 64.0884 31.7401C64.2804 31.7401 64.4444 31.7081 64.5804 31.6441C64.7164 31.5801 64.8284 31.5081 64.9164 31.4281L65.4084 32.5441C65.2564 32.6721 65.0844 32.7761 64.8924 32.8561C64.7084 32.9361 64.5204 32.9921 64.3284 33.0241C64.1364 33.0561 63.9484 33.0721 63.7644 33.0721Z" fill="#909090"/>
<path d="M69.7812 33.0001V24.5161H72.9132C73.8013 24.5161 74.5533 24.6881 75.1693 25.0321C75.7853 25.3681 76.2532 25.8561 76.5732 26.4961C76.9012 27.1281 77.0653 27.8881 77.0653 28.7761C77.0653 29.6481 76.9053 30.4001 76.5853 31.0321C76.2733 31.6641 75.8092 32.1521 75.1932 32.4961C74.5772 32.8321 73.8213 33.0001 72.9253 33.0001H69.7812ZM71.2812 31.6321H72.8893C73.5213 31.6321 74.0292 31.5121 74.4132 31.2721C74.8052 31.0241 75.0893 30.6881 75.2653 30.2641C75.4493 29.8321 75.5412 29.3321 75.5412 28.7641C75.5412 28.2121 75.4532 27.7201 75.2772 27.2881C75.1012 26.8561 74.8173 26.5161 74.4253 26.2681C74.0413 26.0121 73.5332 25.8841 72.9012 25.8841H71.2812V31.6321Z" fill="#909090"/>
<path d="M81.092 33.0841C80.436 33.0841 79.876 32.9481 79.412 32.6761C78.956 32.4041 78.608 32.0281 78.368 31.5481C78.136 31.0601 78.02 30.4961 78.02 29.8561C78.02 29.2161 78.14 28.6521 78.38 28.1641C78.628 27.6681 78.98 27.2801 79.436 27.0001C79.9 26.7201 80.456 26.5801 81.104 26.5801C81.584 26.5801 82.004 26.6681 82.364 26.8441C82.724 27.0121 83.024 27.2441 83.264 27.5401C83.512 27.8361 83.696 28.1721 83.816 28.5481C83.936 28.9241 83.992 29.3201 83.984 29.7361C83.976 29.8321 83.968 29.9281 83.96 30.0241C83.952 30.1121 83.94 30.2081 83.924 30.3121H79.484C79.508 30.5921 79.58 30.8481 79.7 31.0801C79.828 31.3121 80.004 31.4961 80.228 31.6321C80.46 31.7681 80.748 31.8361 81.092 31.8361C81.292 31.8361 81.484 31.8121 81.668 31.7641C81.852 31.7081 82.012 31.6281 82.148 31.5241C82.292 31.4201 82.388 31.2881 82.436 31.1281H83.9C83.796 31.5841 83.604 31.9561 83.324 32.2441C83.044 32.5321 82.708 32.7441 82.316 32.8801C81.932 33.0161 81.524 33.0841 81.092 33.0841ZM79.508 29.2201H82.556C82.556 28.9561 82.496 28.7161 82.376 28.5001C82.256 28.2841 82.084 28.1161 81.86 27.9961C81.644 27.8681 81.38 27.8041 81.068 27.8041C80.732 27.8041 80.452 27.8721 80.228 28.0081C80.004 28.1441 79.832 28.3201 79.712 28.5361C79.592 28.7521 79.524 28.9801 79.508 29.2201Z" fill="#909090"/>
<path d="M87.5746 33.0841C87.2706 33.0841 86.9666 33.0521 86.6626 32.9881C86.3666 32.9241 86.0866 32.8201 85.8226 32.6761C85.5586 32.5241 85.3386 32.3201 85.1626 32.0641C84.9866 31.8081 84.8706 31.4881 84.8146 31.1041H86.2906C86.3546 31.2801 86.4546 31.4241 86.5906 31.5361C86.7346 31.6401 86.8986 31.7201 87.0826 31.7761C87.2746 31.8241 87.4626 31.8481 87.6466 31.8481C87.7586 31.8481 87.8786 31.8401 88.0066 31.8241C88.1426 31.8081 88.2666 31.7761 88.3786 31.7281C88.4986 31.6801 88.5946 31.6121 88.6666 31.5241C88.7386 31.4281 88.7746 31.3041 88.7746 31.1521C88.7746 31.0081 88.7346 30.8961 88.6546 30.8161C88.5746 30.7281 88.4666 30.6601 88.3306 30.6121C88.1946 30.5561 88.0306 30.5121 87.8386 30.4801C87.4946 30.4081 87.1266 30.3321 86.7346 30.2521C86.3426 30.1641 86.0026 30.0281 85.7146 29.8441C85.5946 29.7721 85.4906 29.6881 85.4026 29.5921C85.3146 29.4961 85.2386 29.3921 85.1746 29.2801C85.1186 29.1601 85.0746 29.0321 85.0426 28.8961C85.0186 28.7601 85.0066 28.6121 85.0066 28.4521C85.0066 28.1161 85.0746 27.8321 85.2106 27.6001C85.3546 27.3601 85.5426 27.1681 85.7746 27.0241C86.0146 26.8721 86.2866 26.7601 86.5906 26.6881C86.8946 26.6161 87.2066 26.5801 87.5266 26.5801C87.9586 26.5801 88.3506 26.6481 88.7026 26.7841C89.0546 26.9201 89.3466 27.1281 89.5786 27.4081C89.8186 27.6881 89.9626 28.0441 90.0106 28.4761H88.6186C88.5786 28.2761 88.4546 28.1161 88.2466 27.9961C88.0466 27.8761 87.7906 27.8161 87.4786 27.8161C87.3666 27.8161 87.2506 27.8281 87.1306 27.8521C87.0106 27.8681 86.8946 27.9001 86.7826 27.9481C86.6786 27.9881 86.5906 28.0521 86.5186 28.1401C86.4546 28.2281 86.4226 28.3361 86.4226 28.4641C86.4226 28.5841 86.4506 28.6881 86.5066 28.7761C86.5706 28.8641 86.6626 28.9401 86.7826 29.0041C86.9106 29.0601 87.0586 29.1081 87.2266 29.1481C87.4986 29.2041 87.7826 29.2601 88.0786 29.3161C88.3746 29.3721 88.6306 29.4281 88.8466 29.4841C89.1026 29.5561 89.3346 29.6601 89.5426 29.7961C89.7506 29.9241 89.9106 30.0961 90.0226 30.3121C90.1426 30.5201 90.2026 30.7881 90.2026 31.1161C90.2026 31.5001 90.1226 31.8201 89.9626 32.0761C89.8106 32.3321 89.6066 32.5321 89.3506 32.6761C89.0946 32.8201 88.8106 32.9241 88.4986 32.9881C88.1866 33.0521 87.8786 33.0841 87.5746 33.0841Z" fill="#909090"/>
<path d="M91.2795 33.0001V26.6761H92.7435V33.0001H91.2795ZM92.0115 25.9441C91.7315 25.9441 91.5075 25.8601 91.3395 25.6921C91.1715 25.5241 91.0875 25.3041 91.0875 25.0321C91.0875 24.7681 91.1755 24.5521 91.3515 24.3841C91.5275 24.2081 91.7475 24.1201 92.0115 24.1201C92.2675 24.1201 92.4875 24.2041 92.6715 24.3721C92.8555 24.5401 92.9475 24.7601 92.9475 25.0321C92.9475 25.3041 92.8595 25.5241 92.6835 25.6921C92.5075 25.8601 92.2835 25.9441 92.0115 25.9441Z" fill="#909090"/>
<path d="M97.1023 35.8921C96.6383 35.8921 96.2023 35.8161 95.7943 35.6641C95.3943 35.5201 95.0543 35.2881 94.7743 34.9681C94.5023 34.6561 94.3183 34.2521 94.2223 33.7561H95.7223C95.7703 33.9481 95.8663 34.1041 96.0103 34.2241C96.1543 34.3441 96.3223 34.4281 96.5143 34.4761C96.7143 34.5321 96.9183 34.5601 97.1263 34.5601C97.5183 34.5601 97.8263 34.4801 98.0503 34.3201C98.2823 34.1601 98.4463 33.9401 98.5423 33.6601C98.6383 33.3881 98.6863 33.0881 98.6863 32.7601V32.1601C98.5423 32.3921 98.3583 32.5761 98.1343 32.7121C97.9183 32.8481 97.6863 32.9441 97.4383 33.0001C97.1983 33.0481 96.9583 33.0721 96.7183 33.0721C96.0623 33.0721 95.5263 32.9281 95.1103 32.6401C94.7023 32.3521 94.4023 31.9681 94.2103 31.4881C94.0183 31.0001 93.9223 30.4641 93.9223 29.8801C93.9223 29.2721 94.0263 28.7201 94.2343 28.2241C94.4503 27.7201 94.7703 27.3201 95.1943 27.0241C95.6263 26.7281 96.1663 26.5801 96.8143 26.5801C97.1903 26.5801 97.5423 26.6481 97.8703 26.7841C98.2063 26.9121 98.4863 27.1081 98.7103 27.3721L98.8063 26.6761H100.162V32.4481C100.162 33.1601 100.058 33.7721 99.8503 34.2841C99.6503 34.8041 99.3263 35.2001 98.8783 35.4721C98.4303 35.7521 97.8383 35.8921 97.1023 35.8921ZM97.0183 31.7761C97.3943 31.7761 97.7063 31.6881 97.9543 31.5121C98.2023 31.3281 98.3903 31.0881 98.5183 30.7921C98.6463 30.4881 98.7103 30.1601 98.7103 29.8081C98.7103 29.4481 98.6463 29.1241 98.5183 28.8361C98.3983 28.5481 98.2143 28.3201 97.9663 28.1521C97.7263 27.9841 97.4143 27.9001 97.0303 27.9001C96.6223 27.9001 96.2983 27.9921 96.0583 28.1761C95.8183 28.3601 95.6423 28.6041 95.5303 28.9081C95.4263 29.2041 95.3743 29.5201 95.3743 29.8561C95.3743 30.2081 95.4303 30.5321 95.5423 30.8281C95.6543 31.1161 95.8303 31.3481 96.0703 31.5241C96.3103 31.6921 96.6263 31.7761 97.0183 31.7761Z" fill="#909090"/>
<path d="M101.58 33.0001V26.6761H102.948L103.032 27.4801C103.2 27.2561 103.396 27.0801 103.62 26.9521C103.844 26.8241 104.08 26.7321 104.328 26.6761C104.576 26.6121 104.808 26.5801 105.024 26.5801C105.624 26.5801 106.096 26.7121 106.44 26.9761C106.792 27.2401 107.04 27.5921 107.184 28.0321C107.328 28.4721 107.4 28.9641 107.4 29.5081V33.0001H105.936V29.7481C105.936 29.5161 105.92 29.2921 105.888 29.0761C105.856 28.8521 105.792 28.6521 105.696 28.4761C105.608 28.3001 105.48 28.1601 105.312 28.0561C105.144 27.9521 104.92 27.9001 104.64 27.9001C104.296 27.9001 104.004 27.9921 103.764 28.1761C103.524 28.3601 103.344 28.6081 103.224 28.9201C103.104 29.2241 103.044 29.5721 103.044 29.9641V33.0001H101.58Z" fill="#909090"/>
<path d="M111.608 33.0841C110.952 33.0841 110.392 32.9481 109.928 32.6761C109.472 32.4041 109.124 32.0281 108.884 31.5481C108.652 31.0601 108.536 30.4961 108.536 29.8561C108.536 29.2161 108.656 28.6521 108.896 28.1641C109.144 27.6681 109.496 27.2801 109.952 27.0001C110.416 26.7201 110.972 26.5801 111.62 26.5801C112.1 26.5801 112.52 26.6681 112.88 26.8441C113.24 27.0121 113.54 27.2441 113.78 27.5401C114.028 27.8361 114.212 28.1721 114.332 28.5481C114.452 28.9241 114.508 29.3201 114.5 29.7361C114.492 29.8321 114.484 29.9281 114.476 30.0241C114.468 30.1121 114.456 30.2081 114.44 30.3121H110C110.024 30.5921 110.096 30.8481 110.216 31.0801C110.344 31.3121 110.52 31.4961 110.744 31.6321C110.976 31.7681 111.264 31.8361 111.608 31.8361C111.808 31.8361 112 31.8121 112.184 31.7641C112.368 31.7081 112.528 31.6281 112.664 31.5241C112.808 31.4201 112.904 31.2881 112.952 31.1281H114.416C114.312 31.5841 114.12 31.9561 113.84 32.2441C113.56 32.5321 113.224 32.7441 112.832 32.8801C112.448 33.0161 112.04 33.0841 111.608 33.0841ZM110.024 29.2201H113.072C113.072 28.9561 113.012 28.7161 112.892 28.5001C112.772 28.2841 112.6 28.1161 112.376 27.9961C112.16 27.8681 111.896 27.8041 111.584 27.8041C111.248 27.8041 110.968 27.8721 110.744 28.0081C110.52 28.1441 110.348 28.3201 110.228 28.5361C110.108 28.7521 110.04 28.9801 110.024 29.2201Z" fill="#909090"/>
<path d="M115.666 33.0001V26.6761H116.998L117.082 27.5041C117.242 27.2641 117.422 27.0801 117.622 26.9521C117.83 26.8161 118.05 26.7201 118.282 26.6641C118.522 26.6081 118.762 26.5801 119.002 26.5801C119.09 26.5801 119.17 26.5801 119.242 26.5801C119.322 26.5801 119.386 26.5841 119.434 26.5921V27.9841H119.05C118.634 27.9841 118.282 28.0641 117.994 28.2241C117.706 28.3841 117.49 28.6121 117.346 28.9081C117.202 29.2041 117.13 29.5681 117.13 30.0001V33.0001H115.666Z" fill="#909090"/>
<rect x="20.5" y="58.5" width="209" height="45" rx="3.5" fill="#373737" vector-effect="non-scaling-stroke" stroke="#3D3D3D"/>
<path opacity="0.3" fill-rule="evenodd" clip-rule="evenodd" d="M43 68C41.2928 68 39.6024 68.3363 38.0251 68.9896C36.4479 69.6429 35.0148 70.6004 33.8076 71.8076C32.6005 73.0148 31.6429 74.4479 30.9896 76.0251C30.3363 77.6023 30 79.2928 30 81C30 82.7072 30.3363 84.3976 30.9896 85.9749C31.6429 87.5521 32.6004 88.9852 33.8076 90.1924C35.0148 91.3995 36.4479 92.3571 38.0251 93.0104C39.6023 93.6637 41.2928 94 43 94C44.7072 94 46.3976 93.6637 47.9749 93.0104C49.5521 92.3571 50.9852 91.3996 52.1924 90.1924C53.3995 88.9852 54.3571 87.5521 55.0104 85.9749C55.6637 84.3977 56 82.7072 56 81C56 79.2928 55.6637 77.6024 55.0104 76.0251C54.3571 74.4479 53.3996 73.0148 52.1924 71.8076C50.9852 70.6005 49.5521 69.6429 47.9749 68.9896C46.3977 68.3363 44.7072 68 43 68ZM37.2598 67.1418C39.0796 66.388 41.0302 66 43 66C44.9698 66 46.9204 66.388 48.7403 67.1418C50.5601 67.8956 52.2137 69.0005 53.6066 70.3934C54.9995 71.7863 56.1044 73.4399 56.8582 75.2598C57.612 77.0796 58 79.0302 58 81C58 82.9698 57.612 84.9204 56.8582 86.7403C56.1044 88.5601 54.9995 90.2137 53.6066 91.6066C52.2137 92.9995 50.5601 94.1044 48.7402 94.8582C46.9204 95.612 44.9698 96 43 96C41.0302 96 39.0796 95.612 37.2597 94.8582C35.4399 94.1044 33.7863 92.9995 32.3934 91.6066C31.0005 90.2137 29.8956 88.5601 29.1418 86.7402C28.388 84.9204 28 82.9698 28 81C28 79.0302 28.388 77.0796 29.1418 75.2597C29.8956 73.4399 31.0005 71.7863 32.3934 70.3934C33.7863 69.0005 35.4399 67.8956 37.2598 67.1418Z" fill="#86B457"/>
<path fill-rule="evenodd" clip-rule="evenodd" d="M42 67C42 66.4477 42.4477 66 43 66C46.8559 66 50.5637 67.4849 53.3538 70.1464C56.1438 72.808 57.8017 76.4418 57.9833 80.2934C58.165 84.145 56.8564 87.9187 54.3292 90.831C51.8021 93.7433 48.2504 95.5705 44.4116 95.9334C40.5728 96.2963 36.7417 95.1669 33.7136 92.7797C30.6855 90.3925 28.693 86.9309 28.1497 83.1135C27.6064 79.296 28.554 75.416 30.7959 72.2788C33.0378 69.1416 36.4017 66.9882 40.1893 66.2657C40.7318 66.1622 41.2555 66.5181 41.359 67.0606C41.4625 67.6031 41.1066 68.1268 40.5641 68.2303C37.2815 68.8564 34.3661 70.7227 32.4231 73.4416C30.4802 76.1605 29.6589 79.5232 30.1297 82.8317C30.6006 86.1401 32.3274 89.1402 34.9518 91.2091C37.5762 93.278 40.8965 94.2568 44.2234 93.9423C47.5504 93.6278 50.6284 92.0442 52.8187 89.5202C55.0089 86.9962 56.143 83.7257 55.9856 80.3876C55.8281 77.0495 54.3913 73.9003 51.9733 71.5936C49.5552 69.2869 46.3418 68 43 68C42.4477 68 42 67.5523 42 67Z" fill="#86B457"/>
<path d="M39.8186 85.0962C39.3626 85.0962 38.9306 85.0202 38.5226 84.8682C38.1226 84.7082 37.7826 84.4682 37.5026 84.1482C37.2226 83.8282 37.0386 83.4282 36.9506 82.9482H38.4506C38.5626 83.2042 38.7546 83.4002 39.0266 83.5362C39.3066 83.6642 39.5986 83.7282 39.9026 83.7282C40.2706 83.7282 40.5746 83.6562 40.8146 83.5122C41.0626 83.3602 41.2586 83.1602 41.4026 82.9122C41.5546 82.6562 41.6626 82.3762 41.7266 82.0722C41.7906 81.7602 41.8226 81.4442 41.8226 81.1242C41.8226 81.0842 41.8226 81.0442 41.8226 81.0042C41.8226 80.9642 41.8226 80.9282 41.8226 80.8962C41.6546 81.1762 41.4466 81.3962 41.1986 81.5562C40.9506 81.7082 40.6866 81.8202 40.4066 81.8922C40.1266 81.9562 39.8546 81.9882 39.5906 81.9882C39.0866 81.9882 38.6306 81.8842 38.2226 81.6762C37.8146 81.4682 37.4906 81.1642 37.2506 80.7642C37.0106 80.3562 36.8906 79.8682 36.8906 79.3002C36.8906 78.6922 37.0266 78.1722 37.2986 77.7402C37.5706 77.3082 37.9386 76.9802 38.4026 76.7562C38.8746 76.5242 39.3986 76.4082 39.9746 76.4082C40.5986 76.4082 41.1186 76.5362 41.5346 76.7922C41.9506 77.0482 42.2826 77.3922 42.5306 77.8242C42.7786 78.2482 42.9546 78.7202 43.0586 79.2402C43.1626 79.7602 43.2146 80.2882 43.2146 80.8242C43.2146 81.4162 43.1506 81.9722 43.0226 82.4922C42.9026 83.0042 42.7066 83.4562 42.4346 83.8482C42.1706 84.2402 41.8226 84.5482 41.3906 84.7722C40.9586 84.9882 40.4346 85.0962 39.8186 85.0962ZM39.9026 80.7042C40.2146 80.7042 40.4866 80.6402 40.7186 80.5122C40.9586 80.3762 41.1426 80.2002 41.2706 79.9842C41.3986 79.7602 41.4586 79.5202 41.4506 79.2642C41.4506 78.9602 41.3826 78.7002 41.2466 78.4842C41.1186 78.2602 40.9386 78.0842 40.7066 77.9562C40.4746 77.8282 40.2146 77.7642 39.9266 77.7642C39.6146 77.7642 39.3426 77.8322 39.1106 77.9682C38.8866 78.1042 38.7106 78.2842 38.5826 78.5082C38.4546 78.7322 38.3906 78.9722 38.3906 79.2282C38.3906 79.6682 38.5226 80.0242 38.7866 80.2962C39.0506 80.5682 39.4226 80.7042 39.9026 80.7042Z" fill="#909090"/>
<path d="M44.4934 85.0002L47.8054 77.8962H43.6054V76.5162H49.4854V77.6442L46.1614 85.0002H44.4934Z" fill="#909090"/>
<rect x="66" y="74" width="58" height="8" rx="4" fill="#4D4D4D"/>
<rect x="68" y="86" width="97" height="2" rx="1" fill="#4D4D4D"/>
<rect x="20.5" y="108.5" width="209" height="45" rx="3.5" fill="#373737" vector-effect="non-scaling-stroke" stroke="#3D3D3D"/>
<path opacity="0.3" fill-rule="evenodd" clip-rule="evenodd" d="M43 118C41.2928 118 39.6024 118.336 38.0251 118.99C36.4479 119.643 35.0148 120.6 33.8076 121.808C32.6005 123.015 31.6429 124.448 30.9896 126.025C30.3363 127.602 30 129.293 30 131C30 132.707 30.3363 134.398 30.9896 135.975C31.6429 137.552 32.6004 138.985 33.8076 140.192C35.0148 141.4 36.4479 142.357 38.0251 143.01C39.6023 143.664 41.2928 144 43 144C44.7072 144 46.3976 143.664 47.9749 143.01C49.5521 142.357 50.9852 141.4 52.1924 140.192C53.3995 138.985 54.3571 137.552 55.0104 135.975C55.6637 134.398 56 132.707 56 131C56 129.293 55.6637 127.602 55.0104 126.025C54.3571 124.448 53.3996 123.015 52.1924 121.808C50.9852 120.6 49.5521 119.643 47.9749 118.99C46.3977 118.336 44.7072 118 43 118ZM37.2598 117.142C39.0796 116.388 41.0302 116 43 116C44.9698 116 46.9204 116.388 48.7403 117.142C50.5601 117.896 52.2137 119.001 53.6066 120.393C54.9995 121.786 56.1044 123.44 56.8582 125.26C57.612 127.08 58 129.03 58 131C58 132.97 57.612 134.92 56.8582 136.74C56.1044 138.56 54.9995 140.214 53.6066 141.607C52.2137 142.999 50.5601 144.104 48.7402 144.858C46.9204 145.612 44.9698 146 43 146C41.0302 146 39.0796 145.612 37.2597 144.858C35.4399 144.104 33.7863 142.999 32.3934 141.607C31.0005 140.214 29.8956 138.56 29.1418 136.74C28.388 134.92 28 132.97 28 131C28 129.03 28.388 127.08 29.1418 125.26C29.8956 123.44 31.0005 121.786 32.3934 120.393C33.7863 119.001 35.4399 117.896 37.2598 117.142Z" fill="#86B457"/>
<path fill-rule="evenodd" clip-rule="evenodd" d="M42 117C42 116.448 42.4477 116 43 116C46.6121 116 50.1028 117.303 52.831 119.671C55.5591 122.038 57.3414 125.31 57.8503 128.886C58.3593 132.463 57.5607 136.102 55.6014 139.137C53.642 142.171 50.6535 144.397 47.1848 145.404C43.7162 146.412 40.0004 146.134 36.7201 144.622C33.4398 143.11 30.8154 140.465 29.329 137.173C27.8425 133.881 27.594 130.163 28.6289 126.702C29.6639 123.241 31.9128 120.271 34.9626 118.335C35.4289 118.039 36.0468 118.177 36.3428 118.644C36.6387 119.11 36.5006 119.728 36.0343 120.024C33.3911 121.701 31.442 124.276 30.5451 127.275C29.6481 130.274 29.8635 133.497 31.1518 136.35C32.44 139.203 34.7145 141.495 37.5574 142.806C40.4003 144.116 43.6207 144.357 46.6269 143.484C49.633 142.61 52.2231 140.682 53.9212 138.052C55.6193 135.422 56.3114 132.268 55.8703 129.168C55.4292 126.069 53.8846 123.233 51.5202 121.181C49.1558 119.13 46.1305 118 43 118C42.4477 118 42 117.552 42 117Z" fill="#86B457"/>
<path d="M40.9671 135.096C40.5111 135.096 40.0791 135.02 39.6711 134.868C39.2711 134.708 38.9311 134.468 38.6511 134.148C38.3711 133.828 38.1871 133.428 38.0991 132.948H39.5991C39.7111 133.204 39.9031 133.4 40.1751 133.536C40.4551 133.664 40.7471 133.728 41.0511 133.728C41.4191 133.728 41.7231 133.656 41.9631 133.512C42.2111 133.36 42.4071 133.16 42.5511 132.912C42.7031 132.656 42.8111 132.376 42.8751 132.072C42.9391 131.76 42.9711 131.444 42.9711 131.124C42.9711 131.084 42.9711 131.044 42.9711 131.004C42.9711 130.964 42.9711 130.928 42.9711 130.896C42.8031 131.176 42.5951 131.396 42.3471 131.556C42.0991 131.708 41.8351 131.82 41.5551 131.892C41.2751 131.956 41.0031 131.988 40.7391 131.988C40.2351 131.988 39.7791 131.884 39.3711 131.676C38.9631 131.468 38.6391 131.164 38.3991 130.764C38.1591 130.356 38.0391 129.868 38.0391 129.3C38.0391 128.692 38.1751 128.172 38.4471 127.74C38.7191 127.308 39.0871 126.98 39.5511 126.756C40.0231 126.524 40.5471 126.408 41.1231 126.408C41.7471 126.408 42.2671 126.536 42.6831 126.792C43.0991 127.048 43.4311 127.392 43.6791 127.824C43.9271 128.248 44.1031 128.72 44.2071 129.24C44.3111 129.76 44.3631 130.288 44.3631 130.824C44.3631 131.416 44.2991 131.972 44.1711 132.492C44.0511 133.004 43.8551 133.456 43.5831 133.848C43.3191 134.24 42.9711 134.548 42.5391 134.772C42.1071 134.988 41.5831 135.096 40.9671 135.096ZM41.0511 130.704C41.3631 130.704 41.6351 130.64 41.8671 130.512C42.1071 130.376 42.2911 130.2 42.4191 129.984C42.5471 129.76 42.6071 129.52 42.5991 129.264C42.5991 128.96 42.5311 128.7 42.3951 128.484C42.2671 128.26 42.0871 128.084 41.8551 127.956C41.6231 127.828 41.3631 127.764 41.0751 127.764C40.7631 127.764 40.4911 127.832 40.2591 127.968C40.0351 128.104 39.8591 128.284 39.7311 128.508C39.6031 128.732 39.5391 128.972 39.5391 129.228C39.5391 129.668 39.6711 130.024 39.9351 130.296C40.1991 130.568 40.5711 130.704 41.0511 130.704Z" fill="#909090"/>
<path d="M46.8242 135V128.58H45.1442V127.488C45.4722 127.472 45.7642 127.436 46.0202 127.38C46.2762 127.324 46.5042 127.228 46.7042 127.092C46.9122 126.956 47.0962 126.764 47.2562 126.516H48.3242V135H46.8242Z" fill="#909090"/>
<rect x="66" y="124" width="79" height="8" rx="4" fill="#4D4D4D"/>
<rect x="68" y="136" width="97" height="2" rx="1" fill="#4D4D4D"/>
<rect x="20.5" y="158.5" width="209" height="45" rx="3.5" fill="#373737" vector-effect="non-scaling-stroke" stroke="#3D3D3D"/>
<path opacity="0.3" fill-rule="evenodd" clip-rule="evenodd" d="M43 168C41.2928 168 39.6024 168.336 38.0251 168.99C36.4479 169.643 35.0148 170.6 33.8076 171.808C32.6005 173.015 31.6429 174.448 30.9896 176.025C30.3363 177.602 30 179.293 30 181C30 182.707 30.3363 184.398 30.9896 185.975C31.6429 187.552 32.6004 188.985 33.8076 190.192C35.0148 191.4 36.4479 192.357 38.0251 193.01C39.6023 193.664 41.2928 194 43 194C44.7072 194 46.3976 193.664 47.9749 193.01C49.5521 192.357 50.9852 191.4 52.1924 190.192C53.3995 188.985 54.3571 187.552 55.0104 185.975C55.6637 184.398 56 182.707 56 181C56 179.293 55.6637 177.602 55.0104 176.025C54.3571 174.448 53.3996 173.015 52.1924 171.808C50.9852 170.6 49.5521 169.643 47.9749 168.99C46.3977 168.336 44.7072 168 43 168ZM37.2598 167.142C39.0796 166.388 41.0302 166 43 166C44.9698 166 46.9204 166.388 48.7403 167.142C50.5601 167.896 52.2137 169.001 53.6066 170.393C54.9995 171.786 56.1044 173.44 56.8582 175.26C57.612 177.08 58 179.03 58 181C58 182.97 57.612 184.92 56.8582 186.74C56.1044 188.56 54.9995 190.214 53.6066 191.607C52.2137 192.999 50.5601 194.104 48.7402 194.858C46.9204 195.612 44.9698 196 43 196C41.0302 196 39.0796 195.612 37.2597 194.858C35.4399 194.104 33.7863 192.999 32.3934 191.607C31.0005 190.214 29.8956 188.56 29.1418 186.74C28.388 184.92 28 182.97 28 181C28 179.03 28.388 177.08 29.1418 175.26C29.8956 173.44 31.0005 171.786 32.3934 170.393C33.7863 169.001 35.4399 167.896 37.2598 167.142Z" fill="#F2B848"/>
<path fill-rule="evenodd" clip-rule="evenodd" d="M41.9982 167C41.9982 166.448 42.4459 166 42.9982 166C45.5647 166 48.0882 166.659 50.3275 167.913C52.5668 169.167 54.4468 170.974 55.7878 173.163C57.1288 175.351 57.8859 177.847 57.9866 180.411C58.0874 182.976 57.5284 185.523 56.3633 187.81C55.1981 190.097 53.4657 192.046 51.3317 193.472C49.1978 194.898 46.7337 195.752 44.1751 195.954C41.6165 196.155 39.049 195.697 36.7183 194.622C34.3875 193.548 32.3715 191.893 30.8629 189.817C30.5383 189.37 30.6374 188.745 31.0842 188.42C31.531 188.095 32.1563 188.194 32.481 188.641C33.7884 190.441 35.5356 191.875 37.5556 192.806C39.5756 193.737 41.8007 194.134 44.0182 193.96C46.2356 193.785 48.3712 193.045 50.2206 191.809C52.07 190.573 53.5715 188.884 54.5813 186.902C55.5911 184.92 56.0755 182.712 55.9882 180.49C55.9008 178.267 55.2447 176.104 54.0825 174.208C52.9203 172.311 51.2909 170.744 49.3503 169.658C47.4096 168.571 45.2225 168 42.9982 168C42.4459 168 41.9982 167.552 41.9982 167Z" fill="#F2B848"/>
<path d="M39.9959 185.096C39.4039 185.096 38.8959 184.984 38.4719 184.76C38.0479 184.536 37.7039 184.232 37.4399 183.848C37.1759 183.464 36.9799 183.024 36.8519 182.528C36.7319 182.032 36.6719 181.512 36.6719 180.968C36.6719 180.352 36.7359 179.772 36.8639 179.228C36.9999 178.676 37.2079 178.192 37.4879 177.776C37.7679 177.352 38.1279 177.02 38.5679 176.78C39.0159 176.532 39.5439 176.408 40.1519 176.408C40.6079 176.408 41.0279 176.488 41.4119 176.648C41.8039 176.808 42.1319 177.048 42.3959 177.368C42.6599 177.688 42.8399 178.088 42.9359 178.568H41.4959C41.3839 178.312 41.1999 178.116 40.9439 177.98C40.6959 177.836 40.4199 177.764 40.1159 177.764C39.8039 177.764 39.5319 177.824 39.2999 177.944C39.0759 178.056 38.8839 178.208 38.7239 178.4C38.5639 178.584 38.4359 178.8 38.3399 179.048C38.2439 179.296 38.1719 179.552 38.1239 179.816C38.0759 180.08 38.0519 180.34 38.0519 180.596C38.2439 180.316 38.4639 180.1 38.7119 179.948C38.9599 179.788 39.2199 179.676 39.4919 179.612C39.7639 179.54 40.0199 179.504 40.2599 179.504C40.8279 179.504 41.3119 179.616 41.7119 179.84C42.1199 180.064 42.4359 180.38 42.6599 180.788C42.8839 181.188 42.9959 181.66 42.9959 182.204C42.9959 182.788 42.8679 183.296 42.6119 183.728C42.3559 184.16 41.9999 184.496 41.5439 184.736C41.0959 184.976 40.5799 185.096 39.9959 185.096ZM39.9839 183.74C40.2959 183.732 40.5639 183.664 40.7879 183.536C41.0119 183.408 41.1839 183.236 41.3039 183.02C41.4319 182.796 41.4959 182.552 41.4959 182.288C41.4959 182.008 41.4359 181.76 41.3159 181.544C41.1959 181.32 41.0239 181.144 40.7999 181.016C40.5839 180.88 40.3239 180.812 40.0199 180.812C39.7319 180.812 39.4679 180.876 39.2279 181.004C38.9879 181.124 38.7959 181.296 38.6519 181.52C38.5079 181.736 38.4359 181.988 38.4359 182.276C38.4359 182.54 38.4999 182.784 38.6279 183.008C38.7639 183.224 38.9479 183.4 39.1799 183.536C39.4119 183.672 39.6799 183.74 39.9839 183.74Z" fill="#909090"/>
<path d="M47.2204 185.096C46.8444 185.096 46.4884 185.052 46.1524 184.964C45.8164 184.868 45.5124 184.724 45.2404 184.532C44.9684 184.34 44.7404 184.096 44.5564 183.8C44.3804 183.496 44.2604 183.14 44.1964 182.732H45.6724C45.7364 182.908 45.8404 183.072 45.9844 183.224C46.1364 183.376 46.3164 183.496 46.5244 183.584C46.7404 183.672 46.9724 183.716 47.2204 183.716C47.5564 183.716 47.8444 183.66 48.0844 183.548C48.3244 183.428 48.5124 183.26 48.6484 183.044C48.7844 182.82 48.8524 182.552 48.8524 182.24C48.8524 181.776 48.7084 181.412 48.4204 181.148C48.1404 180.884 47.7564 180.752 47.2684 180.752C46.9804 180.752 46.7124 180.804 46.4644 180.908C46.2164 181.004 45.9844 181.14 45.7684 181.316H44.4364L44.6644 176.516H50.0764V177.884H46.0444L45.9004 179.912C46.1404 179.744 46.4164 179.62 46.7284 179.54C47.0404 179.452 47.3804 179.412 47.7484 179.42C48.2924 179.428 48.7604 179.548 49.1524 179.78C49.5524 180.004 49.8564 180.316 50.0644 180.716C50.2724 181.116 50.3764 181.588 50.3764 182.132C50.3764 182.764 50.2364 183.3 49.9564 183.74C49.6844 184.18 49.3084 184.516 48.8284 184.748C48.3564 184.98 47.8204 185.096 47.2204 185.096Z" fill="#909090"/>
<rect x="66" y="174" width="42" height="8" rx="4" fill="#4D4D4D"/>
<rect x="68" y="186" width="97" height="2" rx="1" fill="#4D4D4D"/>
<rect x="20.5" y="208.5" width="209" height="45" rx="3.5" fill="#373737" vector-effect="non-scaling-stroke" stroke="#3D3D3D"/>
<path opacity="0.3" fill-rule="evenodd" clip-rule="evenodd" d="M43 218C41.2928 218 39.6024 218.336 38.0251 218.99C36.4479 219.643 35.0148 220.6 33.8076 221.808C32.6005 223.015 31.6429 224.448 30.9896 226.025C30.3363 227.602 30 229.293 30 231C30 232.707 30.3363 234.398 30.9896 235.975C31.6429 237.552 32.6004 238.985 33.8076 240.192C35.0148 241.4 36.4479 242.357 38.0251 243.01C39.6023 243.664 41.2928 244 43 244C44.7072 244 46.3976 243.664 47.9749 243.01C49.5521 242.357 50.9852 241.4 52.1924 240.192C53.3995 238.985 54.3571 237.552 55.0104 235.975C55.6637 234.398 56 232.707 56 231C56 229.293 55.6637 227.602 55.0104 226.025C54.3571 224.448 53.3996 223.015 52.1924 221.808C50.9852 220.6 49.5521 219.643 47.9749 218.99C46.3977 218.336 44.7072 218 43 218ZM37.2598 217.142C39.0796 216.388 41.0302 216 43 216C44.9698 216 46.9204 216.388 48.7403 217.142C50.5601 217.896 52.2137 219.001 53.6066 220.393C54.9995 221.786 56.1044 223.44 56.8582 225.26C57.612 227.08 58 229.03 58 231C58 232.97 57.612 234.92 56.8582 236.74C56.1044 238.56 54.9995 240.214 53.6066 241.607C52.2137 242.999 50.5601 244.104 48.7402 244.858C46.9204 245.612 44.9698 246 43 246C41.0302 246 39.0796 245.612 37.2597 244.858C35.4399 244.104 33.7863 242.999 32.3934 241.607C31.0005 240.214 29.8956 238.56 29.1418 236.74C28.388 234.92 28 232.97 28 231C28 229.03 28.388 227.08 29.1418 225.26C29.8956 223.44 31.0005 221.786 32.3934 220.393C33.7863 219.001 35.4399 217.896 37.2598 217.142Z" fill="#F24848"/>
<path fill-rule="evenodd" clip-rule="evenodd" d="M42 217C42 216.448 42.4477 216 43 216C45.8464 216 48.6341 216.81 51.0374 218.335C53.4407 219.86 55.3605 222.038 56.5724 224.613C57.7844 227.189 58.2385 230.056 57.8817 232.88C57.525 235.704 56.3721 238.368 54.5577 240.561C54.2057 240.987 53.5753 241.046 53.1498 240.694C52.7242 240.342 52.6646 239.712 53.0167 239.287C54.5891 237.386 55.5883 235.077 55.8975 232.629C56.2067 230.182 55.8131 227.697 54.7628 225.465C53.7124 223.233 52.0486 221.346 49.9657 220.024C47.8829 218.702 45.4669 218 43 218C42.4477 218 42 217.552 42 217Z" fill="#F24848"/>
<path d="M39.6862 235.096C39.3102 235.096 38.9382 235.052 38.5702 234.964C38.2022 234.876 37.8662 234.74 37.5622 234.556C37.2582 234.364 37.0022 234.116 36.7942 233.812C36.5942 233.508 36.4662 233.14 36.4102 232.708H37.8982C37.9702 232.956 38.0982 233.152 38.2822 233.296C38.4742 233.44 38.6942 233.548 38.9422 233.62C39.1902 233.684 39.4422 233.716 39.6982 233.716C39.8822 233.716 40.0662 233.7 40.2502 233.668C40.4342 233.636 40.6062 233.576 40.7662 233.488C40.9262 233.4 41.0542 233.276 41.1502 233.116C41.2462 232.956 41.2942 232.748 41.2942 232.492C41.2942 232.26 41.2502 232.068 41.1622 231.916C41.0822 231.764 40.9662 231.648 40.8142 231.568C40.6702 231.48 40.5022 231.42 40.3102 231.388C40.1262 231.348 39.9302 231.328 39.7222 231.328H38.7862V230.044H39.3982C39.6302 230.044 39.8422 230.02 40.0342 229.972C40.2262 229.924 40.3942 229.856 40.5382 229.768C40.6822 229.672 40.7902 229.552 40.8622 229.408C40.9422 229.264 40.9822 229.092 40.9822 228.892C40.9822 228.604 40.9182 228.38 40.7902 228.22C40.6702 228.06 40.5062 227.948 40.2982 227.884C40.0902 227.812 39.8622 227.776 39.6142 227.776C39.3902 227.776 39.1742 227.812 38.9662 227.884C38.7582 227.948 38.5782 228.048 38.4262 228.184C38.2742 228.32 38.1782 228.492 38.1382 228.7H36.6742C36.7222 228.3 36.8382 227.956 37.0222 227.668C37.2062 227.38 37.4342 227.144 37.7062 226.96C37.9862 226.768 38.2982 226.628 38.6422 226.54C38.9862 226.452 39.3422 226.408 39.7102 226.408C40.0702 226.408 40.4142 226.448 40.7422 226.528C41.0782 226.608 41.3742 226.74 41.6302 226.924C41.8862 227.1 42.0902 227.332 42.2422 227.62C42.3942 227.908 42.4702 228.26 42.4702 228.676C42.4702 228.94 42.4262 229.188 42.3382 229.42C42.2502 229.652 42.1222 229.856 41.9542 230.032C41.7942 230.208 41.5982 230.352 41.3662 230.464C41.6862 230.552 41.9542 230.696 42.1702 230.896C42.3862 231.088 42.5462 231.32 42.6502 231.592C42.7622 231.864 42.8182 232.164 42.8182 232.492C42.8182 233.004 42.7222 233.432 42.5302 233.776C42.3462 234.112 42.0982 234.376 41.7862 234.568C41.4822 234.76 41.1462 234.896 40.7782 234.976C40.4102 235.056 40.0462 235.096 39.6862 235.096Z" fill="#909090"/>
<path d="M47.3349 235.096C46.7429 235.096 46.2349 234.984 45.8109 234.76C45.3869 234.536 45.0429 234.232 44.7789 233.848C44.5149 233.464 44.3189 233.024 44.1909 232.528C44.0709 232.032 44.0109 231.512 44.0109 230.968C44.0109 230.352 44.0749 229.772 44.2029 229.228C44.3389 228.676 44.5469 228.192 44.8269 227.776C45.1069 227.352 45.4669 227.02 45.9069 226.78C46.3549 226.532 46.8829 226.408 47.4909 226.408C47.9469 226.408 48.3669 226.488 48.7509 226.648C49.1429 226.808 49.4709 227.048 49.7349 227.368C49.9989 227.688 50.1789 228.088 50.2749 228.568H48.8349C48.7229 228.312 48.5389 228.116 48.2829 227.98C48.0349 227.836 47.7589 227.764 47.4549 227.764C47.1429 227.764 46.8709 227.824 46.6389 227.944C46.4149 228.056 46.2229 228.208 46.0629 228.4C45.9029 228.584 45.7749 228.8 45.6789 229.048C45.5829 229.296 45.5109 229.552 45.4629 229.816C45.4149 230.08 45.3909 230.34 45.3909 230.596C45.5829 230.316 45.8029 230.1 46.0509 229.948C46.2989 229.788 46.5589 229.676 46.8309 229.612C47.1029 229.54 47.3589 229.504 47.5989 229.504C48.1669 229.504 48.6509 229.616 49.0509 229.84C49.4589 230.064 49.7749 230.38 49.9989 230.788C50.2229 231.188 50.3349 231.66 50.3349 232.204C50.3349 232.788 50.2069 233.296 49.9509 233.728C49.6949 234.16 49.3389 234.496 48.8829 234.736C48.4349 234.976 47.9189 235.096 47.3349 235.096ZM47.3229 233.74C47.6349 233.732 47.9029 233.664 48.1269 233.536C48.3509 233.408 48.5229 233.236 48.6429 233.02C48.7709 232.796 48.8349 232.552 48.8349 232.288C48.8349 232.008 48.7749 231.76 48.6549 231.544C48.5349 231.32 48.3629 231.144 48.1389 231.016C47.9229 230.88 47.6629 230.812 47.3589 230.812C47.0709 230.812 46.8069 230.876 46.5669 231.004C46.3269 231.124 46.1349 231.296 45.9909 231.52C45.8469 231.736 45.7749 231.988 45.7749 232.276C45.7749 232.54 45.8389 232.784 45.9669 233.008C46.1029 233.224 46.2869 233.4 46.5189 233.536C46.7509 233.672 47.0189 233.74 47.3229 233.74Z" fill="#909090"/>
<rect x="66" y="224" width="58" height="8" rx="4" fill="#4D4D4D"/>
<rect x="68" y="236" width="97" height="2" rx="1" fill="#4D4D4D"/>
<path fill-rule="evenodd" clip-rule="evenodd" d="M164.845 22.8449C165.673 22.0174 166.844 21.5752 168.001 21.5752C169.24 21.5752 170.334 22.0228 171.156 22.8449C171.95 23.6388 172.501 24.7225 172.501 26.0002C172.501 27.195 171.956 28.3553 171.156 29.1555L170.631 29.6805C170.338 29.9734 169.863 29.9734 169.57 29.6805C169.278 29.3876 169.278 28.9127 169.57 28.6198L170.095 28.0949C170.645 27.5451 171.001 26.7555 171.001 26.0002C171.001 25.1779 170.652 24.4616 170.095 23.9055C169.568 23.3777 168.861 23.0752 168.001 23.0752C167.207 23.0752 166.429 23.383 165.906 23.9055L165.381 24.4305L164.406 25.4055L164.331 25.4805C163.781 26.0303 163.426 26.8199 163.426 27.5752C163.426 28.3975 163.775 29.1138 164.331 29.6699C164.624 29.9628 164.624 30.4376 164.331 30.7305C164.038 31.0234 163.563 31.0234 163.27 30.7305C162.477 29.9366 161.926 28.8529 161.926 27.5752C161.926 26.3805 162.47 25.2201 163.27 24.4199L163.345 24.3449L164.32 23.3699L164.845 22.8449C164.845 22.8449 164.845 22.8449 164.845 22.8449Z" fill="#909090"/>
<path fill-rule="evenodd" clip-rule="evenodd" d="M166.125 32.2998C166.539 32.2998 166.875 32.6356 166.875 33.0498V33.1998C166.875 33.614 166.539 33.9498 166.125 33.9498C165.711 33.9498 165.375 33.614 165.375 33.1998V33.0498C165.375 32.6356 165.711 32.2998 166.125 32.2998Z" fill="#909090"/>
<path fill-rule="evenodd" clip-rule="evenodd" d="M165.67 27.2695C165.963 26.9766 166.437 26.9766 166.73 27.2695C167.524 28.0634 168.075 29.1471 168.075 30.4248C168.075 31.6195 167.531 32.7799 166.73 33.5801L165.68 34.6301L165.155 35.1551C164.328 35.9826 163.157 36.4248 162 36.4248C160.76 36.4248 159.667 35.9772 158.845 35.1551C158.051 34.3612 157.5 33.2775 157.5 31.9998C157.5 30.805 158.044 29.6447 158.845 28.8445L159.37 28.3195C159.663 28.0266 160.137 28.0266 160.43 28.3195C160.723 28.6124 160.723 29.0873 160.43 29.3802L159.905 29.9051C159.905 29.9051 159.905 29.9051 159.905 29.9051C159.356 30.4549 159 31.2445 159 31.9998C159 32.8221 159.349 33.5384 159.905 34.0945C160.433 34.6223 161.14 34.9248 162 34.9248C162.793 34.9248 163.572 34.617 164.095 34.0945L164.62 33.5695L165.67 32.5195C166.219 31.9697 166.575 31.1801 166.575 30.4248C166.575 29.6025 166.226 28.8862 165.67 28.3301C165.377 28.0372 165.377 27.5624 165.67 27.2695Z" fill="#909090"/>
<path fill-rule="evenodd" clip-rule="evenodd" d="M163.875 24.0498C164.289 24.0498 164.625 24.3856 164.625 24.7998V24.9498C164.625 25.364 164.289 25.6998 163.875 25.6998C163.461 25.6998 163.125 25.364 163.125 24.9498V24.7998C163.125 24.3856 163.461 24.0498 163.875 24.0498Z" fill="#909090"/>
<path fill-rule="evenodd" clip-rule="evenodd" d="M186.001 27.9939C185.606 28.5251 185.5 28.8758 185.5 29C185.5 29.1242 185.606 29.4749 186.001 30.0061C186.37 30.5034 186.921 31.0631 187.618 31.5885C189.017 32.6426 190.925 33.5 193 33.5C195.075 33.5 196.983 32.6426 198.382 31.5885C199.079 31.0631 199.63 30.5034 199.999 30.0061C200.394 29.4749 200.5 29.1242 200.5 29C200.5 28.8758 200.394 28.5251 199.999 27.9939C199.63 27.4966 199.079 26.9369 198.382 26.4115C196.983 25.3574 195.075 24.5 193 24.5C190.925 24.5 189.017 25.3574 187.618 26.4115C186.921 26.9369 186.37 27.4966 186.001 27.9939ZM186.715 25.2135C188.302 24.0176 190.519 23 193 23C195.481 23 197.698 24.0176 199.285 25.2135C200.081 25.8131 200.738 26.4722 201.204 27.0999C201.645 27.6936 202 28.3742 202 29C202 29.6258 201.645 30.3064 201.204 30.9001C200.738 31.5278 200.081 32.1869 199.285 32.7865C197.698 33.9824 195.481 35 193 35C190.519 35 188.302 33.9824 186.715 32.7865C185.919 32.1869 185.262 31.5278 184.796 30.9001C184.355 30.3064 184 29.6258 184 29C184 28.3742 184.355 27.6936 184.796 27.0999C185.262 26.4722 185.919 25.8131 186.715 25.2135Z" fill="#909090"/>
<path fill-rule="evenodd" clip-rule="evenodd" d="M193 27.5C192.172 27.5 191.5 28.1716 191.5 29C191.5 29.8284 192.172 30.5 193 30.5C193.828 30.5 194.5 29.8284 194.5 29C194.5 28.1716 193.828 27.5 193 27.5ZM190 29C190 27.3431 191.343 26 193 26C194.657 26 196 27.3431 196 29C196 30.6569 194.657 32 193 32C191.343 32 190 30.6569 190 29Z" fill="#909090"/>
<g clip-path="url(#clip1_1815_39064)">
<path fill-rule="evenodd" clip-rule="evenodd" d="M227.45 21.5C227.177 21.5 226.925 21.5857 226.705 21.8053L219.716 28.7945L219.103 30.8971L221.206 30.2838L228.195 23.2947C228.356 23.1337 228.5 22.7988 228.5 22.55C228.5 21.9892 228.011 21.5 227.45 21.5ZM225.645 20.7447C226.175 20.2143 226.823 20 227.45 20C228.839 20 230 21.1608 230 22.55C230 23.2012 229.694 23.9163 229.255 24.3553L222.13 31.4803C222.041 31.5695 221.931 31.6347 221.81 31.67L218.21 32.72C217.947 32.7967 217.663 32.724 217.47 32.5303C217.276 32.3367 217.203 32.0529 217.28 31.79L218.33 28.19C218.365 28.069 218.431 27.9588 218.52 27.8697L225.645 20.7447Z" fill="#909090"/>
<path fill-rule="evenodd" clip-rule="evenodd" d="M212 25.25C212 23.1858 213.686 21.5 215.75 21.5H220.25C220.664 21.5 221 21.8358 221 22.25C221 22.6642 220.664 23 220.25 23H215.75C214.514 23 213.5 24.0142 213.5 25.25V34.25C213.5 35.4858 214.514 36.5 215.75 36.5H224.75C225.986 36.5 227 35.4858 227 34.25V29.75C227 29.3358 227.336 29 227.75 29C228.164 29 228.5 29.3358 228.5 29.75V34.25C228.5 36.3142 226.814 38 224.75 38H215.75C213.686 38 212 36.3142 212 34.25V25.25Z" fill="#909090"/>
</g>
</g>
<defs>
<clipPath id="clip0_1815_39064">
<rect width="250" height="250" fill="white"/>
</clipPath>
<clipPath id="clip1_1815_39064">
<rect width="18" height="18" fill="white" transform="translate(212 20)"/>
</clipPath>
</defs>
</svg>
